<svg width="44" height="56" viewBox="0 0 44 56" fill="none" xmlns="http://www.w3.org/2000/svg">
<path d="M18.5824 27.0052H7.41244L12.2924 22.1252C12.6824 21.7352 12.6824 21.0952 12.2924 20.7052C12.1999 20.6125 12.09 20.539 11.9691 20.4888C11.8481 20.4386 11.7184 20.4128 11.5874 20.4128C11.4565 20.4128 11.3268 20.4386 11.2058 20.4888C11.0848 20.539 10.975 20.6125 10.8824 20.7052L4.29244 27.2952C4.19974 27.3877 4.12619 27.4976 4.07601 27.6186C4.02583 27.7396 4 27.8692 4 28.0002C4 28.1312 4.02583 28.2609 4.07601 28.3818C4.12619 28.5028 4.19974 28.6127 4.29244 28.7052L10.8824 35.2952C10.975 35.3878 11.0849 35.4612 11.2059 35.5113C11.3269 35.5614 11.4565 35.5872 11.5874 35.5872C11.7184 35.5872 11.848 35.5614 11.969 35.5113C12.09 35.4612 12.1999 35.3878 12.2924 35.2952C12.385 35.2026 12.4585 35.0927 12.5086 34.9718C12.5587 34.8508 12.5845 34.7211 12.5845 34.5902C12.5845 34.4593 12.5587 34.3296 12.5086 34.2087C12.4585 34.0877 12.385 33.9778 12.2924 33.8852L7.41244 29.0052H18.5824C19.1324 29.0052 19.5824 28.5552 19.5824 28.0052C19.5824 27.4552 19.1324 27.0052 18.5824 27.0052Z" fill="white"/>
</svg>
