<svg width="24" height="24" viewBox="0 0 24 24" fill="none" xmlns="http://www.w3.org/2000/svg">
<path d="M14.709 19.7706L12.7073 21.7154C12.3168 22.0948 11.6836 22.0949 11.2931 21.7155L9.29104 19.7705C9.1044 19.5892 8.85444 19.4878 8.59423 19.4878H7C4.23858 19.4878 2 17.3129 2 14.6301V6.85772C2 4.17488 4.23858 2 7 2H17C19.7614 2 22 4.17488 22 6.85772V14.6301C22 17.3129 19.7614 19.4878 17 19.4878H15.4058C15.1456 19.4878 14.8956 19.5892 14.709 19.7706Z" stroke="black" stroke-width="2"/>
<path d="M8 9H16M8 12.5H13.5" stroke="black" stroke-width="1.5" stroke-linecap="round"/>
</svg>
