<svg width="32" height="32" viewBox="0 0 32 32" fill="none" xmlns="http://www.w3.org/2000/svg">
<path d="M16.0001 22.6665C16.3779 22.6665 16.6947 22.5385 16.9508 22.2825C17.2067 22.0265 17.3343 21.7101 17.3334 21.3332C17.3325 20.9563 17.2045 20.6398 16.9494 20.3838C16.6943 20.1278 16.3779 19.9998 16.0001 19.9998C15.6223 19.9998 15.3059 20.1278 15.0507 20.3838C14.7956 20.6398 14.6676 20.9563 14.6667 21.3332C14.6659 21.7101 14.7939 22.0269 15.0507 22.2838C15.3076 22.5407 15.6241 22.6683 16.0001 22.6665ZM16.0001 17.3332C16.3779 17.3332 16.6947 17.2052 16.9508 16.9492C17.2067 16.6932 17.3343 16.3767 17.3334 15.9998V10.6665C17.3334 10.2887 17.2054 9.97228 16.9494 9.71717C16.6934 9.46206 16.377 9.33406 16.0001 9.33317C15.6232 9.33228 15.3068 9.46028 15.0507 9.71717C14.7948 9.97406 14.6667 10.2905 14.6667 10.6665V15.9998C14.6667 16.3776 14.7948 16.6945 15.0507 16.9505C15.3068 17.2065 15.6232 17.3341 16.0001 17.3332ZM16.0001 29.3332C14.1556 29.3332 12.4223 28.9829 10.8001 28.2825C9.17786 27.5821 7.76675 26.6323 6.56675 25.4332C5.36675 24.2341 4.41697 22.8229 3.71742 21.1998C3.01786 19.5767 2.66764 17.8434 2.66675 15.9998C2.66586 14.1563 3.01608 12.4229 3.71742 10.7998C4.41875 9.17673 5.36853 7.76561 6.56675 6.5665C7.76497 5.36739 9.17608 4.41762 10.8001 3.71717C12.4241 3.01673 14.1574 2.6665 16.0001 2.6665C17.8427 2.6665 19.5761 3.01673 21.2001 3.71717C22.8241 4.41762 24.2352 5.36739 25.4334 6.5665C26.6316 7.76561 27.5819 9.17673 28.2841 10.7998C28.9863 12.4229 29.3361 14.1563 29.3334 15.9998C29.3308 17.8434 28.9805 19.5767 28.2828 21.1998C27.585 22.8229 26.6352 24.2341 25.4334 25.4332C24.2316 26.6323 22.8205 27.5825 21.2001 28.2838C19.5796 28.9852 17.8463 29.3349 16.0001 29.3332Z" fill="#007AFF"/>
</svg>
