<svg width="24" height="24" viewBox="0 0 24 24" fill="none" xmlns="http://www.w3.org/2000/svg">
<path fill-rule="evenodd" clip-rule="evenodd" d="M18.4939 3.80103C20.5889 5.02203 22.0629 7.50103 21.9979 10.393C21.9169 14.003 19.1079 17.187 14.3189 20.031C13.6089 20.453 12.8609 21 11.9999 21C11.1549 21 10.3749 20.443 9.67995 20.03C4.89295 17.187 2.08295 14.002 2.00195 10.393C1.93695 7.50103 3.41095 5.02303 5.50595 3.80103C7.46595 2.66003 9.92795 2.65303 11.9999 4.33803C14.0719 2.65303 16.5339 2.65903 18.4939 3.80103ZM17.4869 5.53003C16.0929 4.71803 14.3509 4.74703 12.8429 6.27303C12.7324 6.384 12.601 6.47204 12.4563 6.53212C12.3117 6.5922 12.1566 6.62312 11.9999 6.62312C11.8433 6.62312 11.6882 6.5922 11.5435 6.53212C11.3989 6.47204 11.2675 6.384 11.1569 6.27303C9.64895 4.74703 7.90695 4.71803 6.51295 5.53003C5.06895 6.37203 3.95295 8.15803 4.00195 10.35C4.05795 12.861 6.04195 15.544 10.7019 18.312C11.1099 18.555 11.5359 18.866 11.9999 18.995C12.4639 18.866 12.8899 18.555 13.2979 18.312C17.9579 15.544 19.9419 12.862 19.9979 10.349C20.0479 8.15903 18.9309 6.37203 17.4869 5.53003Z" fill="black"/>
</svg>
