<svg width="32" height="32" viewBox="0 0 32 32" fill="none" xmlns="http://www.w3.org/2000/svg">
<path d="M16 22.6668L14 24.6668C13.1159 25.5507 11.9169 26.0472 10.6667 26.0472C9.41648 26.0472 8.21747 25.5507 7.33334 24.6668C6.44943 23.7826 5.95288 22.5836 5.95288 21.3334C5.95288 20.0832 6.44943 18.8842 7.33334 18.0001L11.3333 14.0001C12.2175 13.1162 13.4165 12.6196 14.6667 12.6196C15.9169 12.6196 17.1159 13.1162 18 14.0001" stroke="#1A1A1A" stroke-width="2" stroke-linecap="round"/>
<path d="M16 9.33334L18 7.33334C18.8841 6.44943 20.0831 5.95288 21.3333 5.95288C22.5835 5.95288 23.7825 6.44943 24.6667 7.33334C25.5506 8.21747 26.0471 9.41648 26.0471 10.6667C26.0471 11.9169 25.5506 13.1159 24.6667 14L20.6667 18C19.7825 18.8839 18.5835 19.3805 17.3333 19.3805C16.0831 19.3805 14.8841 18.8839 14 18" stroke="#1A1A1A" stroke-width="2" stroke-linecap="round"/>
</svg>
