<svg width="24" height="24" viewBox="0 0 24 24" fill="none" xmlns="http://www.w3.org/2000/svg">
<path d="M12 5V19C9.2 19 7.1196 15.4378 7.1196 15.4378H4.8C4.58783 15.4378 4.38434 15.3558 4.23431 15.21C4.08429 15.0641 4 14.8663 4 14.66V9.28167C4 9.07539 4.08429 8.87756 4.23431 8.73169C4.38434 8.58583 4.58783 8.50389 4.8 8.50389H7.1196C7.1196 8.50389 9.2 5 12 5Z" stroke="#1B1B1B" stroke-width="2" stroke-linejoin="round"/>
<path d="M15.2001 8.5C15.45 8.71744 15.6757 8.95975 15.8737 9.22294C16.4782 10.0294 16.8028 11.0021 16.8001 12C16.8001 13.0321 16.4617 13.9861 15.8889 14.7572C15.6873 15.0281 15.4564 15.2771 15.2001 15.5" stroke="#1B1B1B" stroke-width="2" stroke-linecap="round" stroke-linejoin="round"/>
<path d="M16.0944 18.6832C18.4336 17.326 20 14.8406 20 11.9997C20 9.20286 18.4816 6.7513 16.2028 5.38086" stroke="#1B1B1B" stroke-width="2" stroke-linecap="round"/>
</svg>
