<svg width="32" height="32" viewBox="0 0 32 32" fill="none" xmlns="http://www.w3.org/2000/svg">
<path d="M20 10.6666H20.0134M14.6667 26.6666H9.33337C8.27251 26.6666 7.25509 26.2452 6.50495 25.495C5.7548 24.7449 5.33337 23.7275 5.33337 22.6666V9.33325C5.33337 8.27239 5.7548 7.25497 6.50495 6.50482C7.25509 5.75468 8.27251 5.33325 9.33337 5.33325H22.6667C23.7276 5.33325 24.745 5.75468 25.4951 6.50482C26.2453 7.25497 26.6667 8.27239 26.6667 9.33325V14.6666" stroke="#1A1A1A" stroke-width="2" stroke-linecap="round" stroke-linejoin="round"/>
<path d="M5.33337 20L10.6667 14.6667C11.904 13.476 13.4294 13.476 14.6667 14.6667L18.6667 18.6667L20 17.3333C20.4134 16.936 20.8587 16.6707 21.316 16.5387M24.56 20.8133C24.8201 20.5533 25.1287 20.3471 25.4685 20.2064C25.8082 20.0656 26.1723 19.9932 26.54 19.9932C26.9078 19.9932 27.2719 20.0656 27.6116 20.2064C27.9513 20.3471 28.26 20.5533 28.52 20.8133C28.7801 21.0734 28.9863 21.3821 29.127 21.7218C29.2678 22.0615 29.3402 22.4256 29.3402 22.7933C29.3402 23.1611 29.2678 23.5252 29.127 23.8649C28.9863 24.2046 28.7801 24.5133 28.52 24.7733L24 29.3333H20V25.3333L24.56 20.8133Z" stroke="#1A1A1A" stroke-width="2" stroke-linecap="round" stroke-linejoin="round"/>
</svg>
