<svg width="322" height="240" viewBox="0 0 322 240" fill="none" xmlns="http://www.w3.org/2000/svg">
<g clip-path="url(#clip0_121_130)">
<path d="M72.072 0V52.5364L0 52.4787L19.2742 78.1574L34.7347 77.3643L34.7196 132.527L72.072 123.551V176.69L160.953 240L249.89 176.662V123.652L288.586 134.163C300.323 134.453 303.345 127.902 304.119 123.523C304.494 121.355 304.726 119.031 304.809 117.145C304.89 115.808 304.908 114.48 304.909 113.173C304.91 111.383 304.907 109.026 304.902 106.677C304.893 101.978 304.877 97.3118 304.877 97.3093V97.3068C304.87 94.6542 304.612 91.6182 302.984 88.6261C301.849 86.5461 300.111 84.797 298.053 83.4262L321.999 52.5752L249.891 52.5715V0H72.072Z" fill="white"/>
<path d="M160.965 213.938L78.5635 167.172V173.362L160.965 232.014L243.363 173.362V167.172L160.965 213.938Z" fill="#06141F"/>
<path d="M146.531 177.183H175.415L182.351 191.673L243.364 160.264V124.674C189.072 112.812 132.855 112.814 78.5635 124.681V160.265L139.574 191.674L146.531 177.183Z" fill="#06141F"/>
<path d="M139.222 59.1497H98.5625C99.1981 59.4328 104.371 61.2183 104.371 66.417L104.338 101.721C104.259 106.762 107.978 109.185 115.16 108.45C126.804 107.295 138.488 106.594 150.186 106.348V80.8739C142.511 80.9478 135.914 81.112 128.245 81.3751V89.933C130.728 89.8177 132.054 89.7225 134.543 89.626V98.4846C130.197 98.6801 126.535 98.9357 122.176 99.2351C121.036 99.3103 120.513 98.9344 120.513 98.0323V68.9204C120.513 68.1599 121.06 67.779 122.181 67.7652C125.755 67.7063 128.983 67.6612 132.556 67.6223C133.672 67.6136 134.127 68.0158 134.127 68.8716V73.9687C139.509 73.8722 144.913 73.8021 150.29 73.7657L150.316 66.6237C150.325 61.9526 146.317 59.1497 139.225 59.1497" fill="#EA0029"/>
<path d="M233.123 70.1634V82.6143C233.123 83.5365 232.606 84.0715 231.491 83.9863C227.432 83.6831 224.186 83.4037 220.11 83.1368V68.23C224.18 68.3303 227.381 68.4455 231.443 68.547C232.567 68.5896 233.123 69.0846 233.123 70.1634ZM249.296 86.5825V68.0408C249.188 62.4713 244.598 59.1547 237.505 59.1497H198.139C198.827 59.4378 204.151 61.1544 204.151 66.2278L204.167 108.44C209.388 108.943 214.911 109.556 220.11 110.241V91.8475C222.725 92.0656 225.495 92.3036 228.11 92.558C230.884 99.086 232.95 105.545 235.718 112.423C240.963 113.312 246.674 114.518 251.891 115.595C249.06 108.345 246.148 101.127 243.157 93.9413C247.138 93.2045 249.36 90.5532 249.296 86.5825Z" fill="#EA0029"/>
<path d="M22.6719 71.37C28.9967 71.0217 35.0157 70.6871 41.3593 70.3889V122.112C46.5659 120.701 52.2714 119.381 57.5194 118.146V69.6685C61.3143 69.5093 65.7398 69.359 69.5272 69.2249V59.1509H13.3457C16.3761 63.2827 19.4854 67.3573 22.6719 71.37ZM292.48 87.8405C287.629 85.6666 276.496 80.607 273.061 79.0132C271.802 78.4218 271.334 77.4132 271.334 76.7228V71.6331C271.318 70.5531 271.876 70.0243 272.983 70.0794C281.241 70.4528 290.898 70.8688 299.124 71.3262L308.571 59.1509H249.453C250.266 59.5895 255.577 61.4125 255.577 67.4043C255.577 67.4043 255.621 73.8321 255.621 77.259C255.621 80.696 257.396 83.4588 261.691 85.4222C265.974 87.3844 279.913 93.3611 280.978 93.9388C282.369 94.6755 282.603 95.3985 282.603 97.4459V110.082C282.609 111.799 281.37 111.522 280.966 111.43C278.133 110.789 275.781 110.309 272.933 109.708C272.529 109.622 271.516 109.348 271.497 107.718V99.3579C266.332 98.4978 261.156 97.7013 255.97 96.9685V106.596C256.071 112.779 260.543 117.371 267.622 119.134C274.274 120.76 280.668 122.532 287.245 124.465C294.246 126.583 298.321 123.693 298.307 116.196C298.358 116.008 298.295 97.3281 298.295 97.3281C298.282 92.9677 297.331 90.032 292.479 87.8405M77.9256 67.0096V113.831C83.2739 112.853 88.7111 111.952 94.0957 111.155V59.1497H72.1474C73.6042 59.5757 77.9269 61.9889 77.9269 67.0109M151.992 59.1497C152.797 59.518 158.138 61.2121 158.138 65.9183C158.124 79.3691 158.124 92.8123 158.115 106.254C170.721 106.192 183.112 106.67 195.679 107.654V99.0509C188.404 98.5705 181.119 98.2438 173.83 98.0711V87.2729C180.324 87.402 186.797 87.546 193.281 87.8267V78.9756C186.799 78.7742 180.315 78.636 173.83 78.5609C173.848 67.8266 173.83 67.8266 173.83 67.5559C181.083 67.6073 187.887 67.6737 195.133 67.7739V59.1509L151.992 59.1497Z" fill="#EA0029"/>
<path d="M106.876 141.733C107.396 141.665 107.766 141.49 107.983 141.206C108.196 140.931 108.302 140.571 108.302 140.139C108.302 139.645 108.181 139.294 107.915 139.111C107.664 138.933 107.318 138.867 106.874 138.92C106.132 139.024 105.386 139.125 104.638 139.227V142.027C105.386 141.927 106.132 141.829 106.876 141.733ZM106.587 137.3C107.105 137.228 107.475 137.056 107.688 136.786C107.907 136.519 108.016 136.176 108.016 135.753C108.009 135.258 107.892 134.923 107.647 134.747C107.4 134.572 107.047 134.517 106.587 134.578C105.937 134.661 105.287 134.748 104.638 134.841V137.564C105.297 137.476 105.935 137.381 106.587 137.3ZM106.629 132.91C107.243 132.828 107.751 132.818 108.181 132.883C108.612 132.949 108.948 133.087 109.228 133.298C109.491 133.518 109.698 133.802 109.809 134.163C109.925 134.523 109.99 134.965 109.99 135.492C109.99 135.953 109.916 136.365 109.784 136.714C109.646 137.056 109.433 137.358 109.155 137.634C109.505 137.776 109.784 138.019 109.982 138.365C110.178 138.71 110.277 139.219 110.277 139.892C110.277 140.456 110.204 140.932 110.039 141.342C109.892 141.733 109.658 142.086 109.353 142.373C109.032 142.668 108.656 142.897 108.247 143.047C107.777 143.226 107.286 143.347 106.787 143.409C105.435 143.585 104.084 143.772 102.731 143.957V133.444C104.025 133.262 105.33 133.083 106.629 132.91ZM115.194 138.189C116.038 138.095 116.896 137.999 117.741 137.907C117.321 136.604 116.905 135.3 116.478 133.997C116.054 135.39 115.608 136.787 115.194 138.189ZM118.287 139.519C117.076 139.644 115.861 139.777 114.659 139.915C114.389 140.784 114.126 141.654 113.865 142.53C113.184 142.608 112.513 142.69 111.84 142.768C112.971 139.125 114.117 135.492 115.243 131.855C116.061 131.765 116.89 131.679 117.706 131.59L121.101 141.764C120.428 141.829 119.757 141.896 119.087 141.971C118.808 141.149 118.552 140.333 118.287 139.519ZM129.31 132.487C128.783 132.39 128.248 132.335 127.712 132.323C127.21 132.301 126.747 132.323 126.308 132.348C126.072 132.37 125.838 132.405 125.606 132.453C125.378 132.491 125.19 132.567 125.015 132.675C124.85 132.767 124.711 132.901 124.614 133.063C124.505 133.229 124.46 133.439 124.46 133.701C124.445 133.903 124.484 134.105 124.573 134.286C124.649 134.441 124.774 134.567 124.927 134.646C125.098 134.747 125.31 134.822 125.582 134.881C125.843 134.944 126.171 134.999 126.554 135.064C127.089 135.159 127.556 135.267 127.964 135.388C128.381 135.503 128.721 135.672 128.998 135.882C129.269 136.094 129.481 136.352 129.628 136.662C129.765 136.979 129.849 137.365 129.849 137.825C129.849 138.933 129.507 139.777 128.826 140.376C128.154 140.975 127.209 141.305 126.019 141.392C125.499 141.421 124.948 141.421 124.362 141.381C123.786 141.346 123.213 141.271 122.648 141.155V139.606C123.293 139.678 123.886 139.719 124.427 139.737C124.958 139.769 125.48 139.758 126.007 139.717C126.646 139.66 127.123 139.496 127.409 139.234C127.712 138.971 127.851 138.561 127.851 138.014C127.856 137.84 127.81 137.669 127.72 137.521C127.629 137.373 127.498 137.254 127.342 137.178C127.141 137.079 126.926 137.01 126.704 136.973C126.453 136.92 126.13 136.865 125.793 136.812C125.311 136.741 124.835 136.631 124.371 136.484C123.991 136.367 123.635 136.184 123.32 135.943C123.04 135.723 122.818 135.438 122.672 135.113C122.517 134.726 122.441 134.311 122.446 133.894C122.446 132.992 122.74 132.258 123.338 131.695C123.927 131.131 124.86 130.803 126.171 130.688C127.224 130.599 128.283 130.679 129.31 130.926V132.487ZM132.06 130.334C134.429 130.169 136.806 130.026 139.181 129.892C139.174 130.453 139.174 131.012 139.181 131.57C137.477 131.664 135.764 131.76 134.062 131.874V134.563C135.708 134.462 137.354 134.363 139.003 134.274C138.79 134.844 138.565 135.418 138.347 135.986C136.923 136.069 135.489 136.147 134.062 136.246V139.034C135.764 138.921 137.477 138.824 139.181 138.735C139.174 139.291 139.174 139.854 139.181 140.414C136.806 140.534 134.429 140.684 132.06 140.851V130.334ZM145.72 138.455C146.245 138.442 146.613 138.296 146.823 138.041C147.041 137.776 147.154 137.44 147.154 137C147.154 136.499 147.031 136.143 146.765 135.934C146.515 135.733 146.154 135.633 145.72 135.653C144.965 135.682 144.22 135.71 143.465 135.735V138.541C144.22 138.514 144.964 138.482 145.72 138.455ZM145.423 133.998C145.948 133.978 146.317 133.841 146.539 133.586C146.749 133.345 146.858 133.002 146.858 132.586C146.858 132.097 146.745 131.746 146.488 131.551C146.245 131.348 145.893 131.259 145.423 131.274C144.77 131.299 144.123 131.323 143.465 131.353V134.072C144.123 134.046 144.768 134.017 145.423 133.998ZM145.475 129.605C146.08 129.585 146.596 129.633 147.031 129.734C147.456 129.834 147.817 130.015 148.087 130.252C148.35 130.487 148.553 130.79 148.671 131.164C148.793 131.54 148.847 131.983 148.847 132.504C148.847 132.976 148.784 133.381 148.645 133.714C148.507 134.046 148.291 134.33 148.014 134.571C148.374 134.747 148.645 135.028 148.842 135.388C149.042 135.747 149.142 136.265 149.142 136.935C149.142 137.503 149.062 137.967 148.906 138.363C148.757 138.737 148.518 139.069 148.21 139.328C147.881 139.596 147.501 139.794 147.093 139.908C146.618 140.038 146.129 140.109 145.637 140.121C144.269 140.174 142.9 140.233 141.541 140.294V129.777C142.853 129.708 144.157 129.659 145.475 129.605ZM154.083 135.701L156.65 135.658C156.216 134.315 155.8 132.972 155.363 131.624C154.936 132.983 154.502 134.339 154.083 135.701ZM157.18 137.317C155.97 137.331 154.758 137.353 153.535 137.365C153.272 138.217 153.005 139.071 152.741 139.918C152.061 139.93 151.38 139.946 150.71 139.96C151.847 136.431 152.996 132.905 154.133 129.371C154.955 129.361 155.782 129.352 156.598 129.341C157.739 132.836 158.867 136.332 160.014 139.839C159.337 139.839 158.657 139.839 157.976 139.847C157.714 139.001 157.453 138.162 157.18 137.317ZM161.662 139.839V129.311C162.329 129.311 162.998 129.326 163.671 129.326V138.165C165.269 138.176 166.866 138.197 168.463 138.228C168.239 138.777 168.022 139.336 167.807 139.892C165.759 139.859 163.71 139.841 161.662 139.839ZM170.233 139.93V129.412C170.898 129.435 171.556 129.45 172.228 129.472V138.304C173.83 138.348 175.425 138.405 177.016 138.462C176.803 139.02 176.589 139.565 176.369 140.116C174.323 140.049 172.269 139.981 170.233 139.93ZM190.631 140.428C190.096 140.553 189.553 140.645 189.007 140.704C188.468 140.769 187.944 140.779 187.445 140.75C186.684 140.698 186.047 140.532 185.512 140.233C184.994 139.942 184.551 139.534 184.218 139.042C183.874 138.513 183.629 137.925 183.495 137.308C183.336 136.599 183.258 135.875 183.264 135.148C183.264 134.33 183.342 133.586 183.495 132.939C183.645 132.283 183.883 131.741 184.218 131.29C184.553 130.852 184.978 130.517 185.512 130.307C186.047 130.091 186.7 130.006 187.445 130.054C188.003 130.091 188.536 130.17 189.037 130.283C189.527 130.396 190.07 130.567 190.629 130.79V132.301C190.32 132.222 190.044 132.144 189.791 132.075C189.534 132.016 189.292 131.956 189.061 131.909C188.837 131.869 188.61 131.837 188.387 131.809C188.163 131.788 187.923 131.759 187.676 131.746C186.828 131.696 186.209 131.977 185.85 132.586C185.481 133.21 185.299 134.098 185.299 135.263C185.299 135.822 185.334 136.334 185.432 136.787C185.512 137.246 185.65 137.647 185.85 137.967C186.047 138.304 186.298 138.563 186.603 138.758C186.897 138.95 187.257 139.061 187.688 139.084C187.923 139.101 188.152 139.101 188.362 139.101C188.587 139.101 188.807 139.101 189.045 139.084C189.27 139.061 189.51 139.039 189.773 139.009C190.026 138.981 190.32 138.943 190.631 138.881V140.428ZM192.726 141.048V130.528C193.38 130.577 194.039 130.631 194.721 130.688V139.526C196.307 139.66 197.903 139.798 199.501 139.94C199.274 140.478 199.061 141.023 198.846 141.558C196.807 141.371 194.767 141.202 192.726 141.048ZM203.333 138.555C203.333 139.219 203.511 139.704 203.867 140.006C204.223 140.323 204.677 140.506 205.259 140.557C205.864 140.627 206.338 140.547 206.69 140.316C207.043 140.084 207.218 139.635 207.218 138.969V131.895C207.889 131.967 208.557 132.047 209.243 132.131V139.215C209.243 139.847 209.139 140.381 208.98 140.807C208.799 141.23 208.541 141.56 208.206 141.803C207.864 142.047 207.439 142.196 206.952 142.266C206.391 142.345 205.821 142.346 205.259 142.27C204.684 142.217 204.118 142.097 203.571 141.911C203.118 141.751 202.702 141.502 202.349 141.176C202.009 140.851 201.752 140.451 201.597 140.007C201.418 139.478 201.331 138.923 201.341 138.365V131.281C202.005 131.348 202.676 131.409 203.333 131.476V138.555ZM216.007 141.829C216.521 141.896 216.893 141.822 217.104 141.6C217.322 141.381 217.435 141.048 217.435 140.619C217.435 140.116 217.305 139.738 217.048 139.489C216.783 139.238 216.439 139.084 216.008 139.024C215.261 138.92 214.507 138.823 213.76 138.728V141.533C214.507 141.626 215.261 141.734 216.007 141.829ZM215.713 137.318C216.227 137.39 216.603 137.318 216.811 137.102C217.031 136.896 217.137 136.582 217.137 136.147C217.146 135.658 217.022 135.295 216.778 135.049C216.529 134.815 216.18 134.661 215.713 134.602C215.063 134.512 214.412 134.428 213.76 134.349V137.068C214.412 137.152 215.059 137.237 215.713 137.318ZM215.758 132.939C216.368 133.027 216.874 133.155 217.31 133.334C217.735 133.509 218.09 133.747 218.351 134.023C218.612 134.305 218.816 134.646 218.934 135.038C219.056 135.435 219.112 135.895 219.119 136.41C219.119 136.885 219.038 137.275 218.91 137.584C218.763 137.892 218.562 138.147 218.28 138.328C218.638 138.581 218.91 138.896 219.112 139.291C219.3 139.688 219.395 140.218 219.395 140.897C219.395 141.454 219.32 141.912 219.168 142.278C219.022 142.62 218.782 142.915 218.476 143.128C218.169 143.338 217.799 143.467 217.366 143.511C216.884 143.563 216.397 143.552 215.918 143.478C214.564 143.3 213.208 143.122 211.843 142.957V132.44C213.149 132.601 214.457 132.77 215.758 132.939Z" fill="white"/>
<path d="M88.5168 48.1736V16.4255H108.593L122.776 48.1736H198.558L213.376 16.4255H233.41V48.1736H243.365V6.47803H78.5625V48.1736H88.5168Z" fill="#06141F"/>
<path d="M166.764 36.9555C166.764 37.0808 166.802 37.1522 166.876 37.1522C166.933 37.1443 166.988 37.1219 167.034 37.087L187.523 23.7929C187.869 23.551 188.283 23.427 188.705 23.4383H193.208C193.898 23.4383 194.366 23.8981 194.366 24.5885V33.184C194.366 34.2214 194.135 34.8254 193.215 35.3779L187.752 38.6633C187.698 38.7013 187.634 38.7243 187.568 38.7297C187.503 38.7297 187.436 38.6771 187.436 38.4866V28.459C187.436 28.3399 187.404 28.261 187.325 28.261C187.267 28.2679 187.212 28.2909 187.167 28.3274L172.194 38.0531C171.855 38.284 171.453 38.4056 171.043 38.4014H161.118C160.421 38.4014 159.961 37.9416 159.961 37.2449V24.8579C159.961 24.7652 159.922 24.68 159.843 24.68C159.785 24.6868 159.731 24.7094 159.685 24.7451L149.806 30.673C149.705 30.7381 149.68 30.7858 149.68 30.8309C149.68 30.8697 149.7 30.9098 149.766 30.9812L156.825 38.033C156.918 38.1245 156.983 38.1972 156.983 38.2761C156.983 38.3413 156.878 38.3939 156.754 38.3939H150.377C149.877 38.3939 149.49 38.3225 149.22 38.0531L144.941 33.7804C144.925 33.7611 144.905 33.7453 144.882 33.7341C144.86 33.7229 144.835 33.7165 144.81 33.7152C144.763 33.7179 144.718 33.7316 144.678 33.7553L137.526 38.0531C137.092 38.3162 136.796 38.3876 136.369 38.3876H129.789C129.087 38.3951 128.626 37.9278 128.626 37.2374V28.8073C128.626 27.7623 128.857 27.1634 129.783 26.6121L135.278 23.313C135.321 23.2846 135.372 23.2685 135.423 23.2666C135.509 23.2666 135.554 23.3531 135.554 23.5423V34.8316C135.554 34.9507 135.58 35.0033 135.667 35.0033C135.725 34.994 135.781 34.9717 135.83 34.9382L154.393 23.7741C154.748 23.5297 155.183 23.4107 155.615 23.432H165.607C166.297 23.432 166.764 23.8918 166.764 24.581L166.758 36.9555H166.764Z" fill="white"/>
</g>
<defs>
<clipPath id="clip0_121_130">
<rect width="322" height="240" fill="white"/>
</clipPath>
</defs>
</svg>
