<svg width="265" height="240" viewBox="0 0 265 240" fill="none" xmlns="http://www.w3.org/2000/svg">
<g clip-path="url(#clip0_121_737)">
<path d="M239.292 138.877L265 96.0648H222.692C226.266 83.6765 231.3 72.0034 238.069 61.8484C200.511 60.6558 160.491 51.632 132.501 23.501C104.509 51.632 64.4906 60.6558 26.9309 61.8484C33.7001 72.0034 38.7343 83.6765 42.3094 96.0648H0L25.7096 138.877L8.42831 172.631H48.063C47.1247 181.154 45.7034 189.248 43.878 196.628C43.878 196.628 95.2168 206.162 132.501 240C169.783 206.162 221.123 196.628 221.123 196.628C219.298 189.247 217.875 181.153 216.936 172.631H256.572L239.292 138.877Z" fill="#E2E3E4"/>
<path d="M229.19 138.877L246.082 106.208H205.39C207.67 93.6183 211.258 81.9073 216.456 72.45C190.186 72.1697 150.011 60.6864 132.501 41.6462C114.99 60.6864 74.8173 72.1697 48.546 72.45C53.7421 81.9073 57.3303 93.6183 59.6096 106.208H18.9185L35.8116 138.877L21.0664 166.387H61.7852C60.9637 175.219 59.6767 183.379 58.0351 190.312C58.0351 190.312 94.8812 198.637 132.501 231.597C170.12 198.637 206.966 190.312 206.966 190.312C205.323 183.379 204.036 175.219 203.216 166.387H243.934L229.19 138.877Z" fill="black"/>
<path d="M132.501 192.049C118.224 192.058 105.918 200.472 100.247 212.606L132.501 234.237L164.755 212.606C159.081 200.472 146.776 192.058 132.501 192.049Z" fill="#E2E3E4"/>
<path d="M77.6569 157.602L61.6933 139.273L75.3996 124.126H65.4727L54.606 135.932V113.68H41.6338C44.0852 115.75 46.1675 118.494 46.1675 122.193V157.602H54.606V143.433L67.1376 157.602H77.6569ZM186.992 124.126V157.602H178.554V132.64C178.554 128.943 176.471 126.2 174.018 124.126H186.992ZM222.424 150.546L226.461 157.602H193.276L210.331 131.18H194.406V124.126H225.737L207.242 150.546H222.424ZM93.6147 147.945V131.18H99.5405L103.581 124.126H93.6147V113.68L85.1791 118.51V124.127H78.9629V131.182H85.1791V148.406C85.1789 149.614 85.4165 150.81 85.8784 151.926C86.3403 153.042 87.0175 154.056 87.8711 154.91C88.7248 155.764 89.7383 156.441 90.8537 156.903C91.9691 157.366 93.1647 157.604 94.372 157.604H101.062V150.547H96.215C95.5252 150.547 94.8638 150.273 94.3762 149.785C93.8886 149.297 93.6147 148.635 93.6147 147.945ZM161.167 124.126L152.795 141.759L143.067 123.247L133.333 141.762L124.964 124.126H111.836C114.817 125.801 118.205 128.624 120.244 132.764C122.282 136.904 132.924 158.405 132.924 158.405L143.065 139.026L153.205 158.405L170.233 124.126H161.167Z" fill="white"/>
<path d="M191.387 86.8527C181.604 81.9613 177.407 77.3035 177.407 77.3035C165.607 7.2809 81.5588 -9.83683 44.0181 4.85637C67.8861 10.9914 89.1758 19.8065 103.629 35.6353C83.6308 30.5746 56.144 29.4404 40.0476 34.4179C60.1874 37.0424 90.4803 50.7109 108.885 76.6977C123.15 96.8414 131.072 105.436 146.827 114.191C156.847 110.336 165.425 100.829 168.229 93.8943C176.431 94.2563 186.487 90.7851 191.387 86.8527Z" fill="#E2E3E4"/>
<path d="M186.091 87.0512C147.266 79.1952 144.797 38.3357 81.0598 38.3357C116.758 57.9509 117.15 91.9061 147.331 109.227C147.331 109.227 150.751 105.637 154.036 97.7755L159.665 99.1097C160.704 92.1426 159.422 85.139 159.422 85.139C163.32 86.7067 174.96 90.6406 186.091 87.0512Z" fill="#ED1B23"/>
<path d="M114.675 38.6597C138.924 46.2165 157.542 58.9464 168.772 70.0488C159.642 24.384 102.872 -4.04044 54.5505 4.61404C54.5505 4.61404 92.1948 9.97984 114.675 38.6597Z" fill="black"/>
<path d="M140.428 86.0821C139.665 80.1733 135.479 73.4485 129.518 68.5585C135.944 70.8211 141.507 69.7321 144.018 65.7122C144.781 71.6224 148.968 78.3457 154.928 83.2357C148.504 80.9717 142.94 82.065 140.428 86.0821Z" fill="white"/>
<path d="M170.288 167.33C168.499 167.33 167.037 168.014 166.099 169.199L165.639 167.636H161.164C162.098 168.424 162.889 169.468 162.889 170.878V180.376H166.099V172.719C166.466 171.531 167.953 170.096 169.442 170.096C171.14 170.096 171.973 171.633 171.973 173.466V180.376H175.182V173.1C175.182 169.064 172.62 167.33 170.288 167.33ZM114.776 174.508C114.776 176.615 113.884 177.969 112.009 177.969C110.134 177.969 109.241 176.615 109.241 174.508V167.611H104.303C105.236 168.404 106.03 169.448 106.03 170.856V175.059H106.048C106.048 179.487 109.837 180.681 112.009 180.681C114.179 180.681 117.97 179.489 117.97 175.059V167.611H114.776V174.508ZM139.13 167.636L135.946 174.444L132.243 167.201L128.539 174.447L125.354 167.636H120.357C121.493 168.276 122.781 169.348 123.557 170.925C124.332 172.498 128.383 180.877 128.383 180.877L132.241 173.206L136.101 180.877L142.581 167.636H139.13ZM151.673 167.267C147.742 167.267 144.624 170.058 144.624 174.005C144.624 177.95 147.742 180.743 151.673 180.743C155.606 180.743 158.721 177.95 158.721 174.005C158.721 170.058 155.606 167.267 151.673 167.267ZM151.673 178.155C149.651 178.155 148.011 176.415 148.011 174.005C148.011 171.601 149.651 169.855 151.673 169.855C153.696 169.855 155.336 171.599 155.336 174.005C155.336 176.413 153.696 178.155 151.673 178.155ZM95.2548 178.158C93.2776 178.158 91.5456 176.772 91.4347 175.797L89.8164 179.133C90.8948 180.068 92.8836 180.689 95.3613 180.689C99.2165 180.689 101.506 179.006 101.506 176.689C101.471 174.793 100.361 173.611 97.1868 172.768C94.9513 172.187 93.6614 171.96 93.6614 171.145C93.6614 170.24 94.7791 169.764 96.2121 169.764C97.4174 169.764 98.5599 170.05 99.593 170.737L100.846 168.494C100.088 167.865 97.7719 167.319 96.2471 167.319C92.5188 167.319 90.2337 169.175 90.2337 171.437C90.1987 172.938 91.2727 174.214 94.6974 175.085C96.8629 175.637 98.0667 175.899 98.0667 176.768C98.0682 177.714 96.9081 178.158 95.2548 178.158Z" fill="#E2E3E4"/>
<path d="M150.211 212.711C149.638 212.197 149.397 210.869 149.708 209.821L149.712 209.811L149.709 209.812L149.708 209.815C149.242 210.399 148.418 210.757 147.863 210.742C147.408 210.73 144.476 210.691 144.476 210.691C144.242 210.687 144.017 210.777 143.849 210.94C143.681 211.102 143.584 211.325 143.58 211.559C143.577 211.793 143.666 212.019 143.829 212.187C143.992 212.356 144.215 212.452 144.449 212.456C144.449 212.456 147.043 212.504 147.453 212.499C147.94 212.499 148.581 212.222 148.901 211.831L149.08 211.38C148.959 211.694 148.844 212.01 148.728 212.326C148.556 213.149 148.755 213.606 149.387 214.143C150.055 214.725 151.069 215.603 151.069 215.603C151.232 215.743 151.445 215.813 151.659 215.797C151.874 215.781 152.073 215.681 152.213 215.518C152.353 215.355 152.423 215.143 152.407 214.929C152.391 214.715 152.291 214.515 152.128 214.375C152.128 214.375 150.523 212.99 150.211 212.711ZM152.263 207.925C151.752 207.35 151.661 206.002 152.089 204.995L152.095 204.985L152.09 204.988L152.089 204.989C151.561 205.519 150.701 205.776 150.153 205.699C149.703 205.639 146.792 205.267 146.792 205.267C146.677 205.252 146.561 205.26 146.449 205.29C146.337 205.321 146.232 205.373 146.141 205.444C146.049 205.514 145.972 205.603 145.915 205.703C145.857 205.804 145.82 205.914 145.805 206.029C145.79 206.144 145.798 206.261 145.829 206.373C145.859 206.485 145.911 206.589 145.982 206.681C146.053 206.773 146.141 206.85 146.241 206.907C146.342 206.965 146.452 207.002 146.567 207.017C146.567 207.017 149.138 207.357 149.547 207.402C150.03 207.456 150.7 207.252 151.059 206.902L151.289 206.472C151.138 206.764 150.992 207.058 150.846 207.35C150.563 208.125 150.719 208.644 151.282 209.253L152.789 210.894C152.935 211.052 153.139 211.145 153.353 211.154C153.568 211.163 153.777 211.086 153.935 210.941C154.093 210.795 154.186 210.593 154.195 210.378C154.204 210.163 154.127 209.954 153.982 209.796C153.982 209.798 152.541 208.237 152.263 207.925ZM146.008 225.457C145.765 226.162 145.104 226.772 144.578 226.947C144.147 227.088 141.367 228.026 141.367 228.026C141.153 228.107 140.978 228.267 140.88 228.474C140.782 228.681 140.768 228.918 140.841 229.135C140.914 229.351 141.068 229.532 141.272 229.637C141.475 229.742 141.711 229.764 141.93 229.699C141.93 229.699 144.393 228.879 144.778 228.743C145.237 228.578 145.868 228.073 145.918 227.629L146.01 225.464V225.456L146.008 225.457ZM156.337 205.455C156.337 205.455 155.083 203.744 154.841 203.403C154.397 202.772 154.462 201.425 155 200.472L155.006 200.46L155.003 200.463L155.002 200.466C154.418 200.931 153.534 201.091 152.995 200.953C152.554 200.841 149.706 200.143 149.706 200.143C149.479 200.087 149.24 200.124 149.04 200.245C148.84 200.365 148.696 200.561 148.64 200.788C148.584 201.015 148.621 201.254 148.742 201.454C148.862 201.654 149.058 201.798 149.284 201.854C149.284 201.854 151.803 202.485 152.201 202.574C152.677 202.682 153.364 202.553 153.761 202.247L154.037 201.851C153.856 202.121 153.679 202.39 153.504 202.66C153.151 203.36 153.229 203.941 153.717 204.61L155.029 206.41C155.09 206.5 155.169 206.577 155.26 206.636C155.351 206.695 155.454 206.735 155.561 206.754C155.668 206.772 155.778 206.769 155.884 206.745C155.99 206.72 156.09 206.674 156.177 206.61C156.265 206.546 156.339 206.465 156.395 206.371C156.451 206.278 156.487 206.174 156.502 206.066C156.517 205.959 156.51 205.849 156.482 205.744C156.453 205.639 156.404 205.541 156.337 205.455ZM150.033 224.016C150.033 224.016 148.154 223.025 147.789 222.824C147.115 222.453 146.581 221.212 146.649 220.12L146.651 220.109L146.649 220.11V220.112L146.648 220.115C146.327 220.789 145.6 221.32 145.059 221.431C144.614 221.522 141.748 222.141 141.748 222.141C141.63 222.16 141.518 222.204 141.417 222.268C141.317 222.332 141.23 222.417 141.163 222.515C141.096 222.614 141.05 222.725 141.027 222.842C141.004 222.959 141.005 223.08 141.03 223.197C141.055 223.313 141.103 223.424 141.172 223.521C141.241 223.619 141.329 223.701 141.43 223.764C141.532 223.826 141.645 223.868 141.763 223.885C141.881 223.903 142.001 223.896 142.117 223.866V223.868C142.117 223.868 144.656 223.33 145.054 223.237C145.528 223.126 146.092 222.71 146.312 222.26L146.388 221.774C146.341 222.101 146.302 222.428 146.261 222.754C146.289 223.565 146.573 224.016 147.306 224.405L149.274 225.447C149.368 225.501 149.472 225.535 149.58 225.548C149.688 225.561 149.797 225.552 149.902 225.522C150.006 225.492 150.103 225.441 150.187 225.373C150.272 225.304 150.341 225.22 150.392 225.124C150.443 225.028 150.474 224.923 150.484 224.814C150.493 224.706 150.481 224.597 150.447 224.494C150.414 224.391 150.36 224.295 150.289 224.213C150.217 224.131 150.13 224.064 150.033 224.016ZM148.714 217.7C148.085 217.254 147.698 215.962 147.888 214.883L147.891 214.87L147.888 214.874L147.886 214.877C147.49 215.514 146.709 215.956 146.157 216.006C145.705 216.047 142.787 216.34 142.787 216.34C142.562 216.372 142.358 216.49 142.218 216.669C142.077 216.847 142.012 217.073 142.034 217.3C142.057 217.526 142.165 217.735 142.338 217.882C142.51 218.03 142.733 218.106 142.96 218.093C142.96 218.093 145.543 217.848 145.95 217.801C146.433 217.744 147.04 217.395 147.312 216.973L147.44 216.503C147.357 216.826 147.279 217.15 147.201 217.473C147.112 218.242 147.371 218.75 148.056 219.215L149.894 220.474C150.072 220.595 150.29 220.641 150.501 220.601C150.605 220.582 150.705 220.542 150.794 220.484C150.883 220.426 150.96 220.351 151.02 220.263C151.08 220.175 151.122 220.076 151.144 219.972C151.166 219.868 151.167 219.761 151.148 219.656C151.128 219.551 151.088 219.452 151.03 219.363C150.972 219.274 150.897 219.197 150.809 219.137C150.809 219.137 149.054 217.941 148.714 217.7ZM114.788 212.711C115.361 212.197 115.602 210.869 115.291 209.821L115.287 209.811L115.29 209.812L115.291 209.815C115.756 210.399 116.581 210.757 117.135 210.742C117.591 210.73 120.522 210.691 120.522 210.691C120.756 210.687 120.982 210.777 121.15 210.94C121.318 211.102 121.414 211.325 121.418 211.559C121.422 211.793 121.332 212.019 121.17 212.187C121.007 212.356 120.784 212.452 120.55 212.456C120.55 212.456 117.955 212.504 117.545 212.499C117.058 212.499 116.417 212.222 116.098 211.831L115.918 211.38C116.038 211.694 116.155 212.01 116.269 212.326C116.444 213.149 116.244 213.606 115.612 214.143C114.944 214.725 113.93 215.603 113.93 215.603H113.928C113.765 215.743 113.554 215.813 113.339 215.797C113.125 215.781 112.926 215.681 112.786 215.518C112.645 215.355 112.575 215.143 112.591 214.929C112.607 214.715 112.707 214.515 112.87 214.375C112.87 214.375 114.475 212.99 114.788 212.711ZM112.736 207.925C113.248 207.35 113.337 206.002 112.91 204.995L112.904 204.985L112.908 204.988V204.989C113.438 205.519 114.297 205.776 114.847 205.699C115.297 205.639 118.206 205.267 118.206 205.267C118.324 205.246 118.444 205.25 118.56 205.277C118.676 205.305 118.785 205.356 118.881 205.426C118.977 205.497 119.058 205.587 119.118 205.689C119.178 205.792 119.217 205.906 119.233 206.024C119.248 206.143 119.239 206.263 119.206 206.377C119.174 206.492 119.119 206.599 119.044 206.692C118.969 206.785 118.876 206.861 118.771 206.917C118.665 206.973 118.55 207.007 118.431 207.017C118.431 207.017 115.86 207.357 115.45 207.402C114.969 207.456 114.299 207.252 113.94 206.902L113.709 206.472C113.861 206.764 114.007 207.058 114.154 207.35C114.436 208.125 114.278 208.644 113.717 209.253L112.209 210.894C112.137 210.972 112.05 211.035 111.954 211.08C111.857 211.125 111.753 211.15 111.647 211.155C111.54 211.159 111.434 211.143 111.334 211.106C111.234 211.069 111.143 211.013 111.064 210.941C110.986 210.869 110.923 210.782 110.878 210.686C110.833 210.589 110.808 210.485 110.804 210.379C110.799 210.272 110.816 210.166 110.852 210.066C110.889 209.966 110.945 209.874 111.017 209.796C111.017 209.798 112.459 208.237 112.736 207.925ZM118.99 225.457C119.234 226.162 119.895 226.772 120.42 226.947C120.852 227.088 123.632 228.026 123.632 228.026C123.846 228.107 124.02 228.267 124.118 228.474C124.217 228.681 124.231 228.918 124.158 229.135C124.084 229.351 123.93 229.532 123.727 229.637C123.524 229.742 123.288 229.764 123.068 229.699C123.068 229.699 120.605 228.879 120.22 228.743C119.762 228.578 119.13 228.073 119.081 227.629L118.989 225.464V225.456L118.99 225.457ZM108.662 205.455C108.662 205.455 109.915 203.744 110.156 203.403C110.6 202.772 110.537 201.425 109.998 200.472L109.993 200.46L109.994 200.463L109.997 200.466C110.581 200.931 111.464 201.091 112.003 200.953C113.099 200.682 114.195 200.411 115.291 200.143C115.403 200.115 115.52 200.11 115.634 200.127C115.749 200.145 115.859 200.184 115.958 200.244C116.057 200.304 116.143 200.383 116.212 200.476C116.28 200.569 116.33 200.675 116.358 200.787C116.385 200.899 116.391 201.016 116.374 201.13C116.356 201.245 116.317 201.355 116.257 201.454C116.197 201.553 116.118 201.639 116.025 201.708C115.932 201.777 115.826 201.826 115.714 201.854C115.714 201.854 113.196 202.485 112.796 202.574C112.32 202.682 111.634 202.553 111.237 202.247L110.962 201.851C111.142 202.121 111.316 202.39 111.494 202.66C111.846 203.36 111.768 203.941 111.281 204.61L109.968 206.41C109.905 206.495 109.826 206.568 109.736 206.623C109.645 206.679 109.544 206.715 109.439 206.732C109.334 206.748 109.227 206.744 109.124 206.718C109.021 206.693 108.923 206.648 108.838 206.586C108.752 206.523 108.679 206.444 108.624 206.353C108.569 206.262 108.532 206.162 108.516 206.057C108.499 205.952 108.504 205.845 108.529 205.741C108.554 205.638 108.599 205.541 108.662 205.455ZM114.966 224.016C114.966 224.016 116.845 223.025 117.21 222.824C117.885 222.453 118.418 221.212 118.349 220.12L118.348 220.109L118.349 220.11V220.112L118.352 220.115C118.672 220.789 119.399 221.32 119.941 221.431C120.385 221.522 123.251 222.141 123.251 222.141C123.369 222.16 123.481 222.204 123.581 222.268C123.682 222.332 123.768 222.417 123.835 222.515C123.902 222.614 123.949 222.725 123.972 222.842C123.994 222.959 123.993 223.08 123.968 223.197C123.943 223.313 123.895 223.424 123.826 223.521C123.758 223.619 123.67 223.701 123.568 223.764C123.467 223.826 123.353 223.868 123.235 223.885C123.117 223.903 122.997 223.896 122.882 223.866V223.868C122.882 223.868 120.343 223.33 119.944 223.237C119.47 223.126 118.907 222.71 118.688 222.26L118.611 221.774C118.656 222.101 118.697 222.428 118.736 222.754C118.71 223.565 118.427 224.016 117.693 224.405C116.911 224.821 115.724 225.447 115.724 225.447C115.63 225.501 115.526 225.535 115.418 225.548C115.311 225.561 115.201 225.552 115.097 225.522C114.993 225.492 114.895 225.441 114.811 225.373C114.727 225.304 114.657 225.22 114.606 225.124C114.555 225.028 114.524 224.923 114.515 224.814C114.506 224.706 114.518 224.597 114.551 224.494C114.585 224.391 114.639 224.295 114.71 224.213C114.781 224.131 114.868 224.064 114.966 224.016ZM116.286 217.7C116.914 217.254 117.302 215.962 117.112 214.883L117.109 214.87L117.112 214.874L117.114 214.877C117.509 215.514 118.29 215.956 118.843 216.006C119.295 216.047 122.213 216.34 122.213 216.34C122.438 216.372 122.642 216.49 122.782 216.669C122.923 216.847 122.988 217.073 122.966 217.3C122.944 217.526 122.835 217.735 122.662 217.882C122.49 218.03 122.267 218.106 122.04 218.093C122.04 218.093 119.456 217.848 119.05 217.801C118.567 217.744 117.96 217.395 117.688 216.973L117.559 216.503C117.642 216.826 117.719 217.15 117.798 217.473C117.887 218.242 117.627 218.75 116.944 219.215L115.104 220.474C115.016 220.534 114.918 220.576 114.814 220.598C114.71 220.62 114.602 220.621 114.498 220.601C114.393 220.581 114.294 220.541 114.205 220.483C114.116 220.425 114.039 220.35 113.979 220.262C113.919 220.174 113.877 220.076 113.855 219.971C113.833 219.867 113.832 219.76 113.852 219.656C113.872 219.551 113.912 219.451 113.97 219.362C114.028 219.273 114.103 219.197 114.191 219.137C114.191 219.137 115.945 217.941 116.286 217.7Z" fill="#ED1B23"/>
</g>
<defs>
<clipPath id="clip0_121_737">
<rect width="265" height="240" fill="white"/>
</clipPath>
</defs>
</svg>
