<svg width="300" height="240" viewBox="0 0 300 240" fill="none" xmlns="http://www.w3.org/2000/svg">
<g clip-path="url(#clip0_121_308)">
<path d="M242.308 130.748V128.099L250.876 116.671L271.5 130.748H242.308ZM300 81.3638H271.062L281.449 67.5172L275.403 59.8451C260.742 41.1465 242.012 26.0379 220.637 15.668C199.263 5.29811 175.806 -0.0601501 152.05 0.000595093C128.294 -0.0601501 104.837 5.29811 83.4627 15.668C62.088 26.0379 43.358 41.1465 28.6967 59.8451L22.6511 67.5172L33.0495 81.3753H0.000244141V103.723H18.8049V153.223H44.3807V104.887L81.6332 154.548H65.0855L91.4674 186.02H111.55L152.05 240.001L192.538 186.02H212.633L240.155 153.223H300V121.602L273.411 103.447H300V81.3638Z" fill="white"/>
<path d="M152.404 148.796H169.493V85.7948H152.404V148.796Z" fill="#C00C3F"/>
<path d="M221.296 119.764L195.835 85.793H176.777L181.947 92.6933V148.805H198.53V114.822L223.99 148.805H237.878V85.793H221.296V119.764Z" fill="#C00C3F"/>
<path d="M124.715 85.796V124.329L118.22 132.98L111.725 124.329V85.796H95.4655V124.329L88.9823 132.98L82.4876 124.329V85.796H66.2163V126.622L82.8561 148.797H95.097L103.595 137.462L112.105 148.797H124.335L140.986 126.622V85.796H124.715Z" fill="#C00C3F"/>
<path d="M152.049 205.085V232.616L199.872 168.878H179.214L152.049 205.085Z" fill="#231F20"/>
<path d="M152.049 232.619V205.087L124.884 168.87H104.225L152.049 232.619Z" fill="#C00C3F"/>
<path d="M149.106 65.6186H135.011V41.8997H128.206V71.3669H149.106V65.6186Z" fill="#6D6E71"/>
<path d="M164.426 71.8018C169.009 71.8018 173.466 70.6383 175.895 68.9334V54.626H164.092V60.1324H169.631V65.2932C168.042 65.8061 166.383 66.0665 164.714 66.065C158.599 66.065 156.55 62.9547 156.55 56.6304C156.55 50.5941 158.484 47.0461 164.622 47.0461C168.019 47.0461 169.965 48.1174 171.566 50.1564L175.803 46.2627C173.235 42.5764 168.71 41.4475 164.472 41.4475C154.949 41.4475 149.94 46.6544 149.94 56.5728C149.94 66.4566 154.454 71.8018 164.426 71.8018Z" fill="#6D6E71"/>
<path d="M74.5764 158.975L93.5308 181.588H210.574L229.528 158.975H74.5764Z" fill="#6D6E71"/>
<path d="M116.983 173.501C117.884 174.005 118.898 174.275 119.931 174.285C121.439 174.285 122.003 173.72 122.003 172.995C122.003 172.315 121.451 171.969 121.186 171.831C120.334 171.393 119.332 171.094 118.411 170.714C117.052 170.023 116.361 169.377 116.361 167.673C116.361 165.657 117.8 164.447 120.46 164.447C121.695 164.414 122.918 164.704 124.007 165.288L123.27 166.97C122.416 166.478 121.446 166.223 120.46 166.233C119.078 166.233 118.526 166.739 118.526 167.488C118.526 167.857 118.641 168.145 118.86 168.341C119.066 168.521 119.299 168.669 119.551 168.778C120.264 169.112 121.324 169.481 122.199 169.896C123.259 170.426 124.134 171.082 124.134 172.868C124.134 174.872 122.568 176.128 119.965 176.128C118.647 176.123 117.349 175.808 116.177 175.206L116.983 173.501Z" fill="white"/>
<path d="M132.322 164.613H139.231V166.41H134.487V169.232H139.07V170.983H134.487V174.163H139.416V175.937H132.322V164.613Z" fill="white"/>
<path d="M149.741 170.412C149.741 172.577 150.305 174.363 152.205 174.363C154.439 174.363 155.107 172.854 155.107 170.112C155.107 167.969 154.566 166.161 152.643 166.161C150.478 166.161 149.741 167.704 149.741 170.412ZM157.353 170.331C157.353 174.19 155.683 176.125 152.251 176.125C148.716 176.125 147.542 173.833 147.542 170.216C147.542 166.345 149.177 164.444 152.62 164.444C156.109 164.444 157.353 166.691 157.353 170.331Z" fill="white"/>
<path d="M165.617 164.613H167.771V171.594C167.771 173.333 168.312 174.382 169.728 174.382C171.398 174.382 171.997 173.552 171.997 171.294V164.613H174.15V171.444C174.15 174.716 172.561 176.133 169.751 176.133C166.965 176.133 165.617 174.739 165.617 171.317V164.613Z" fill="white"/>
<path d="M182.845 164.613H185.01V174.163H189.397V175.937H182.845V164.613Z" fill="white"/>
<path d="M152.049 20.9489V4.41827C128.962 4.36172 106.165 9.57173 85.3931 19.6522C64.621 29.7327 46.4197 44.4182 32.1731 62.5924L28.2349 67.5804L34.2574 75.6096H54.9161L49.1699 67.9606C61.9144 53.1659 77.7074 41.3043 95.4654 33.1896C113.223 25.0749 132.526 20.8992 152.049 20.9489Z" fill="#C00C3F"/>
<path d="M275.873 67.5851L271.935 62.5971C257.685 44.4239 239.481 29.7393 218.708 19.659C197.934 9.5787 175.136 4.36802 152.048 4.4229V20.9536C191.857 20.9536 229.006 38.0026 254.927 67.9537L249.192 75.6143H269.851L275.873 67.5851Z" fill="#231F20"/>
<path d="M4.42114 99.2957H23.2374V148.807H39.9578V99.2957H58.7625V85.7947H4.42114V99.2957Z" fill="#C00C3F"/>
<path d="M295.578 99.0161V85.7915H248.814V109.914L278.869 130.419V135.176H247.732V148.804H295.578V123.933L265.327 103.29V99.0161H295.578Z" fill="#C00C3F"/>
</g>
<defs>
<clipPath id="clip0_121_308">
<rect width="300" height="240" fill="white"/>
</clipPath>
</defs>
</svg>
