<svg width="356" height="240" viewBox="0 0 356 240" fill="none" xmlns="http://www.w3.org/2000/svg">
<g clip-path="url(#clip0_121_659)">
<mask id="mask0_121_659" style="mask-type:luminance" maskUnits="userSpaceOnUse" x="-1" y="-3" width="357" height="246">
<path d="M-0.000976562 -2.31998H355.643V242.156H-0.000976562V-2.31998Z" fill="white"/>
</mask>
<g mask="url(#mask0_121_659)">
<path d="M269.075 119.917C269.075 165.812 231.861 203.019 185.956 203.019C140.049 203.019 102.832 165.812 102.832 119.917C102.832 74.0195 140.049 36.8127 185.956 36.8127C231.861 36.8127 269.075 74.0195 269.075 119.917Z" fill="white"/>
<path d="M224.933 86.6523C224.933 86.6523 229.464 85.1473 231.506 85.6433L232.121 84.0315C230.367 83.1782 225.964 84.2047 225.964 84.2047C225.964 84.2047 223.87 80.3821 222.366 80.0465L221.628 81.8701C223.723 83.0737 224.933 86.6523 224.933 86.6523Z" fill="#C7A079"/>
<path d="M207.795 193.967C207.795 193.967 205.948 191.416 204.79 191.179L204.247 192.526C205.871 193.541 206.906 195.67 206.906 195.67C206.906 195.67 210.98 194.828 212.598 195.305L213.179 193.988C211.799 193.244 207.795 193.967 207.795 193.967Z" fill="#C7A079"/>
<path d="M216.069 173.727C216.069 173.727 212.513 170.242 211.028 170.319L210.824 172.181C213.137 172.889 215.545 176.164 215.545 176.164C215.545 176.164 219.765 173.207 221.858 173.241L222.163 171.394C220.258 170.956 216.069 173.727 216.069 173.727Z" fill="#C7A079"/>
<path d="M228.023 80.7197C228.023 80.7197 232.535 80.0079 234.61 80.2835L235.546 78.4129C233.712 77.7523 229.034 78.49 229.034 78.49C229.034 78.49 227.037 74.8339 225.515 74.6564L224.774 76.4676C226.975 77.4529 228.023 80.7197 228.023 80.7197Z" fill="#C7A079"/>
<path d="M231.664 74.8576C231.664 74.8576 235.224 74.6802 237.261 75.0798L238.322 73.2587C236.551 72.4846 232.876 72.5981 232.876 72.5981C232.876 72.5981 230.505 69.637 229.121 69.0788L228.272 70.7037C230.391 71.8048 231.664 74.8576 231.664 74.8576Z" fill="#C7A079"/>
<path d="M234.906 69.5299C234.906 69.5299 238.312 69.1708 240.307 69.7095L241.52 67.824C239.819 66.9518 236.269 67.3536 236.269 67.3536C236.269 67.3536 234.377 64.1105 232.906 63.7447L232.02 65.2305C234.045 66.4686 234.906 69.5299 234.906 69.5299Z" fill="#C7A079"/>
<path d="M238.297 64.5226C238.297 64.5226 241.301 64.7683 243.244 65.4314L244.341 63.975C242.702 62.9791 239.419 62.8078 239.419 62.8078C239.419 62.8078 237.73 59.6632 236.291 59.1992L235.369 60.5589C237.304 61.9142 238.297 64.5226 238.297 64.5226Z" fill="#C7A079"/>
<path d="M205.592 197.909C205.592 197.909 203.721 195.397 202.65 195.157L202.15 196.498C203.654 197.516 204.769 199.621 204.769 199.621C204.769 199.621 208.401 198.8 209.907 199.281L210.438 197.96C209.168 197.218 205.592 197.909 205.592 197.909Z" fill="#C7A079"/>
<path d="M209.985 189.61C209.985 189.61 207.437 186.385 206.09 186.197L205.592 187.891C207.55 188.979 209.128 191.771 209.128 191.771C209.128 191.771 213.518 190.182 215.412 190.623L215.959 188.953C214.313 188.183 209.985 189.61 209.985 189.61Z" fill="#C7A079"/>
<path d="M212.338 185.088C212.338 185.088 209.168 181.374 207.688 181.331L207.344 183.18C209.571 184.117 211.649 187.493 211.649 187.493C211.649 187.493 216.115 184.814 218.198 185.047L218.612 183.217C216.761 182.595 212.338 185.088 212.338 185.088Z" fill="#C7A079"/>
<path d="M214.367 179.264C214.367 179.264 211.019 175.64 209.541 175.651L209.256 177.504C211.52 178.336 213.759 181.675 213.759 181.675C213.759 181.675 218.118 178.875 220.206 179.02L220.567 177.173C218.693 176.636 214.367 179.264 214.367 179.264Z" fill="#C7A079"/>
<path d="M149.239 60.0288L150.777 58.7161C149.489 57.9808 148.124 53.7216 148.124 53.7216C148.124 53.7216 145.144 53.632 143.783 53.2149L141.821 54.6219L146.518 55.1712C146.518 55.1712 147.612 59.2078 149.239 60.0288Z" fill="#C7A079"/>
<path d="M154.544 56.2703L156.158 55.0475C154.523 54.224 153.422 50.1494 153.422 50.1494C153.422 50.1494 150.36 49.8479 149.218 49.1808L147.633 50.3997C148.673 51.21 151.874 51.541 151.874 51.541C151.874 51.541 152.854 55.5584 154.544 56.2703Z" fill="#C7A079"/>
<path d="M144.16 64.292C144.613 63.8374 145.082 63.3981 145.564 62.975C144.075 61.1151 143.555 57.5979 143.555 57.5979C143.555 57.5979 140.076 57.4483 138.407 57.348C137.895 57.8074 137.171 58.7034 137.171 58.7034L141.749 59.2399C141.749 59.2399 142.668 62.601 144.16 64.292Z" fill="#C7A079"/>
<path d="M139.928 69.0103C140.344 68.5893 140.828 68.0506 141.321 67.625C139.828 65.7562 139.096 61.955 139.096 61.955C139.096 61.955 135.752 61.8099 134.099 61.7007C133.571 62.1647 133.122 62.5452 132.857 63.0647L137.345 63.5585C137.345 63.5585 138.427 67.3278 139.928 69.0103Z" fill="#C7A079"/>
<path d="M159.682 52.4966L161.404 51.3634C159.394 50.9506 158.382 46.5531 158.382 46.5531C158.382 46.5531 155.685 46.5211 154.783 45.9266C154.09 46.3007 153.363 46.5595 152.667 47.0104C153.69 47.5024 156.709 47.7353 156.709 47.7353C156.709 47.7353 158.143 51.8125 159.682 52.4966Z" fill="#C7A079"/>
<path d="M136.679 72.5464C135.273 71.0133 134.034 67.0904 134.034 67.0904C134.034 67.0904 130.874 67.2465 129.204 67.2056L127.736 68.7623C129.393 69.036 132.411 68.8885 132.411 68.8885C132.411 68.8885 133.441 72.294 135.36 74.2634L136.679 72.5464Z" fill="#C7A079"/>
<path d="M164.61 48.4626C165.049 48.1398 166.202 47.5179 166.202 47.5179C164.359 46.8036 164.234 43.6011 164.234 43.6011C164.234 43.6011 160.188 43.5346 159.245 43.0923C158.669 43.4728 158.052 43.6779 157.5 44.1462C158.272 44.8004 162.37 44.9842 162.37 44.9842C162.37 44.9842 162.796 48.0801 164.61 48.4626Z" fill="#C7A079"/>
<path d="M125.334 72.6979C124.86 73.3414 124.503 73.7496 124.049 74.3889L128.347 74.5962C128.347 74.5962 129.258 78.5475 130.708 79.9519L131.916 78.1645C130.688 76.7192 129.902 72.6808 129.902 72.6808C129.902 72.6808 126.779 72.8113 125.334 72.6979Z" fill="#C7A079"/>
<path d="M125.284 78.6951C125.284 78.6951 122.55 79.0734 121.125 78.7292L119.906 80.2343C121.033 80.6428 124.035 80.6489 124.035 80.6489C124.035 80.6489 125.594 85.8208 126.822 86.4558L127.937 84.5166C126.361 83.2188 125.284 78.6951 125.284 78.6951Z" fill="#C7A079"/>
<path d="M117.426 85.1967L116.308 86.9538L120.334 86.9499C120.334 86.9499 121.304 91.1828 123.055 92.5254L124.11 90.6569C122.947 89.4189 121.739 85.0961 121.739 85.0961L117.426 85.1967Z" fill="#C7A079"/>
<path d="M113.874 92.0337L113.041 93.9068L116.974 93.697C116.974 93.697 118.538 97.5711 119.994 98.9265C120.385 98.283 120.578 97.4044 120.929 96.7736C119.209 95.1061 118.111 91.835 118.111 91.835L113.874 92.0337Z" fill="#C7A079"/>
<path d="M167.237 41.9695C167.425 43.6327 169.121 45.3494 169.121 45.3494L170.565 44.3808C169.263 43.2864 168.737 40.9753 168.737 40.9753L166.118 40.6823C164.804 40.6098 162.016 41.5801 162.016 41.5801C163.323 41.5353 167.237 41.9695 167.237 41.9695Z" fill="#C7A079"/>
<path d="M317.432 127.254L317.245 128.268C317.102 129.008 308.9 130.468 300.7 132.169C300.96 129.702 301.13 127.209 301.232 124.702C309.641 126.025 317.432 127.254 317.432 127.254ZM247.946 110.867L244.932 135.627C244.687 137.144 244.154 139.039 242.862 139.411L234.667 140.274L237.68 115.521C237.909 113.978 238.462 112.094 239.74 111.724L247.946 110.867ZM185.952 204.962C160.393 204.96 137.483 193.678 121.889 175.835C122.824 175.741 123.521 175.664 123.882 175.627C124.082 175.61 124.194 175.461 124.228 175.193C124.949 169.278 133.318 100.699 133.334 100.564C133.338 100.419 133.166 100.363 133.037 100.387C132.913 100.406 128.484 101.21 124.344 101.992C121.993 102.446 119.672 103.273 117.441 104.393C117.465 104.297 117.487 104.203 117.509 104.13C115.783 102.486 115.468 98.7874 115.468 98.7874L110.728 99.4694L110.16 101.296L113.933 100.748C113.933 100.748 114.158 103.307 115.649 105.375C109.253 109.139 103.809 115.355 100.949 122.371C100.926 121.552 100.887 120.738 100.887 119.913C100.887 72.94 138.972 34.8738 185.952 34.8653C220.989 34.8653 251.067 56.0461 264.103 86.2957C250.857 87.6916 234.903 89.3784 234.903 89.3784C232.901 89.5882 230.94 90.0436 229.03 90.6655L229.258 89.9988C227.469 89.2674 223.129 90.5972 223.129 90.5972C223.129 90.5972 220.698 86.8472 219.19 86.6143L218.522 88.4443C220.67 89.5067 222.207 93.0431 222.207 93.0431C222.207 93.0431 224.011 92.3398 225.849 91.9206C223.707 92.9026 221.678 94.1133 219.796 95.5316C218.861 94.4838 217.592 93.2525 216.73 93.1778L216.145 95.0271C216.925 95.3542 217.662 96.0127 218.292 96.7206C212.079 101.973 207.656 109.49 206.665 117.644C206.665 117.644 200.814 165.705 200.781 166.054C200.74 166.402 200.72 166.697 201.203 166.669C201.349 166.659 206.003 166.169 212.312 165.504L212.286 166.013C214.635 166.563 217.291 169.718 217.291 169.718C217.291 169.718 221.313 166.554 223.401 166.437L223.612 164.589C221.686 164.273 217.668 167.266 217.668 167.266C217.668 167.266 216.346 166.129 214.957 165.224C228.669 163.781 247.695 161.765 247.695 161.765C253.383 161.169 258.783 158.768 263.332 155.195C263.033 155.804 262.754 156.423 262.495 157.051C248.703 185.413 219.613 204.96 185.952 204.962ZM355.291 76.1275C340.215 77.7177 325.138 79.3062 310.062 80.893C305.139 81.4104 300.434 83.2852 296.302 86.0884C281.841 38.8763 237.913 4.5407 185.946 4.5407C134.907 4.5407 91.6373 37.681 76.4136 83.6041C63.929 84.8674 32.3233 88.1727 32.3233 88.1727C9.32198 90.5972 2.80692 108.477 0.978906 118.931C-0.600511 127.891 0.183335 134.213 0.277581 135.986C0.288961 136.287 0.404555 136.655 0.602293 136.717C0.875072 136.802 1.24281 136.661 1.71653 136.118C2.22545 135.535 10.8018 124.918 12.069 123.515C13.3329 122.115 18.8127 115.564 29.5073 114.444L65.7446 110.623C65.671 111.391 60.9879 152.322 60.9879 152.322C60.1759 157.714 56.6188 161.057 49.9807 162.246C49.9807 162.246 55.6713 112.699 55.6767 112.618C55.7001 112.535 55.6767 112.432 55.5412 112.457C55.3968 112.485 47.3368 113.86 47.3368 113.86C34.6342 116.595 23.8646 128.426 22.2952 141.361L19.5311 165.419C11.8926 166.197 6.88937 165.494 3.7533 165.254C2.69277 165.18 1.69731 165.047 0.847319 164.946C0.49452 164.904 0.223892 165.235 0.420564 165.528C1.71226 167.535 4.80031 172.991 8.79277 177.205C14.184 182.922 22.0537 185.759 31.819 185.759L56.1066 183.565C70.6183 182.035 79.3046 179.046 84.6201 175.159C104.202 210.989 142.233 235.295 185.946 235.295C237.014 235.295 280.298 202.123 295.506 156.17C310.194 154.626 324.146 153.153 324.146 153.153C346.524 150.795 347.38 140.249 347.842 134.585C347.888 134.053 348.942 124.836 349.079 122.249C349.521 115.391 344.492 109.223 337.158 107.602C334.184 106.942 322.097 104.84 314.347 103.51C314.486 103.403 314.646 103.324 314.816 103.28L336.609 100.956C344.191 100.158 350.089 94.5929 352.817 85.682L355.64 76.4589C355.64 76.4589 355.699 76.0763 355.291 76.1275Z" fill="#C7A079"/>
<path d="M207.161 92.8223C206.814 92.8564 160.693 97.7098 160.693 97.7098C146.598 99.2081 134.195 111.625 132.437 125.995C132.437 125.995 126.516 174.665 126.499 174.776C126.487 174.887 126.599 175 126.755 174.979C126.882 174.966 154.077 172.15 157.323 171.823C157.524 171.802 157.643 171.582 157.674 171.445C157.695 171.304 163.554 123.046 163.554 123.046C163.829 121.894 164.367 120.428 165.391 120.102L173.73 119.226C173.73 119.226 167.632 169.335 167.536 170.068C167.482 170.474 167.687 170.722 168.094 170.686C172.497 170.22 198.059 167.526 198.187 167.509C198.318 167.501 198.621 167.355 198.636 167.124C199.303 161.739 207.596 93.6902 207.617 93.3098C207.672 92.914 207.544 92.7775 207.161 92.8223Z" fill="#C7A079"/>
<path d="M92.6323 90.6161C89.2729 87.1505 84.5663 85.5345 79.1331 86.1134L32.4406 91.0478C16.1489 92.7541 7.25599 104.017 4.5851 113.143C2.92567 118.852 2.60701 122.337 2.41318 124.661C2.41318 124.661 2.09061 129.989 2.16459 131.65C2.16459 131.883 2.1525 131.987 2.28729 132.054C2.36446 132.088 2.47755 132.062 2.63902 131.889C3.50714 130.923 5.69258 127.891 6.2168 127.226C8.00462 125.011 11.2936 120.821 13.4648 118.948C16.1756 116.616 21.8289 112.577 29.4148 111.782L67.1184 107.814C67.7899 107.728 68.2241 107.861 68.2718 107.942C68.8515 108.536 68.52 109.663 68.52 109.663L63.717 152.559C62.6768 159.605 57.3272 163.824 47.2294 165.121L52.7105 115.964C52.7273 115.726 52.596 115.594 52.3414 115.647C52.0807 115.694 47.7447 116.594 47.7447 116.594C36.2204 119.07 26.4658 129.781 25.029 141.493L22.6298 162.472L21.9366 167.77L20.5681 167.924C17.8019 168.213 14.2938 168.418 7.288 167.924C6.07134 167.839 5.45963 167.698 5.31844 167.879C5.21708 168.059 5.2747 168.279 5.62429 168.867C5.76655 169.117 8.52956 174.34 14.5204 178.738C18.2468 181.462 24.1466 182.988 31.6045 182.988C35.7008 182.988 40.0389 182.594 44.1374 182.157L50.4017 181.496C79.5578 178.419 88.44 174.549 90.9946 154.78L96.9225 104.688C97.6035 99.142 96.0817 94.15 92.6323 90.6161Z" fill="#071D3D"/>
<path d="M79.2768 88.8378L32.5768 93.7658C8.75541 96.2714 5.82989 118.76 5.67589 119.669C5.50589 120.577 5.12002 124.212 5.09548 124.484C5.04498 124.742 5.15096 124.849 5.35617 124.584C5.56991 124.297 8.28881 120.725 8.28881 120.725C8.34998 120.627 16.0539 110.649 29.2665 109.259L66.9858 105.285C68.4222 105.133 69.5201 105.413 70.2236 106.161C71.6309 107.645 71.1849 110.576 70.7467 113.679C70.6322 114.431 66.3253 152.901 66.3253 152.901C64.5151 165.493 50.5874 166.966 45.9981 167.444L44.6783 167.587C44.6783 167.587 49.9757 118.912 49.9853 118.701C49.9966 118.486 49.7929 118.405 49.5873 118.45C49.3949 118.495 48.0979 118.771 48.0979 118.771C37.5071 121.059 28.5374 130.883 27.234 141.626L23.6992 169.791C21.1052 170.035 18.2447 170.265 15.795 170.265C14.3109 170.265 9.67476 169.945 9.32196 169.91C8.99085 169.878 8.89981 170.06 9.10501 170.298C9.30915 170.543 10.7783 172.388 10.7783 172.388C15.5962 178.103 22.7283 181.062 31.139 180.645C39.5418 180.241 45.687 179.382 51.7023 178.856C69.1961 177.304 85.6987 175.544 88.4212 154.731L94.3352 104.592C94.9145 99.8543 93.6218 95.5894 90.7272 92.6173C87.9343 89.7377 83.7772 88.3546 79.2768 88.8378Z" fill="#1D467D"/>
<path d="M314.463 100.635L336.512 98.2957C342.046 97.7102 347.113 93.0901 349.187 87.9032C349.982 85.8958 351.441 80.7114 351.774 79.516C351.815 79.3517 351.689 79.2853 351.496 79.2938C351.302 79.3347 310.171 83.7599 310.171 83.7599C297.613 85.0854 286.114 96.5855 284.565 109.39C284.565 109.39 283.49 118.842 283.478 118.938C283.478 119.027 283.514 119.079 283.578 119.087C283.621 119.096 320.504 125.352 320.504 125.352C320.504 125.352 320.231 126.899 319.879 129.275C319.505 131.637 303.572 133.54 297.132 135.385C287.396 138.166 277.612 140.587 268.538 151.402C267.158 153.066 266.101 155.4 265.534 156.29C265.418 156.482 265.491 156.719 265.772 156.698C266.077 156.674 324.994 150.395 324.994 150.395C337.09 149.123 343.746 144.531 344.763 136.755L344.882 135.808C345.327 132.559 346.125 126.495 346.35 122.369C346.687 116.898 342.414 111.754 336.414 110.412C332.787 109.618 315.511 106.651 310.322 105.77C310.974 102.871 312.398 101.139 314.463 100.635Z" fill="#071D3D"/>
<path d="M314.215 98.1439L336.379 95.788C343.471 95.031 346.512 88.4398 347.708 84.5891C347.708 84.5891 348.213 82.8835 348.237 82.7206C348.271 82.556 348.152 82.5048 347.924 82.524C347.704 82.5436 310.322 86.4899 310.322 86.4899C298.952 87.681 288.581 98.1009 287.162 109.725C287.162 109.725 286.307 116.998 286.302 117.084C286.302 117.167 286.341 117.227 286.415 117.244C286.495 117.248 323.325 123.78 323.325 123.78C323.305 124.023 323.28 124.265 323.249 124.507L322.813 128.082C321.993 133.112 318.403 133.792 303.474 136.575C299.956 137.232 279.284 141.907 272.095 151.045C271.327 152.05 270.782 152.822 270.49 153.296C270.291 153.617 270.371 153.767 270.701 153.741C274.537 153.309 315.722 148.877 321.3 148.287C334.306 146.919 340.751 144.71 342.188 135.802C343.006 130.664 343.532 126.17 343.746 122.452C344.004 118.187 340.565 114.183 335.729 113.103C331.575 112.184 308.283 108.214 308.058 108.186C307.858 108.156 307.397 107.914 307.433 107.452C308.166 100.85 311.502 98.7402 314.215 98.1439Z" fill="#1D467D"/>
<path d="M312.142 89.6737L345.596 86.1398C345.882 85.4259 346.126 84.7435 346.302 84.1622L310.491 87.9421C299.752 89.0664 289.94 98.9203 288.621 109.886L287.91 116.02L289.735 116.349L290.281 111.609C291.711 100.021 301.416 90.8026 312.142 89.6737Z" fill="white"/>
<path d="M309.479 111.365C311.9 111.765 333.224 115.406 337.085 116.263C338.57 116.588 339.902 117.238 340.984 118.1C339.755 116.38 337.798 114.987 335.421 114.521C331.357 113.74 310.23 110.042 307.807 109.618C307.761 109.618 307.715 109.599 307.692 109.593C307.844 110.536 308.638 111.215 309.479 111.365Z" fill="white"/>
<path d="M325.919 130.046L326.329 126.739C326.469 125.627 326.753 124.366 325.674 124.158L324.777 123.994C324.752 124.327 324.252 128.31 324.252 128.31C323.187 134.812 320.513 134.978 303.736 138.006C297.307 139.179 277.546 145.341 273.344 151.832C274.551 151.701 275.743 151.59 276.904 151.466C283.366 145.775 299.668 140.779 305.405 139.744C322.2 136.725 324.861 136.533 325.919 130.046Z" fill="white"/>
<path d="M122.137 105.522C112.228 108.445 103.018 119.31 101.707 130.068C101.707 130.068 96.2362 175.001 96.2031 175.38C96.1871 175.762 96.4403 175.85 96.679 175.839C96.8959 175.805 119.465 173.432 121.59 173.208C121.687 173.186 121.754 173.122 121.77 173.011C122.262 169.051 130.178 103.893 130.186 103.737C130.191 103.617 130.054 103.465 129.865 103.521C129.691 103.557 126.073 104.359 122.137 105.522Z" fill="#071D3D"/>
<path d="M125.162 107.495C114.586 109.776 105.628 119.596 104.315 130.354C104.315 130.354 99.2108 172.388 99.182 172.634C99.1229 172.895 99.2033 173.034 99.5902 173.001C99.9413 172.95 117.5 171.099 119.272 170.919C119.374 170.902 119.414 170.846 119.428 170.75C119.857 167.27 127.13 107.459 127.14 107.33C127.168 107.202 127.066 107.083 126.902 107.117C126.737 107.157 125.162 107.495 125.162 107.495Z" fill="#1D467D"/>
<path d="M125.212 111.175L125.49 108.913C115.574 111.07 107.012 120.383 105.779 130.529L100.799 171.4L102.706 171.2L107.436 132.251C108.563 122.018 116.151 114.027 125.212 111.175Z" fill="white"/>
<path d="M160.795 100.586C148.22 101.913 136.725 113.422 135.157 126.248C135.157 126.248 129.631 171.655 129.62 171.79C129.598 171.946 129.662 172.059 129.84 172.04C130.014 172.021 152.205 169.69 154.925 169.382C155.108 169.38 155.215 169.192 155.236 169.051C155.248 168.927 160.855 122.859 160.855 122.859C161.544 119.782 162.985 117.967 165.025 117.462L176.867 116.206C176.867 116.206 170.761 166.657 170.659 167.088C170.569 167.501 170.779 167.734 171.156 167.691C174.906 167.296 195.766 165.083 195.908 165.072C195.983 165.07 196.055 165.04 196.109 164.987C196.163 164.934 196.195 164.863 196.198 164.788C196.767 160.215 204.495 96.981 204.495 96.575C204.521 96.1451 204.156 96.0104 203.889 96.0402C203.614 96.0811 160.795 100.586 160.795 100.586Z" fill="#071D3D"/>
<path d="M160.929 103.309C149.579 104.513 139.185 114.929 137.781 126.534C137.781 126.534 132.641 168.732 132.62 168.94C132.601 169.134 132.633 169.22 132.801 169.201C132.97 169.182 150.206 167.36 152.59 167.11C152.782 167.088 152.887 166.954 152.919 166.783C152.927 166.68 158.273 122.636 158.273 122.636C159.508 116.973 162.844 115.395 164.768 114.961L179.076 113.439C179.219 113.439 179.412 113.439 179.601 113.61C179.741 113.751 179.788 113.941 179.749 114.159C179.749 114.159 173.66 163.929 173.66 164.303C173.632 164.666 173.794 164.88 174.199 164.833C177.565 164.482 193.356 162.808 193.509 162.804C193.777 162.787 193.88 162.532 193.898 162.387C194.376 158.447 201.53 99.5079 201.589 99.3241C201.593 99.1403 201.446 99.0439 201.288 99.0567C201.108 99.0784 160.929 103.309 160.929 103.309Z" fill="#1D467D"/>
<path d="M162.76 106.495L199.708 102.61L199.926 100.682L161.091 104.767C150.344 105.902 140.558 115.733 139.22 126.711L134.259 167.584L136.16 167.379L140.905 128.448C142.226 117.475 152.032 107.626 162.76 106.495Z" fill="white"/>
<path d="M182.308 114.33C182.027 114.018 181.622 113.822 181.199 113.755C181.225 113.949 181.228 114.144 181.209 114.339L175.24 163.259L177.148 163.056L182.873 116.086C182.959 115.414 182.744 114.786 182.308 114.33Z" fill="white"/>
<path d="M26.6767 172.859L30.3463 143.541C31.5142 134.03 39.0908 125.273 48.2007 122.437C48.36 120.915 48.4101 120.201 48.4101 120.201C38.4855 122.337 29.9241 131.66 28.6722 141.803L25.0134 171.125C20.0763 171.625 14.8811 171.715 11.8926 171.445C12.5071 172.177 13.4652 173.083 13.5573 173.182C16.6817 173.733 21.7571 173.346 26.6767 172.859Z" fill="white"/>
<path d="M34.3998 96.9447L81.1062 92.0252C84.7704 91.6384 88.0669 92.5578 90.5272 94.6144C90.2666 94.2695 89.9841 93.9418 89.6815 93.633C87.1657 91.0524 83.525 89.862 79.45 90.2894L32.7276 95.2216C9.79775 97.6398 7.12793 119.836 7.12793 119.836C7.12793 119.836 8.0967 118.559 9.94855 116.832C12.1553 110.151 18.2468 98.6485 34.3998 96.9447Z" fill="white"/>
<path d="M47.8284 170.631C52.5713 170.128 67.4532 168.57 69.4377 154.844C69.4377 154.844 73.7371 116.363 73.8612 115.641C74.3701 112.171 74.8343 108.879 72.9554 106.892C72.664 106.592 72.3309 106.336 71.9663 106.131C73.0279 108.145 72.6197 110.944 72.2018 113.894C72.0702 114.638 67.7687 153.115 67.7687 153.115C65.7927 166.847 50.9193 168.401 46.1519 168.895L44.719 169.021L44.4893 170.962L47.8284 170.631Z" fill="white"/>
<path d="M243.272 142.237L231.56 143.472L234.964 115.437C235.345 112.936 236.416 109.8 239.347 109.107L251.075 107.872L247.642 135.883C247.278 138.401 246.192 141.542 243.272 142.237ZM235.01 92.2389C222.45 93.5601 210.947 105.068 209.388 117.898C209.388 117.898 203.893 163.105 203.88 163.304C203.856 163.501 203.932 163.717 204.205 163.68C204.475 163.655 247.627 159.107 247.627 159.107C260.162 157.777 271.666 146.267 273.234 133.444C273.234 133.444 278.72 88.3199 278.754 88.059C278.772 87.777 278.503 87.6465 278.279 87.681C278.026 87.6977 235.01 92.2389 235.01 92.2389Z" fill="#071D3D"/>
<path d="M250.282 136.043L250.239 136.268C249.354 142.399 246.141 144.385 243.584 144.958L229.368 146.457C229.218 146.476 229.038 146.47 228.845 146.275C228.707 146.145 228.658 145.953 228.685 145.728L232.383 115.309C233.289 109.116 236.535 107.153 239.056 106.608L239.249 106.584L253.253 105.101C253.469 105.084 253.652 105.148 253.789 105.274C253.922 105.413 253.977 105.609 253.946 105.838L250.282 136.043ZM275.492 90.7124C275.345 90.7295 235.151 94.9624 235.151 94.9624C223.806 96.162 213.391 106.589 212.007 118.192C212.007 118.192 206.876 160.221 206.861 160.441C206.834 160.674 207.075 160.85 207.275 160.828C207.468 160.816 247.468 156.599 247.468 156.599C258.825 155.396 269.231 144.982 270.655 133.364C270.655 133.364 275.749 91.1483 275.792 90.9581C275.813 90.7657 275.642 90.6911 275.492 90.7124Z" fill="#1D467D"/>
<path d="M255.407 106.001L251.697 136.473C250.613 143.866 246.288 145.865 243.802 146.397L229.506 147.913C229.305 147.933 229.103 147.918 228.908 147.868C228.978 148.309 229.159 148.717 229.466 149.035C229.905 149.489 230.544 149.713 231.196 149.646L245.48 148.14C247.957 147.613 252.273 145.602 253.361 138.211L257.072 107.728C257.174 107.083 256.954 106.443 256.495 105.986C256.203 105.682 255.818 105.485 255.395 105.406C255.407 105.605 255.429 105.808 255.407 106.001Z" fill="white"/>
<path d="M236.975 98.1568L273.908 94.2639L274.143 92.3375L235.308 96.4189C224.575 97.5432 214.774 107.388 213.45 118.371L208.478 159.236L210.383 159.033L215.115 120.094C216.442 109.129 226.259 99.2815 236.975 98.1568Z" fill="white"/>
<path d="M305.773 125.415C304.31 125.186 302.782 124.945 301.232 124.701V124.704C301.192 125.638 301.14 126.571 301.077 127.504C301.021 128.385 300.954 129.265 300.876 130.144C300.817 130.818 300.771 131.496 300.7 132.169C302.275 131.84 303.849 131.524 305.369 131.218C305.548 129.291 305.687 127.356 305.773 125.415Z" fill="#071D3D"/>
<path d="M76.4131 83.6039C78.2947 77.9313 80.6162 72.4142 83.3567 67.1029C83.3806 67.0581 83.404 67.0112 83.4275 66.9664C84.0985 65.672 84.7928 64.3897 85.5102 63.1204C85.5262 63.0923 85.5425 63.0667 85.556 63.0389C88.4131 58.0115 91.6434 53.2054 95.22 48.6613C95.3601 48.4839 95.497 48.3065 95.6371 48.1291C96.446 47.1147 97.2708 46.1133 98.1114 45.125C98.281 44.9262 98.4545 44.7296 98.6256 44.533C101.313 41.4208 104.164 38.4534 107.167 35.6434C107.297 35.5218 107.424 35.3973 107.555 35.2736C108.394 34.4953 109.253 33.7405 110.114 32.9881C110.502 32.6482 110.888 32.3125 111.278 31.979C112.092 31.2866 112.916 30.606 113.75 29.9374C114.205 29.572 114.664 29.2121 115.127 28.8576C115.95 28.2141 116.775 27.5705 117.615 26.9525C118.063 26.6233 118.523 26.3047 118.977 25.984C120.461 24.9255 121.969 23.9019 123.501 22.9141C124.135 22.5035 124.762 22.091 125.402 21.6953C126.15 21.2334 126.909 20.7933 127.667 20.3463C129.103 19.4999 130.558 18.6866 132.031 17.9072C132.826 17.4873 133.627 17.0774 134.432 16.6777C135.127 16.331 135.819 15.9762 136.523 15.6452C137.665 15.098 138.822 14.5845 139.986 14.0779C140.694 13.77 141.405 13.4685 142.12 13.1755C143.3 12.6879 144.487 12.2197 145.683 11.771C146.314 11.536 146.952 11.3177 147.588 11.0933C148.595 10.7381 149.609 10.3918 150.63 10.0647C151.288 9.85566 151.944 9.64837 152.605 9.44926C153.681 9.12428 154.763 8.82277 155.85 8.52801C156.443 8.3673 157.033 8.20267 157.629 8.05086C159.252 7.6394 160.884 7.26312 162.523 6.92232C162.684 6.88818 162.844 6.85796 163.005 6.82809C164.615 6.50591 166.232 6.21655 167.853 5.96019C168.422 5.87237 168.993 5.79984 169.564 5.71877C170.77 5.54526 171.982 5.38917 173.199 5.25655C173.826 5.18828 174.456 5.12215 175.087 5.06242C176.327 4.9465 177.572 4.8569 178.82 4.7801C179.385 4.74561 179.946 4.70294 180.513 4.67947C182.314 4.59414 184.124 4.54046 185.946 4.54046C187.78 4.54046 189.601 4.59414 191.412 4.67947C191.985 4.70508 192.554 4.74775 193.125 4.78437C194.369 4.85672 195.611 4.95072 196.852 5.06632C198.686 5.24185 200.516 5.45939 202.34 5.71877C202.949 5.80623 203.561 5.8873 204.167 5.98365C205.526 6.20119 206.882 6.44277 208.233 6.70827C208.621 6.78543 209.016 6.84943 209.404 6.92872C211.115 7.28221 212.817 7.67568 214.509 8.10881C214.978 8.22863 215.439 8.3609 215.904 8.48712C217.132 8.81886 218.352 9.15877 219.562 9.52605C220.171 9.71323 220.778 9.90571 221.384 10.1035C222.451 10.4489 223.514 10.8088 224.572 11.1833C225.19 11.3999 225.806 11.6229 226.42 11.8521C227.508 12.2618 228.59 12.6881 229.665 13.1307C230.194 13.349 230.731 13.5563 231.258 13.781C232.808 14.4412 234.343 15.1347 235.862 15.861C236.19 16.0171 236.509 16.1945 236.834 16.3527C238.039 16.9472 239.236 17.552 240.416 18.1849C241.001 18.4992 241.575 18.8285 242.152 19.1492C243.067 19.6609 243.976 20.1832 244.878 20.7161C245.491 21.0828 246.101 21.4541 246.709 21.8301C247.573 22.3665 248.429 22.9153 249.278 23.4763C249.863 23.8613 250.452 24.2414 251.028 24.6372C251.982 25.2914 252.917 25.9627 253.848 26.6404C254.289 26.9632 254.741 27.2711 255.177 27.6004C256.461 28.5655 257.724 29.5577 258.966 30.5764C259.524 31.034 260.066 31.5065 260.616 31.9744C261.35 32.5988 262.082 33.221 262.798 33.8645C263.391 34.3904 263.974 34.9312 264.553 35.4702C265.208 36.0813 265.856 36.6992 266.497 37.3237C267.079 37.8877 267.655 38.4572 268.226 39.0322C268.858 39.6754 269.475 40.3339 270.092 40.9902C270.632 41.5655 271.179 42.1362 271.708 42.7243C272.64 43.7593 273.553 44.8113 274.446 45.8798C275.063 46.6271 275.672 47.3812 276.273 48.1419C276.812 48.8174 277.353 49.4908 277.875 50.1817C278.406 50.8782 278.92 51.5861 279.434 52.298C279.906 52.9461 280.371 53.5996 280.828 54.2585C281.339 54.9937 281.841 55.7348 282.334 56.4818C282.765 57.1372 283.189 57.7973 283.606 58.4619C284.089 59.2292 284.576 59.9925 285.041 60.7705C285.441 61.4418 285.821 62.1237 286.208 62.8039C287.038 64.2535 287.834 65.7219 288.597 67.2078C288.945 67.8773 289.301 68.544 289.633 69.2281C290.046 70.0704 290.435 70.928 290.829 71.781C291.143 72.4651 291.458 73.1495 291.76 73.8421C292.136 74.7093 292.502 75.5808 292.858 76.4565C293.141 77.1536 293.417 77.8535 293.687 78.5561C294.029 79.4433 294.362 80.3341 294.685 81.2284C294.935 81.9364 295.169 82.6503 295.407 83.3643C295.709 84.2706 296.022 85.1708 296.302 86.0857C297.592 85.2164 298.942 84.4379 300.341 83.7557C299.217 80.2044 297.939 76.694 296.476 73.237C290.433 58.9511 281.79 46.1255 270.775 35.1175C259.753 24.107 246.929 15.4485 232.646 9.41726C217.851 3.16375 202.131 -0.000343323 185.946 -0.000343323C169.76 -0.000343323 154.054 3.16375 139.259 9.41726C124.979 15.4485 112.147 24.107 101.13 35.1175C90.1175 46.1255 81.4697 58.9511 75.4241 73.237C73.9225 76.7959 72.594 80.4254 71.4434 84.1127C73.2977 83.9225 74.9849 83.7515 76.4131 83.6039Z" fill="#071D3D"/>
<path d="M295.505 156.17C293.63 161.836 291.316 167.346 288.582 172.651C288.548 172.716 288.516 172.78 288.484 172.846C287.818 174.132 287.128 175.406 286.415 176.666C286.398 176.696 286.38 176.729 286.362 176.758C283.51 181.782 280.286 186.584 276.716 191.125C276.571 191.311 276.423 191.499 276.273 191.686C275.471 192.698 274.65 193.695 273.813 194.679C273.641 194.88 273.464 195.081 273.29 195.284C270.626 198.366 267.803 201.307 264.831 204.094C264.67 204.246 264.515 204.402 264.351 204.551C263.519 205.321 262.669 206.072 261.817 206.818C261.421 207.162 261.028 207.508 260.628 207.846C259.819 208.535 259 209.212 258.171 209.877C257.71 210.248 257.245 210.613 256.776 210.974C255.958 211.611 255.14 212.25 254.303 212.866C253.843 213.206 253.369 213.527 252.905 213.86C251.443 214.903 249.957 215.912 248.449 216.888C247.8 217.305 247.158 217.73 246.499 218.136C245.756 218.59 245.008 219.036 244.254 219.472C243.539 219.895 242.819 220.309 242.094 220.715C241.362 221.124 240.625 221.526 239.883 221.918C239.082 222.34 238.276 222.752 237.465 223.154C236.774 223.503 236.088 223.851 235.39 224.185C234.213 224.741 233.027 225.276 231.831 225.79C231.151 226.086 230.469 226.375 229.783 226.656C228.605 227.139 227.419 227.616 226.219 228.06C225.589 228.294 224.951 228.512 224.318 228.734C223.309 229.096 222.293 229.44 221.272 229.766C220.617 229.979 219.96 230.183 219.3 230.38C218.219 230.705 217.133 231.012 216.042 231.304C215.453 231.464 214.867 231.631 214.273 231.78C212.641 232.195 210.999 232.575 209.35 232.918C209.185 232.952 209.02 232.978 208.856 233.012C207.259 233.332 205.655 233.618 204.045 233.871C203.475 233.961 202.902 234.036 202.331 234.115C201.123 234.29 199.912 234.444 198.699 234.577C198.069 234.645 197.439 234.71 196.808 234.772C195.566 234.884 194.322 234.978 193.077 235.051C192.512 235.086 191.948 235.129 191.381 235.156C189.579 235.237 187.77 235.295 185.946 235.295C184.175 235.295 182.413 235.237 180.66 235.161C180.198 235.137 179.737 235.116 179.276 235.09C177.725 235 176.181 234.885 174.648 234.737C174.436 234.716 174.222 234.703 174.011 234.682C172.309 234.504 170.612 234.288 168.92 234.034C168.479 233.968 168.039 233.895 167.598 233.826C166.194 233.602 164.795 233.353 163.4 233.078C163.075 233.012 162.749 232.956 162.426 232.888C160.791 232.549 159.163 232.173 157.545 231.761C157.135 231.661 156.73 231.548 156.323 231.441C155.009 231.092 153.704 230.72 152.409 230.327C152.023 230.211 151.634 230.098 151.253 229.978C149.688 229.488 148.134 228.962 146.593 228.402C146.231 228.27 145.876 228.129 145.517 227.996C144.271 227.531 143.033 227.044 141.803 226.534C141.383 226.361 140.961 226.188 140.545 226.008C139.06 225.374 137.589 224.71 136.132 224.013C135.834 223.87 135.544 223.721 135.247 223.57C134.044 222.983 132.852 222.373 131.672 221.741C131.235 221.508 130.798 221.277 130.366 221.035C128.967 220.27 127.585 219.476 126.219 218.653C126.019 218.532 125.824 218.404 125.624 218.281C123.984 217.267 122.368 216.215 120.777 215.126C119.663 214.364 118.563 213.582 117.476 212.78C117.242 212.605 117.004 212.445 116.773 212.269C115.528 211.335 114.312 210.371 113.107 209.39C112.684 209.045 112.264 208.696 111.847 208.342C110.917 207.563 110.001 206.769 109.097 205.961C108.773 205.672 108.444 205.39 108.123 205.095C106.996 204.064 105.89 203.01 104.806 201.935C104.412 201.546 104.028 201.15 103.638 200.755C102.838 199.941 102.05 199.115 101.276 198.277C100.923 197.894 100.563 197.518 100.215 197.129C99.2021 196.01 98.2134 194.869 97.2494 193.708C96.8977 193.287 96.5566 192.855 96.2113 192.429C95.5133 191.567 94.8279 190.695 94.1553 189.813C93.8057 189.353 93.455 188.902 93.1118 188.438C92.2179 187.23 91.3467 186.006 90.4986 184.765C90.2052 184.331 89.9242 183.89 89.6379 183.457C89.0198 182.524 88.4154 181.581 87.8252 180.63C87.5055 180.115 87.1857 179.6 86.8756 179.081C86.0984 177.788 85.3463 176.481 84.6198 175.159C83.4863 175.989 82.1872 176.775 80.7212 177.517C86.1764 187.474 93.0037 196.592 101.13 204.723C112.147 215.735 124.979 224.379 139.259 230.416C154.054 236.67 169.76 239.836 185.946 239.836C202.131 239.836 217.851 236.67 232.646 230.416C246.929 224.381 259.754 215.735 270.775 204.723C281.791 193.704 290.433 180.88 296.476 166.601C298 163.003 299.33 159.345 300.486 155.646C298.848 155.817 297.183 155.993 295.505 156.17Z" fill="#071D3D"/>
<path d="M117.528 44.2339L116.846 43.4897C116.392 43.0044 115.974 42.7008 115.587 42.5877C115.193 42.47 114.859 42.5383 114.589 42.7822C114.192 43.1605 114.004 43.5025 114.033 43.8382C114.069 44.176 114.269 44.5504 114.648 44.9692L119.932 50.7246C120.242 51.0602 120.563 51.259 120.878 51.2825C121.195 51.323 121.526 51.1776 121.863 50.8636C122.084 50.6691 122.215 50.4572 122.261 50.2179C122.303 49.992 122.281 49.7591 122.199 49.5445C122.119 49.3118 122.003 49.0931 121.855 48.8967C121.702 48.6937 121.533 48.4775 121.334 48.2745L120.355 47.2053L123.088 44.6997L124.401 46.1216C125.37 47.1754 125.811 48.3065 125.733 49.4951C125.652 50.6926 124.934 51.9153 123.594 53.1449C122.368 54.2673 121.195 54.7673 120.069 54.6517C118.94 54.5344 117.812 53.8695 116.685 52.651L112.295 47.8745C111.129 46.6154 110.577 45.4119 110.61 44.2595C110.655 43.1093 111.294 41.9484 112.539 40.8064C113.736 39.697 114.915 39.126 116.05 39.0748C117.193 39.0321 118.296 39.5836 119.357 40.7491L120.261 41.7173L117.528 44.2339Z" fill="#071D3D"/>
<path d="M132.628 45.1467L124.203 31.7803L127.337 29.8027L130.576 34.9359L132.757 33.5677L129.513 28.4363L132.657 26.4527L141.077 39.8319L137.942 41.7967L134.428 36.2379L132.255 37.6022L135.766 43.1691L132.628 45.1467Z" fill="#071D3D"/>
<path d="M147.007 22.8692L146.968 22.8863L148.582 29.8644L150.587 29.0648L147.007 22.8692ZM146.502 36.999L143.869 21.0371L148.022 19.393L157.063 32.7978L153.572 34.1791L151.949 31.5235L149.245 32.599L149.97 35.6177L146.502 36.999Z" fill="#071D3D"/>
<path d="M164.43 21.8128L164.398 21.8598L166.434 30.4351L162.985 31.1152L159.929 15.6105L163.668 14.8774L168.185 22.9844L168.254 22.9759L166.195 14.3792L169.637 13.6951L172.697 29.1995L168.975 29.9373L164.43 21.8128Z" fill="#071D3D"/>
<path d="M186.899 28.426L186.727 27.0276H186.677C186.3 27.6882 185.884 28.1522 185.417 28.4193C184.95 28.6824 184.307 28.815 183.497 28.8257C182.743 28.8278 182.089 28.7254 181.553 28.4836C181.035 28.2567 180.586 27.8985 180.25 27.4447C179.911 26.9913 179.672 26.4697 179.516 25.8646C179.371 25.253 179.296 24.5928 179.284 23.8379L179.208 17.3533C179.192 15.6388 179.572 14.3734 180.374 13.5371C181.175 12.7058 182.422 12.2824 184.123 12.261C185.756 12.2351 187.003 12.5967 187.879 13.3192C188.753 14.0463 189.195 15.2004 189.22 16.772L189.232 17.9499L185.516 17.9969L185.503 17.1225C185.503 16.4022 185.417 15.8781 185.26 15.5641C185.099 15.269 184.79 15.1172 184.327 15.098C183.778 15.1172 183.401 15.2477 183.203 15.5147C183.008 15.7821 182.905 16.2031 182.919 16.7634L183.008 24.5775C183.013 25.0415 183.127 25.3857 183.347 25.6232C183.582 25.8667 183.927 25.9844 184.39 25.9759C184.684 25.967 184.922 25.9115 185.112 25.7985C185.288 25.685 185.417 25.5289 185.503 25.3579C185.579 25.1609 185.636 24.9601 185.653 24.7489C185.668 24.5241 185.677 24.2568 185.677 23.9339L185.666 22.6877L184.336 22.7069L184.294 19.8614L189.333 19.8059L189.432 28.3983L186.899 28.426Z" fill="#071D3D"/>
<path d="M207.611 26.1635L207.661 26.1741L210.941 15.5381L214.384 16.2157L208.754 31.207L204.658 30.3946L205.689 19.2707L205.651 19.2582L202.297 29.937L198.269 29.1395L198.713 13.1306L202.233 13.8193L201.182 24.9279L201.231 24.8853L204.836 14.326L208.35 15.0207L207.611 26.1635Z" fill="#071D3D"/>
<path d="M227.356 26.0057C227.479 25.7259 227.58 25.4756 227.641 25.2466C227.704 25.0343 227.735 24.814 227.733 24.5927C227.733 24.3766 227.681 24.1757 227.57 23.9833C227.451 23.8013 227.267 23.6626 226.991 23.5428C226.731 23.4255 226.502 23.3995 226.278 23.4425C226.061 23.4937 225.879 23.5816 225.72 23.7373C225.557 23.9006 225.414 24.0829 225.294 24.2802C225.159 24.5041 225.039 24.7363 224.933 24.9753L222.388 30.9444C222.287 31.1831 222.198 31.4263 222.12 31.6733C222.06 31.9149 222.024 32.1621 222.013 32.4111C222.013 32.6546 222.069 32.8708 222.183 33.0759C222.296 33.2811 222.482 33.4329 222.731 33.5442C222.994 33.6509 223.236 33.6807 223.459 33.6274C223.678 33.5725 223.875 33.4516 224.023 33.2811C224.186 33.1066 224.328 32.9137 224.446 32.7062C224.568 32.4925 224.688 32.2507 224.806 31.9791L227.356 26.0057ZM228.339 33.1463C227.61 34.8484 226.725 35.9535 225.683 36.4605C224.642 36.9821 223.286 36.8726 221.615 36.1611C219.946 35.4361 218.912 34.5234 218.555 33.4031C218.198 32.2891 218.377 30.88 219.098 29.1894L221.622 23.2886C222.219 21.8859 223.086 20.9967 224.213 20.5903C225.34 20.1796 226.639 20.2952 228.128 20.9387C229.617 21.5652 230.596 22.4267 231.055 23.5172C231.525 24.5988 231.46 25.8411 230.87 27.2395L228.339 33.1463Z" fill="#071D3D"/>
<path d="M239.932 35.4464L239.876 35.457L235.274 42.9699L232.342 41.0286L241.105 27.878L244.276 29.984L241.768 38.9205L241.817 38.9614L246.417 31.4144L249.349 33.3703L240.582 46.5166L237.43 44.4067L239.932 35.4464Z" fill="#071D3D"/>
<path d="M107.091 53.0932L108.366 56.7921L111.634 54.6541L110.232 58.2993L114.115 58.7633L110.689 60.6573L113.368 63.505L109.531 62.7569L109.746 66.6609L107.286 63.6163L104.942 66.7419L105.017 62.8319L101.212 63.7361L103.776 60.7835L100.284 59.0154L104.15 58.4084L102.614 54.8187L105.965 56.8347L107.091 53.0932Z" fill="#071D3D"/>
<path d="M254.405 41.5355L255.673 45.234L258.948 43.0985L257.544 46.7415L261.426 47.2052L258.002 49.1039L260.68 51.9472L256.839 51.2013L257.059 55.1028L254.596 52.0585L252.258 55.1885L252.329 51.2823L248.525 52.1762L251.089 49.2255L247.603 47.4619L251.468 46.8461L249.925 43.2585L253.27 45.2767L254.405 41.5355Z" fill="#071D3D"/>
<path d="M133.474 204.795L136.905 202.897L133.014 202.428L134.421 198.781L131.153 200.928L129.885 197.233L128.749 200.962L125.401 198.948L126.942 202.546L123.078 203.158L126.564 204.917L124 207.87L127.804 206.974L127.733 210.884L130.071 207.752L132.533 210.792L132.317 206.891L136.156 207.637L133.474 204.795Z" fill="#071D3D"/>
<path d="M259.597 189.413L261.013 185.774L257.733 187.912L256.458 184.213L255.332 187.955L251.989 185.93L253.527 189.53L249.661 190.144L253.144 191.903L250.578 194.845L254.382 193.953L254.315 197.862L256.657 194.734L259.115 197.774L258.9 193.87L262.735 194.621L260.06 191.773L263.484 189.879L259.597 189.413Z" fill="#071D3D"/>
<path d="M145.015 203.072L153.406 206.657L152.12 209.67L147.417 207.665L146.385 210.083L150.79 211.964L149.552 214.859L145.146 212.977L143.946 215.795L148.824 217.88L147.538 220.894L138.968 217.232L145.015 203.072Z" fill="#071D3D"/>
<path d="M162.834 213.997L162.923 213.638C163.143 212.761 162.97 211.94 162.218 211.75C161.379 211.541 160.84 212.096 160.672 212.765C159.935 215.718 166.66 215.866 165.293 221.33C164.495 224.514 162.275 225.467 158.842 224.61C155.618 223.802 154.094 222.243 154.869 219.143L155.001 218.621L158.769 219.564L158.68 219.917C158.361 221.196 158.769 221.79 159.523 221.978C160.319 222.177 160.936 221.664 161.14 220.847C161.879 217.894 155.398 217.83 156.725 212.535C157.479 209.52 159.506 208.267 162.793 209.09C166.185 209.941 167.279 211.703 166.477 214.908L162.834 213.997Z" fill="#071D3D"/>
<path d="M174.346 214.976L171.338 214.696L171.653 211.303L181.665 212.227L181.352 215.622L178.343 215.344L177.238 227.289L173.24 226.921L174.346 214.976Z" fill="#071D3D"/>
<path d="M184.217 223.318L187.845 223.259L187.916 227.532L184.288 227.59L184.217 223.318Z" fill="#071D3D"/>
<path d="M197.715 216.823C197.456 215.271 197.419 213.986 197.981 212.962C198.544 211.94 199.68 211.209 201.722 210.841C205.668 210.129 206.891 211.816 207.297 214.065C207.665 216.103 207.158 217.531 206.236 218.859L204.309 221.55C204.03 221.952 203.622 222.485 203.555 222.957L208.735 222.023L209.271 224.997L199.378 226.778C199.004 224.699 199.19 222.692 200.59 220.623L202.74 217.471C203.366 216.571 203.563 215.944 203.356 214.82C203.126 213.548 202.652 213.216 202.037 213.328C201.485 213.426 200.986 213.821 201.292 215.521L201.408 216.156L197.715 216.823Z" fill="#071D3D"/>
<path d="M218.055 217.268C218.776 219.325 219.293 219.758 220.087 219.481C220.885 219.205 221.015 218.54 220.296 216.483L218.626 211.72C217.907 209.663 217.388 209.227 216.595 209.505C215.8 209.783 215.667 210.446 216.386 212.503L218.055 217.268ZM215.768 207.143C219.146 205.958 221.207 206.952 223.249 212.774C225.288 218.6 224.297 220.661 220.914 221.846C217.536 223.027 215.474 222.033 213.434 216.212C211.394 210.388 212.387 208.327 215.768 207.143Z" fill="#071D3D"/>
<path d="M234.808 215.532L229.87 206.377L227.325 207.752L226.137 205.545C228.293 204.359 228.97 203.431 228.545 201.552L231.089 200.182L238.343 213.629L234.808 215.532Z" fill="#071D3D"/>
<path d="M247.238 207.972L241.115 199.566L238.778 201.267L237.304 199.245C239.28 197.781 239.826 196.767 239.153 194.965L241.489 193.261L250.486 205.608L247.238 207.972Z" fill="#071D3D"/>
<path d="M263.332 155.195C262.315 155.989 261.253 156.725 260.153 157.399C256.79 164.039 252.552 170.197 247.552 175.711C246.634 176.723 245.692 177.714 244.727 178.682C243.868 179.534 242.991 180.369 242.098 181.186C242.012 181.267 241.929 181.349 241.842 181.428C241.566 181.682 241.273 181.915 240.993 182.163C226.332 195.132 207.068 203.019 185.955 203.019H185.953C162.992 203.019 142.224 193.716 127.173 178.682C126.128 177.637 125.121 176.558 124.134 175.459C124.074 175.553 123.997 175.617 123.882 175.627C123.521 175.664 122.824 175.741 121.892 175.835C121.893 175.839 121.897 175.844 121.899 175.847C128.7 183.626 136.894 190.157 146.091 195.051C146.205 195.108 146.322 195.166 146.435 195.224C147.588 195.831 148.754 196.412 149.933 196.966C150.211 197.097 150.495 197.216 150.772 197.343C151.798 197.812 152.834 198.26 153.878 198.687C154.261 198.843 154.648 198.991 155.033 199.143C155.992 199.518 156.958 199.876 157.93 200.216C158.382 200.374 158.837 200.526 159.294 200.678C160.219 200.981 161.149 201.269 162.083 201.541C162.587 201.689 163.091 201.836 163.599 201.973C164.503 202.219 165.416 202.446 166.331 202.662C166.873 202.79 167.412 202.918 167.956 203.036C168.861 203.232 169.774 203.403 170.688 203.57C171.249 203.671 171.807 203.78 172.37 203.87C173.302 204.017 174.241 204.139 175.182 204.257C175.737 204.329 176.287 204.41 176.843 204.47C177.86 204.577 178.887 204.654 179.914 204.723C180.401 204.759 180.882 204.808 181.372 204.836C182.889 204.917 184.415 204.962 185.952 204.962C187.264 204.962 188.566 204.919 189.864 204.862C190.23 204.847 190.593 204.825 190.957 204.804C191.983 204.742 193.006 204.665 194.02 204.569C194.316 204.543 194.613 204.522 194.908 204.49C196.17 204.357 197.426 204.197 198.672 204.011C198.957 203.968 199.24 203.916 199.524 203.872C200.519 203.712 201.507 203.534 202.488 203.344C202.852 203.269 203.212 203.198 203.573 203.124C204.717 202.885 205.856 202.622 206.989 202.337C207.077 202.315 207.167 202.296 207.253 202.271C208.451 201.965 209.632 201.621 210.81 201.263C212.062 200.877 213.306 200.464 214.54 200.026C214.857 199.91 215.177 199.803 215.491 199.686C216.617 199.271 217.733 198.83 218.838 198.364C219.129 198.247 219.414 198.114 219.703 197.99C220.551 197.623 221.393 197.242 222.229 196.849C222.598 196.673 222.966 196.498 223.332 196.321C224.235 195.878 225.13 195.419 226.016 194.944C226.211 194.841 226.409 194.745 226.601 194.64C227.623 194.08 228.633 193.499 229.631 192.898C229.995 192.679 230.354 192.455 230.713 192.235C231.42 191.794 232.12 191.345 232.815 190.886C233.157 190.657 233.502 190.439 233.838 190.208C234.779 189.567 235.707 188.908 236.622 188.231C236.932 188.002 237.233 187.76 237.539 187.525C238.192 187.027 238.837 186.52 239.475 186.003C239.843 185.708 240.21 185.408 240.574 185.1C241.22 184.558 241.857 184.006 242.486 183.444C242.79 183.174 243.1 182.907 243.401 182.631C244.182 181.914 244.949 181.182 245.702 180.436C246.051 180.091 246.395 179.741 246.739 179.39C247.248 178.868 247.752 178.341 248.25 177.808C248.582 177.445 248.92 177.09 249.248 176.724C249.977 175.914 250.692 175.089 251.389 174.25C251.683 173.898 251.964 173.539 252.252 173.18C252.713 172.608 253.168 172.03 253.614 171.446C253.937 171.022 254.257 170.595 254.572 170.165C255.006 169.571 255.433 168.971 255.853 168.367C256.168 167.914 256.483 167.465 256.789 167.005C257.337 166.183 257.871 165.351 258.39 164.51C258.671 164.053 258.943 163.589 259.217 163.127C259.561 162.543 259.9 161.956 260.232 161.365C260.495 160.893 260.76 160.422 261.013 159.948C261.496 159.046 261.962 158.136 262.412 157.217C262.438 157.162 262.467 157.108 262.495 157.051C262.754 156.423 263.033 155.804 263.332 155.195Z" fill="#071D3D"/>
<path d="M104.968 101.233C108.516 85.791 116.34 71.9865 127.172 61.1535C134.697 53.6299 143.655 47.5499 153.598 43.3465C163.543 39.1389 174.477 36.8128 185.955 36.8128C219.971 36.8128 249.198 57.2537 262.061 86.5095C262.747 86.4366 263.43 86.3662 264.103 86.2955C263.415 84.6987 262.671 83.136 261.892 81.5922C261.674 81.1666 261.459 80.7392 261.237 80.3158C260.906 79.69 260.568 79.0686 260.222 78.4516C259.988 78.0334 259.749 77.6178 259.505 77.205C258.726 75.8651 257.911 74.5463 257.062 73.2498C256.97 73.1087 256.88 72.9611 256.785 72.8203C256.405 72.245 256.006 71.685 255.609 71.1183C255.32 70.7035 255.027 70.2916 254.731 69.8827C254.332 69.3359 253.927 68.7936 253.516 68.2557C253.195 67.8387 252.869 67.4254 252.538 67.0159C251.968 66.2963 251.387 65.5863 250.793 64.8861C250.291 64.2962 249.787 63.7038 249.27 63.1268C248.849 62.6628 248.419 62.2073 247.989 61.7501C247.596 61.3281 247.197 60.9104 246.794 60.4971C246.361 60.0526 245.923 59.6129 245.48 59.178C245.034 58.7416 244.581 58.3111 244.123 57.8866C243.692 57.4784 243.262 57.0699 242.822 56.6724C242.039 55.9705 241.245 55.2819 240.439 54.607C240.014 54.2564 239.584 53.9143 239.156 53.5702C238.632 53.1501 238.103 52.7353 237.571 52.3257C237.133 51.9901 236.695 51.6608 236.251 51.3337C235.638 50.8842 235.019 50.4437 234.393 50.0125C234.028 49.7582 233.669 49.4994 233.3 49.2495C232.36 48.6205 231.408 48.0102 230.444 47.4191C230.04 47.1716 229.628 46.9341 229.218 46.6902C228.558 46.2979 227.892 45.9152 227.221 45.5421C226.798 45.3058 226.373 45.0728 225.947 44.843C225.147 44.4184 224.34 44.0057 223.528 43.605C223.243 43.4642 222.966 43.3188 222.681 43.1819C221.613 42.671 220.534 42.1827 219.446 41.7174C219.062 41.5549 218.674 41.3988 218.288 41.2384C217.499 40.9148 216.705 40.6027 215.906 40.3023C215.504 40.1504 215.104 39.9986 214.699 39.8532C213.708 39.4972 212.71 39.1601 211.706 38.842C211.524 38.784 211.343 38.72 211.162 38.6603C209.981 38.2985 208.793 37.9619 207.598 37.6509C207.228 37.5527 206.856 37.4653 206.483 37.3732C205.592 37.151 204.697 36.9437 203.795 36.751C203.407 36.6678 203.022 36.5863 202.633 36.5074C201.472 36.2763 200.304 36.0647 199.128 35.883C199.04 35.8681 198.956 35.8511 198.869 35.8383C197.61 35.6455 196.339 35.4919 195.062 35.355C194.685 35.3124 194.308 35.2847 193.931 35.2459C192.974 35.1563 192.013 35.0834 191.045 35.0301C190.66 35.0041 190.273 34.981 189.887 34.9615C188.582 34.9039 187.271 34.8654 185.951 34.8654C138.973 34.874 100.887 72.9401 100.887 119.913C100.887 120.738 100.926 121.552 100.949 122.372C101.492 121.037 102.156 119.744 102.876 118.478C102.98 112.56 103.692 106.79 104.968 101.233Z" fill="#071D3D"/>
<path d="M195.189 65.1424L210.573 63.4606C210.967 63.4172 211.327 63.056 211.376 62.6532L212.443 53.8923C212.492 53.4894 212.212 53.1979 211.817 53.2409L191.695 55.4407C191.383 55.4752 191.068 55.6388 190.825 55.8933L184.474 62.5348L179.591 57.1214C179.403 56.9138 179.12 56.816 178.808 56.8498L160.19 58.8853C159.877 58.9195 159.562 59.0834 159.318 59.339L153.324 65.6228C153.097 65.8613 152.95 66.1607 152.913 66.459L149.92 91.0389C149.871 91.4418 150.151 91.7337 150.545 91.6903L159.123 90.7524C159.517 90.7093 159.877 90.3481 159.926 89.9449L162.348 70.0587C162.429 69.3941 163.022 68.7979 163.673 68.7268L172.811 67.7276C173.461 67.6565 173.923 68.1376 173.843 68.8021L171.42 88.6884C171.371 89.0912 171.651 89.3828 172.046 89.3397L180.623 88.4018C181.018 88.3588 181.377 87.9972 181.426 87.5943L182.114 81.9481L186.994 87.349C187.181 87.5563 187.464 87.654 187.776 87.6199L207.898 85.4201C208.293 85.3771 208.652 85.0155 208.701 84.6126L209.768 75.8517C209.817 75.4489 209.538 75.1573 209.143 75.2004L193.76 76.8821C193.109 76.9532 192.647 76.4722 192.728 75.8076L193.865 66.4747C193.946 65.8098 194.539 65.2135 195.189 65.1424Z" fill="#071D3D"/>
</g>
</g>
<defs>
<clipPath id="clip0_121_659">
<rect width="356" height="240" fill="white"/>
</clipPath>
</defs>
</svg>
