<svg width="407" height="240" viewBox="0 0 407 240" fill="none" xmlns="http://www.w3.org/2000/svg">
<g clip-path="url(#clip0_121_400)">
<path d="M384.577 133.616C386.65 130.695 388.157 127.303 389.1 123.816L391.172 115.995C391.926 113.168 392.303 110.247 392.303 107.42C392.303 105.536 392.114 103.651 391.737 101.861L395.035 101.578L403.608 69.5406L388.157 51.1661L328.992 56.3486C325.6 52.2026 321.831 48.1508 317.78 44.3816C316.179 26.9494 301.481 13.192 283.581 13.192C279.341 13.192 275.384 13.9458 271.616 15.3592C248.157 5.55948 221.024 0 192.006 0C141.319 0 96.0972 17.0554 67.2681 43.5336L10.4576 48.6219L37.9678 73.4982L0 215.218L16.7699 233.498L127.564 213.616C147.255 219.929 169.018 223.416 192.006 223.416C231.764 223.416 268.13 212.956 295.923 195.618L303.743 240L334.55 170.648L406.906 138.704L384.577 133.616Z" fill="#D5D5D6"/>
<path d="M398.05 70.8599L385.991 56.4429L326.731 61.6255C322.679 56.3487 317.969 51.2603 312.787 46.5489C312.316 30.8128 299.409 18.1861 283.487 18.1861C279.247 18.1861 275.196 19.1284 271.522 20.7303C248.345 10.8363 221.118 5.08838 192.006 5.08838C141.696 5.08838 97.0394 22.1437 69.2466 48.4335L22.3285 52.6738L43.5264 71.8964L5.55859 213.805L18.6542 228.033L127.941 208.434C147.443 214.747 169.207 218.327 192.1 218.327C234.025 218.327 272.087 206.455 299.691 187.232L306.004 222.85L330.876 166.785L390.984 140.212L375.062 136.631C379.396 133.051 382.787 128.057 384.2 122.497L386.273 114.676C386.933 112.226 387.215 109.776 387.215 107.421C387.215 104.876 386.744 102.426 385.991 100.165C385.708 99.2227 385.237 98.2804 384.86 97.4323L391.078 96.8669L398.05 70.8599Z" fill="#CF0022"/>
<path d="M289.705 174.794C270.674 187.797 246.932 196.466 221.023 200.236C234.119 195.43 246.273 189.305 257.107 181.955C257.766 181.484 258.52 181.013 259.18 180.542L237.322 184.405C213.11 196.843 183.056 204.193 150.364 204.193C147.255 204.193 144.146 204.099 141.131 204.005C156.959 208.057 174.105 210.318 191.912 210.318C233.836 210.318 271.522 198.163 297.901 178.752L296.3 169.894C294.321 171.496 292.06 173.192 289.705 174.794Z" fill="white"/>
<path d="M19.0312 210.318L23.0824 214.841L303.272 164.994L302.424 160L19.0312 210.318ZM321.643 157.55L307.606 189.117L311.468 192.98L325.506 161.414L356.219 147.845L352.357 143.981L321.643 157.55ZM380.715 69.0696L377.512 80.8481L357.067 82.6385C356.219 82.7327 355.372 83.4865 355.183 84.3346L352.922 92.6267C352.734 93.4748 353.205 94.1344 353.958 94.0401L357.821 93.6632L359.14 88.7633C359.328 87.9153 359.988 87.5384 360.647 87.4441L381.374 85.6538L384.578 73.8752L380.715 69.0696ZM253.245 123.157L257.107 122.78L258.709 116.655L286.125 114.299L290.93 96.3016C291.307 94.8882 291.495 93.569 291.495 92.344C291.495 91.119 291.307 89.8941 290.93 88.8576C290.553 87.8211 290.082 86.8788 289.328 86.0307C288.669 85.2769 286.219 82.3558 285.465 81.5077C287.35 83.9577 288.009 87.5384 286.879 91.5902L282.074 109.588L254.658 111.944L252.02 121.743C251.926 122.591 252.397 123.251 253.245 123.157Z" fill="#970022"/>
<path d="M319.476 91.0247L337.471 89.4228L340.203 79.0577C340.297 78.5866 340.486 78.2096 340.674 77.7385L336.529 72.8386L333.42 84.6172L315.896 86.1248C315.048 86.2191 314.2 86.9729 314.012 87.821L302.612 130.318L285.936 131.826L287.444 126.266L282.639 132.203L246.084 135.406C240.526 135.877 236.569 133.051 235.533 128.433L228.561 137.008L218.48 137.856C215.936 138.045 213.864 137.385 212.639 135.972C211.508 137.479 209.718 138.61 208.022 138.704L192.006 140.118C186.448 140.589 182.491 137.762 181.454 133.145L174.483 141.72L165.344 142.568C161.575 142.85 158.561 141.72 156.676 139.458C157.43 140.4 159.88 143.322 160.539 144.075C161.198 144.829 161.952 145.489 162.8 146.054C163.648 146.525 164.684 146.996 165.721 147.185C166.851 147.373 167.982 147.468 169.301 147.373L177.026 146.714L184.092 138.045C185.129 139.27 186.73 141.154 187.201 141.72C187.861 142.473 188.614 143.133 189.462 143.698C190.31 144.17 191.347 144.641 192.383 144.829C193.514 145.018 194.644 145.112 195.963 145.018L211.979 143.604C213.675 143.416 215.465 142.379 216.596 140.872C217.82 142.191 219.799 142.945 222.437 142.756L231.105 142.002L238.17 133.333C239.207 134.558 240.808 136.443 241.28 137.008C241.939 137.762 242.693 138.422 243.541 138.987C244.389 139.458 245.425 139.929 246.461 140.118C247.592 140.306 248.722 140.4 250.041 140.306L286.596 137.102L288.198 135.124L289.893 136.82L306.569 135.312L318.063 92.4381C318.252 91.5901 318.911 91.1189 319.476 91.0247ZM372.989 101.296C372.33 100.542 369.88 97.6207 369.126 96.7727C371.011 99.2226 371.67 102.803 370.54 106.855L367.525 118.163C366.583 121.837 363.003 125.135 359.705 125.418L322.868 128.622L324.47 137.762L329.84 138.987L328.803 133.239L360.082 130.506C365.546 130.035 370.822 125.23 372.33 119.482L374.402 111.661C374.779 110.247 374.968 108.928 374.968 107.703C374.968 106.478 374.779 105.253 374.402 104.217C374.12 103.086 373.649 102.144 372.989 101.296Z" fill="#970022"/>
<path d="M320.889 117.22L325.977 116.843L325.6 114.865L319.382 108.645L320.889 117.22ZM338.79 100.73C339.449 101.578 342.087 104.594 342.747 105.442C343.406 106.196 344.16 106.855 345.008 107.421C345.856 107.892 346.892 108.363 347.928 108.551C349.059 108.74 350.189 108.834 351.508 108.74L353.864 108.551L354.9 104.876C355.088 104.028 354.617 103.369 353.864 103.463L347.646 104.028C343.689 104.217 340.674 102.992 338.79 100.73ZM226.488 125.512L230.35 125.135L250.606 49.47L246.649 44.7585L225.357 124.099C225.169 124.947 225.64 125.607 226.488 125.512ZM263.89 97.3381C264.079 96.49 264.927 95.7362 265.775 95.6419L269.543 95.265L270.579 91.5901C270.768 90.7421 270.297 90.0825 269.543 90.1767L261.818 90.8363C260.97 90.9305 260.122 91.6843 259.933 92.5324L257.295 102.332L262.665 101.861L263.89 97.3381ZM82.7188 64.5465L78.7618 59.7409L50.0269 166.973L55.397 166.502L82.7188 64.5465ZM104.482 145.395C103.351 146.902 101.561 148.033 99.8655 148.127L83.8493 149.541C80.2692 149.823 77.2544 148.787 75.3701 146.62L79.0445 151.048C79.7039 151.802 80.4576 152.462 81.3056 153.027C82.1535 153.498 83.1898 153.969 84.2262 154.158C85.3567 154.346 86.4873 154.441 87.8063 154.346L103.822 152.933C105.518 152.744 107.308 151.708 108.439 150.2C109.664 151.519 111.642 152.273 114.28 152.085L124.361 151.237L126.151 149.069L127.658 150.954L144.334 149.446L156.111 105.442L161.387 104.971L162.423 101.296C162.611 100.448 162.14 99.788 161.387 99.8822L152.248 100.73L140.377 144.547L123.701 146.054L125.209 140.495L120.404 146.337L110.323 147.185C107.685 147.468 105.613 146.714 104.482 145.395ZM107.403 109.588L108.439 105.913C108.627 105.065 108.156 104.405 107.403 104.499L81.494 106.761L85.4509 111.472L107.403 109.588Z" fill="#970022"/>
<path d="M91.0096 137.385L94.8724 137.008L96.2855 131.92C96.474 131.072 97.3219 130.318 98.1698 130.224L101.938 129.847L103.352 124.664L94.2129 125.512C93.3649 125.607 92.517 126.36 92.3286 127.208L89.9733 136.066C89.6906 136.82 90.1617 137.479 91.0096 137.385ZM199.166 127.868L203.029 127.491L209.812 102.049C210.001 101.201 210.849 100.447 211.696 100.353L215.465 99.9764L216.878 94.7938L207.739 95.6418C206.892 95.7361 206.044 96.4899 205.855 97.338L198.036 126.455C197.847 127.303 198.318 127.962 199.166 127.868ZM118.331 134.935L122.194 134.558L128.695 110.436C129.072 109.022 129.26 107.703 129.26 106.478C129.26 105.253 129.072 104.028 128.695 102.992C128.318 101.955 127.847 101.013 127.093 100.165C126.434 99.411 123.984 96.4899 123.23 95.6418C125.115 98.0918 125.774 101.672 124.644 105.724L117.201 133.522C117.012 134.37 117.483 135.029 118.331 134.935ZM172.41 130.224L176.272 129.847L182.773 105.724C183.15 104.311 183.338 102.992 183.338 101.767C183.338 100.542 183.15 99.3168 182.773 98.2802C182.396 97.2437 181.925 96.3014 181.171 95.4534C180.512 94.6996 178.062 91.7785 177.309 90.9304C179.193 93.3804 179.852 96.961 178.722 101.013L171.279 128.81C171.091 129.658 171.562 130.318 172.41 130.224Z" fill="#970022"/>
<path d="M355.183 84.3346C355.372 83.4865 356.219 82.7327 357.067 82.6385L377.512 80.8482L380.715 69.0696L348.117 71.8964C344.725 72.1791 341.24 75.4771 340.297 79.152L337.283 90.4595C335.116 98.5631 339.732 104.594 347.552 103.84L353.77 103.275C354.618 103.18 355.089 103.84 354.806 104.688L352.545 112.98C352.357 113.828 351.509 114.582 350.661 114.676L320.795 117.315L319.288 108.646L305.25 140.212L292.72 145.772L50.0273 166.973L78.7623 59.741L48.2373 62.4736L56.6222 70.1061L19.0312 210.318L302.424 160L307.606 189.117L321.643 157.55L352.451 143.981L324.564 137.762L322.962 128.622L359.799 125.418C363.191 125.136 366.677 121.838 367.619 118.163L370.634 106.855C372.801 98.7516 368.184 92.7209 360.365 93.3805L354.147 93.9459C353.299 94.0401 352.828 93.3805 353.11 92.5325L355.183 84.3346Z" fill="white"/>
<path d="M283.487 71.7079C296.859 71.7079 307.699 60.8657 307.699 47.4911C307.699 34.1166 296.859 23.2744 283.487 23.2744C270.114 23.2744 259.274 34.1166 259.274 47.4911C259.274 60.8657 270.114 71.7079 283.487 71.7079Z" fill="white"/>
<path d="M268.79 28.1742C246.555 18.6571 220.27 13.0977 192.006 13.0977C181.831 13.0977 171.939 13.8515 162.423 15.1707C200.674 16.8668 234.873 28.7396 259.274 46.9257C259.462 39.2932 263.137 32.5087 268.79 28.1742ZM333.42 84.7113L336.529 72.9328L306.946 75.5712C303.554 75.8538 300.068 79.1518 299.126 82.8268L289.14 120.141L253.244 123.251C252.396 123.345 251.925 122.685 252.208 121.837L254.846 112.038L282.262 109.682L287.067 91.6842C289.234 83.5806 284.617 77.5499 276.798 78.2095L252.962 80.2826C249.57 80.5653 246.084 83.8633 245.142 87.5382L235.909 122.026C235.627 122.968 235.532 123.91 235.438 124.853L226.676 125.606C225.828 125.701 225.357 125.041 225.64 124.193L246.932 44.8527L219.516 47.3026L227.901 54.9351L220.364 83.2037L199.072 85.0882C195.68 85.3709 192.194 88.6689 191.252 92.3438L182.019 126.831C181.737 127.774 181.643 128.716 181.548 129.658L172.787 130.412C171.939 130.506 171.468 129.847 171.75 128.999L179.193 101.201C181.36 93.0977 176.743 87.067 168.924 87.7266L139.058 90.365L127.282 134.37L118.708 135.124C117.86 135.218 117.389 134.558 117.672 133.71L125.115 105.913C127.282 97.8091 122.665 91.7785 114.846 92.4381L84.9801 95.0765L81.7768 106.855L107.685 104.594C108.533 104.499 109.004 105.159 108.722 106.007L106.272 115.241L85.1685 117.126C81.7768 117.409 78.1967 120.518 77.2546 124.099L74.0514 136.254C71.8845 144.358 76.5009 150.389 84.3206 149.729L100.337 148.316C102.033 148.127 103.823 147.091 104.953 145.583C106.178 146.902 108.156 147.656 110.794 147.468L120.875 146.619L125.68 140.777L124.173 146.337L140.848 144.829L152.625 100.824L161.764 99.9763C162.612 99.8821 163.083 100.542 162.8 101.39L155.357 129.187C153.19 137.291 157.807 143.321 165.626 142.662L174.765 141.814L181.737 133.239C182.773 137.856 186.73 140.683 192.289 140.212L208.305 138.798C210.001 138.61 211.791 137.574 212.921 136.066C214.146 137.385 216.124 138.139 218.762 137.95L228.843 137.102L235.815 128.528C236.851 133.145 240.808 135.972 246.367 135.5L282.921 132.297L287.726 126.36L286.219 131.92L302.895 130.412L314.294 87.9151C314.483 87.067 315.331 86.3132 316.179 86.219L333.42 84.7113ZM259.934 92.6265C260.122 91.7785 260.97 91.0246 261.818 90.9304L269.543 90.2708C270.391 90.1766 270.862 90.8362 270.58 91.6842L267.942 101.484L257.296 102.426L259.934 92.6265ZM100.525 135.029C100.337 135.877 99.4888 136.631 98.6409 136.725L90.9155 137.385C90.0676 137.479 89.5965 136.82 89.8791 135.972L92.2345 127.114C92.4229 126.266 93.2708 125.512 94.1187 125.418L103.257 124.57L100.525 135.029ZM208.682 125.606C208.493 126.455 207.645 127.208 206.797 127.303L199.072 127.962C198.224 128.056 197.753 127.397 198.036 126.549L205.855 97.4322C206.044 96.5841 206.892 95.8303 207.74 95.7361L216.878 94.888L208.682 125.606Z" fill="white"/>
<path d="M87.4295 143.416C83.0957 143.793 80.5519 140.495 81.7767 135.972L84.6031 125.512C84.8857 124.382 85.6394 123.345 86.4874 122.591L79.8925 119.199C78.4793 120.424 77.3487 122.12 76.8776 123.91L73.6744 136.066C71.5075 144.17 76.1239 150.2 83.9436 149.541L99.9598 148.127C101.656 147.939 103.446 146.902 104.576 145.395C105.801 146.714 107.779 147.468 110.417 147.279L120.31 146.431L118.049 140.872L87.4295 143.416ZM145.465 95.3593L138.681 90.1767L123.701 146.054L140.377 144.547L133.594 139.364L145.465 95.3593ZM219.328 47.2085L227.713 54.7468L220.081 83.1096L226.865 88.2921L236.663 51.7315L219.328 47.2085ZM275.007 105.536L247.686 107.892L254.752 111.943L282.168 109.588L275.007 105.536ZM302.141 77.8328C300.728 79.152 299.597 80.8481 299.126 82.7326L285.936 131.826L302.612 130.318L295.829 125.135L306.475 85.2768C306.757 84.1461 307.511 83.1096 308.359 82.2615L302.141 77.8328ZM311.468 80.8481C310.432 80.9423 309.395 81.5077 308.453 82.2615L314.765 86.6902C315.142 86.4076 315.519 86.2191 315.896 86.1249L333.419 84.6172L328.144 79.3404L311.468 80.8481ZM172.127 136.066L168.829 136.349C164.496 136.726 161.952 133.428 163.177 128.905L170.62 101.107C171.844 96.6785 169.301 93.2862 164.967 93.6632L145.465 95.3593L152.248 100.542L161.387 99.6938C162.235 99.5995 162.706 100.259 162.423 101.107L154.98 128.905C152.813 137.008 157.43 143.039 165.249 142.379L174.388 141.531L172.127 136.066Z" fill="#D5D5D6"/>
<path d="M112.961 119.199L89.408 121.272C88.3717 121.366 87.2411 121.932 86.3932 122.686L92.9881 126.078C93.3649 125.795 93.7418 125.607 94.1187 125.512L103.257 124.664L100.525 135.029C100.431 135.406 100.148 135.878 99.7714 136.16L104.671 141.908C105.895 141.814 107.12 140.683 107.403 139.458L112.961 119.199ZM110.889 98.3746L89.8791 100.165L84.6031 94.8881L81.3999 106.667L107.308 104.405C108.156 104.311 108.627 104.971 108.345 105.819L105.895 115.053L112.961 119.105L116.541 105.724C117.766 101.39 115.222 97.9977 110.889 98.3746ZM273.123 84.2403L257.39 85.6537C256.353 85.748 255.317 86.3133 254.375 87.0672L260.687 91.4959C261.064 91.2132 261.441 91.0248 261.818 90.9305L269.543 90.2709C270.391 90.1767 270.862 90.8363 270.58 91.6844L267.942 101.484L275.008 105.536L278.776 91.5901C280.001 87.1614 277.457 83.8634 273.123 84.2403ZM372.235 75.5713L352.545 77.2674C351.508 77.3616 350.472 77.927 349.53 78.6808L355.842 83.1096C356.219 82.8269 356.596 82.6384 356.973 82.5442L377.417 80.7539L372.235 75.5713Z" fill="#D5D5D6"/>
<path d="M343.312 74.252L349.624 78.6807C348.776 79.5287 348.023 80.5653 347.74 81.696L345.102 91.4958C343.877 95.9245 346.421 99.3167 350.755 98.9398L356.973 98.3744C361.307 97.9975 363.85 101.296 362.626 105.819L359.988 115.618C359.705 116.749 358.951 117.786 358.103 118.634L351.791 114.205C352.168 113.922 352.356 113.545 352.545 113.074L354.806 104.782C354.994 103.934 354.523 103.274 353.77 103.369L347.552 103.934C339.732 104.594 335.115 98.6571 337.282 90.5535L340.297 79.1518" fill="#D5D5D6"/>
<path d="M358.198 118.539C357.35 119.388 356.219 119.859 355.183 119.953L327.202 122.403L320.795 117.22L322.774 128.622L359.611 125.418C361.307 125.23 363.003 124.382 364.416 123.062L358.198 118.539ZM226.205 131.26L195.586 133.899C191.252 134.276 188.709 130.978 189.933 126.455L198.413 94.6997C198.695 93.5689 199.449 92.5324 200.297 91.6844L193.985 87.2556C192.571 88.5748 191.441 90.2709 190.97 92.1555L181.737 126.643C179.57 134.747 184.186 140.777 192.006 140.118L208.022 138.704C209.718 138.516 211.508 137.479 212.639 135.972C213.864 137.291 215.842 138.045 218.48 137.856L228.561 137.008L226.205 131.26ZM280.284 126.549L249.664 129.187C245.331 129.564 242.787 126.266 244.012 121.743L252.491 89.9882C252.773 88.8575 253.527 87.821 254.375 86.9729L248.063 82.5442C246.65 83.8634 245.519 85.5595 245.048 87.4441L235.815 121.932C233.648 130.035 238.265 136.066 246.084 135.406L282.639 132.203L280.284 126.549Z" fill="#D5D5D6"/>
<path d="M302.424 160L288.951 156.985L31.9384 198.445L66.9856 67.4675L48.2373 62.4734L56.6222 70.1059L19.0312 210.318L302.424 160Z" fill="#D5D5D6"/>
<path d="M203.312 90.3652C202.275 90.4595 201.239 91.0248 200.297 91.7787L206.609 96.2074C206.986 95.9247 207.363 95.7363 207.74 95.642L216.878 94.794L208.682 125.418C208.588 125.795 208.305 126.266 207.928 126.549L212.827 132.297C214.052 132.203 215.277 131.072 215.559 129.847L226.771 88.1038L203.312 90.3652Z" fill="#D5D5D6"/>
<path d="M320.984 141.343L317.498 121.555L307.982 142.945L293.285 149.446L44.0918 177.432L53.3247 185.819L291.495 153.215L306.004 156.419L309.49 176.207L319.005 154.817L339.921 145.583L320.984 141.343Z" fill="#FAC109"/>
<path d="M315.331 136.066L317.78 144.546L325.882 147.279L316.65 152.273L311.656 161.696L309.207 153.121L301.104 150.389L310.337 145.489L315.331 136.066Z" fill="#004537"/>
<path d="M264.173 32.7916C252.491 27.986 239.866 24.311 226.582 22.0496C238.924 26.8552 250.324 32.8858 260.404 40.0472C261.252 37.4088 262.571 34.9589 264.173 32.7916Z" fill="#FAC109"/>
<path d="M288.763 64.3582C276.515 64.3582 266.623 54.4642 266.623 42.2145C266.623 35.0531 270.014 28.6456 275.29 24.5938C265.963 27.986 259.274 36.9377 259.274 47.397C259.274 60.7775 270.108 71.6138 283.487 71.6138C293.944 71.6138 302.895 64.9236 306.286 55.5949C302.235 60.966 295.923 64.3582 288.763 64.3582Z" fill="#D5D5D6"/>
<path d="M289.611 55.7833L288.197 52.5795L287.161 53.8045L288.386 56.6313L287.444 57.6678L291.024 59.0813L291.966 57.9505L288.857 56.6313L289.611 55.7833ZM293.002 52.4853L292.343 49.093L291.024 50.1295L291.683 53.0506L290.553 53.9929L293.756 56.0659L294.981 55.1237L292.154 53.2391L293.002 52.4853ZM297.053 50.0353L296.959 46.5489L295.64 47.2085V50.318L294.321 50.9776L297.053 53.616L298.467 52.8622L296.017 50.5065L297.053 50.0353ZM301.481 48.3392L302.141 44.947L300.633 45.3239L300.068 48.3392L298.655 48.7161L300.728 51.8257L302.235 51.4487L300.351 48.6219L301.481 48.3392ZM306.192 47.5854L307.417 44.3816L305.909 44.4758L304.779 47.3027L303.271 47.3969L304.779 50.8834L306.286 50.7892L305.061 47.6796L306.192 47.5854ZM286.878 59.6466L284.9 56.8198L284.146 58.2332L285.842 60.6831L285.183 62.0023L288.857 62.6619L289.611 61.2485L286.313 60.6831L286.878 59.6466ZM284.994 63.9811L282.45 61.6254L281.979 63.1331L284.24 65.2061L283.769 66.6195L287.538 66.5253L288.009 65.0177L284.617 65.1119L284.994 63.9811ZM283.958 68.5983L281.037 66.808L280.849 68.3157L283.393 69.9175L283.298 71.4252L286.973 70.5771L287.161 69.0695L283.864 69.7291L283.958 68.5983ZM279.247 36.4664L275.761 35.053L274.819 36.278L277.928 37.5972L277.174 38.4452L278.588 41.5548L279.624 40.424L278.305 37.5972L279.247 36.4664ZM273.029 38.1625L271.804 39.1048L274.631 40.9894L273.689 41.649L274.442 45.0412L275.667 44.0989L275.008 41.0836L276.232 40.2356L273.029 38.1625ZM269.732 40.6125L268.318 41.2721L270.768 43.722L269.732 44.1932V47.6796L271.145 46.9258V43.9105L272.464 43.2509L269.732 40.6125ZM266.057 42.3086L264.456 42.7797L266.34 45.6066L265.304 45.8893L264.644 49.2815L266.152 48.9046L266.717 45.8893L268.13 45.5124L266.057 42.3086ZM262.289 43.3451L260.687 43.4393L262.006 46.5489L260.876 46.6431L259.557 49.8469L261.158 49.7526L262.289 46.9258L263.702 46.8316L262.289 43.3451ZM281.885 37.4087L282.639 35.9953L280.849 33.5453L281.602 32.2261L277.928 31.5665L277.08 32.8857L280.472 33.5453L279.907 34.5818L281.885 37.4087ZM281.697 30.53L284.24 32.98L284.712 31.4723L282.45 29.305L282.921 27.9859H279.153L278.682 29.4935H282.074L281.697 30.53ZM282.827 26.1955L285.748 27.9859L285.936 26.4782L283.298 24.8763L283.487 23.3687L279.812 24.2167L279.624 25.7244L282.921 25.0648L282.827 26.1955Z" fill="#CF0022"/>
<path d="M93.9302 70.7655L97.8871 65.9599C100.619 68.2214 103.54 69.729 107.026 69.729C109.758 69.729 111.454 68.5983 111.454 66.8079V66.7137C111.454 65.0176 110.417 64.1695 105.236 62.8503C99.0177 61.2485 95.0607 59.5523 95.0607 53.4275V53.3333C95.0607 47.7738 99.4887 44.0989 105.801 44.0989C110.229 44.0989 114.092 45.5123 117.201 47.9622L113.715 53.0506C110.983 51.166 108.345 50.0353 105.707 50.0353C103.163 50.0353 101.75 51.2602 101.75 52.6737V52.7679C101.75 54.7467 103.069 55.4063 108.345 56.8197C114.563 58.4216 118.049 60.6831 118.049 66.0541V66.1483C118.049 72.2732 113.432 75.6654 106.743 75.6654C102.315 75.6654 97.6045 74.0635 93.9302 70.7655ZM120.121 70.7655L124.078 65.9599C126.811 68.2214 129.731 69.729 133.217 69.729C135.949 69.729 137.645 68.5983 137.645 66.8079V66.7137C137.645 65.0176 136.609 64.1695 131.427 62.8503C125.209 61.2485 121.252 59.5523 121.252 53.4275V53.3333C121.252 47.7738 125.68 44.0989 131.992 44.0989C136.42 44.0989 140.283 45.5123 143.392 47.9622L139.906 53.0506C137.174 51.166 134.536 50.0353 131.898 50.0353C129.26 50.0353 127.941 51.2602 127.941 52.6737V52.7679C127.941 54.7467 129.26 55.4063 134.536 56.8197C140.754 58.4216 144.24 60.6831 144.24 66.0541V66.1483C144.24 72.2732 139.623 75.6654 132.934 75.6654C128.506 75.6654 123.796 74.0635 120.121 70.7655ZM147.066 59.9293C147.066 51.166 153.85 44.0046 163.177 44.0046C168.735 44.0046 172.033 45.5123 175.236 48.2449L170.996 53.3333C168.641 51.3545 166.568 50.2237 162.988 50.2237C158.089 50.2237 154.226 54.5582 154.226 59.7408V59.835C154.226 65.4887 158.089 69.5406 163.554 69.5406C166.003 69.5406 168.17 68.881 169.866 67.656V63.2273H162.988V57.3851H176.272V70.6713C173.163 73.3097 168.735 75.5712 163.177 75.5712C153.661 75.7596 147.066 69.0694 147.066 59.9293Z" fill="white"/>
</g>
<defs>
<clipPath id="clip0_121_400">
<rect width="407" height="240" fill="white"/>
</clipPath>
</defs>
</svg>
