<svg width="32" height="32" viewBox="0 0 32 32" fill="none" xmlns="http://www.w3.org/2000/svg">
<g clip-path="url(#clip0_121_778)">
<mask id="mask0_121_778" style="mask-type:luminance" maskUnits="userSpaceOnUse" x="-10" y="-142" width="182" height="200">
<path d="M-9.1333 -141.69H171.833V57.3738H-9.1333V-141.69Z" fill="white"/>
</mask>
<g mask="url(#mask0_121_778)">
<path d="M28.4208 14.2556C29.0726 14.3552 29.6315 14.6147 29.997 14.9984C30.1568 15.1626 30.2819 15.3573 30.3648 15.5709C30.4477 15.7845 30.4866 16.0127 30.4793 16.2417C30.4755 16.4504 30.4406 16.6574 30.3759 16.8558L31.2317 16.0004L30.4251 15.1937L28.168 12.9363C28.3474 13.462 28.4067 13.9239 28.4208 14.2556Z" fill="#1A1B2E"/>
<path d="M13.1265 24.324C12.7875 24.2073 12.4562 24.0695 12.1344 23.9115C12.0595 24.11 12.0061 24.3159 11.9751 24.5257C12.3608 24.47 12.7448 24.4027 13.1265 24.324Z" fill="#1A1B2E"/>
<path d="M1.98792 15.9984L1.64541 15.4915C1.59528 15.4176 1.54862 15.3413 1.5056 15.263L0.768555 16.0004L3.07385 18.306L3.33177 14.653L1.98792 15.9984Z" fill="#1A1B2E"/>
<path d="M23.9993 19.669C23.4317 20.9006 22.5884 21.9851 21.5347 22.8387C22.5418 22.9281 23.2743 23.2224 23.7461 23.486L26.2429 20.9892L28.7398 18.4921C27.5763 19.1005 25.895 19.427 23.9993 19.669Z" fill="#1A1B2E"/>
<path d="M7.78559 19.1739C7.31444 19.3801 6.75647 19.5236 6.11168 19.6045L4.55811 19.7906L8.13703 23.3692C8.30525 22.6727 8.61456 22.0167 9.05762 21.4141C8.52497 20.7345 8.09627 19.9795 7.78559 19.1739Z" fill="#1A1B2E"/>
<path d="M19.5661 27.666C18.5712 27.7723 17.5548 28.0778 16.4615 28.4078C15.6147 28.6635 14.7503 28.9237 13.8594 29.0916L16 31.2325L19.5661 27.666Z" fill="#1A1B2E"/>
<path d="M30.3762 16.8562C30.4405 16.6573 30.4754 16.45 30.4796 16.241C30.4914 15.7721 30.3245 15.3418 29.9973 14.9984C29.6315 14.6144 29.0732 14.3539 28.4211 14.2556C28.4 13.806 28.3147 13.3618 28.1679 12.9363L31.232 15.9997L30.3762 16.8562ZM23.746 23.486C23.2745 23.2217 22.5419 22.9277 21.5349 22.8384C22.5884 21.9848 23.4316 20.9004 23.9991 19.669C25.8952 19.427 27.5764 19.0998 28.7403 18.4921L23.746 23.486ZM18.5781 7.57973C19.4664 7.37544 20.1243 7.25542 20.6066 7.18679L20.6056 7.18807C21.7506 7.02527 22.1343 7.1587 22.1343 7.1587C22.1343 7.1587 22.0488 6.4756 20.6781 6.66681C20.2402 6.72809 19.6468 6.74022 16.139 7.6956L16.0177 7.72529C15.9915 7.73167 15.9653 7.73806 15.9389 7.74444C15.7507 7.79062 15.5622 7.83659 15.3732 7.88234C15.0397 7.96317 14.7053 8.04021 14.37 8.11344L14.2104 8.14887C13.8425 8.2279 13.473 8.29889 13.1021 8.36178L12.946 8.38668C12.3223 8.48404 11.7155 8.54469 11.1374 8.54469L11.1131 8.54437C11.0555 8.54437 10.9985 8.54341 10.9424 8.54149C10.9311 8.54107 10.9198 8.54043 10.9085 8.53958C10.8564 8.53809 10.8048 8.53607 10.7537 8.53352L10.7451 8.53288C8.89784 8.42148 8.01556 7.55547 8.01524 7.55547L8.0162 7.55483C8.01684 7.5542 8.01918 7.55302 8.02322 7.55132L8.04461 7.53696C8.05184 7.53206 8.06046 7.52642 8.07046 7.52004L8.08674 7.50919L8.13367 7.47727L8.1675 7.4546C8.1841 7.44354 8.20187 7.43141 8.22081 7.41821C8.29518 7.3665 8.38488 7.30266 8.48383 7.23052L8.53746 7.1903C8.82826 6.97292 9.17842 6.68659 9.41527 6.40952C9.22471 5.91827 9.13086 5.39477 9.08617 5.04301C9.08192 5.01109 9.07819 4.98044 9.075 4.95108C9.06904 4.89787 9.06404 4.85042 9.06 4.80871C9.05659 4.7719 9.05393 4.74051 9.05202 4.71455L9.0517 4.70976L9.04659 4.63251L9.0201 4.08125L9.52891 4.29415C9.58765 4.31862 9.64638 4.34182 9.70511 4.36374C9.72171 4.37012 9.7382 4.3764 9.75459 4.38257C9.80098 4.39939 9.84727 4.41567 9.89344 4.43141L9.9343 4.44578C9.99282 4.46514 10.051 4.48344 10.1089 4.50068C10.1207 4.50451 10.1325 4.50675 10.1443 4.51058C10.192 4.5242 10.2396 4.53728 10.287 4.54984C10.3036 4.55452 10.3201 4.55867 10.3365 4.56229C10.452 4.59124 10.5684 4.61679 10.6854 4.6389C10.7008 4.64099 10.7161 4.64366 10.7314 4.64688C10.7771 4.65475 10.8228 4.66199 10.8683 4.66858L10.912 4.67592C10.9698 4.68358 11.0269 4.69188 11.085 4.69763C11.0938 4.69869 11.1025 4.69965 11.1112 4.7005C11.161 4.70603 11.2104 4.71072 11.2593 4.71455L11.3088 4.71838C11.3573 4.72199 11.4058 4.72497 11.4544 4.72731L11.4837 4.72923C11.541 4.73157 11.5981 4.73317 11.6551 4.73402L11.6995 4.73434L11.7713 4.73529L11.808 4.73466L11.9731 4.73242L12.034 4.73051C12.1221 4.7264 12.2101 4.72119 12.298 4.71487C12.3597 4.7104 12.4211 4.70508 12.4822 4.69891L12.5543 4.69124C12.6071 4.68592 12.66 4.67975 12.713 4.67273L12.7845 4.66379C12.8475 4.65486 12.9106 4.6456 12.9738 4.63602C12.9855 4.63453 12.997 4.63272 13.0082 4.63059C13.0832 4.61889 13.158 4.60612 13.2326 4.59229C13.2529 4.58846 13.2734 4.58463 13.2943 4.5808C13.3496 4.57059 13.405 4.55963 13.4606 4.54792C13.4848 4.54303 13.5092 4.53813 13.5337 4.53324L13.6987 4.49717C13.7198 4.49291 13.7406 4.48823 13.7613 4.48312C13.8364 4.46674 13.9116 4.44907 13.9869 4.43013C13.994 4.42843 14.0011 4.42684 14.0083 4.42535C14.0764 4.40811 14.1447 4.39087 14.2132 4.37364C14.2367 4.36725 14.2603 4.36097 14.2841 4.3548L14.4459 4.31171C14.47 4.30533 14.494 4.29884 14.5181 4.29224C14.5783 4.27585 14.6386 4.25894 14.6991 4.24149C14.7144 4.23766 14.7297 4.23329 14.745 4.2284C14.8208 4.20776 14.8966 4.18605 14.9723 4.16328C14.9927 4.15817 15.0132 4.15115 15.0336 4.14604C15.0904 4.12944 15.1475 4.11242 15.2047 4.09497C15.2315 4.08752 15.2581 4.07954 15.2845 4.07103L15.4479 4.02283C15.472 4.0156 15.4959 4.00847 15.5198 4.00144L15.7231 3.93983C15.7284 3.93792 15.734 3.93632 15.74 3.93505C15.8687 3.89547 15.9979 3.85642 16.1275 3.8179L16.2571 3.77928L16.6191 3.67362C16.6723 3.65808 16.7258 3.64308 16.7797 3.62861C16.8231 3.61584 16.8667 3.60339 16.9105 3.59126C17.9173 3.31292 18.949 3.09203 20.0078 3.09203C20.7407 3.09203 21.3835 3.29568 21.8611 3.65191C21.966 3.73034 22.0642 3.81736 22.1547 3.91207C22.3786 4.147 22.5452 4.43048 22.6415 4.7404C22.7274 4.80616 22.8273 4.88819 22.9272 4.9897C22.9715 5.03545 23.015 5.08504 23.0578 5.13845C23.2608 5.39382 23.4319 5.74622 23.4354 6.23492C23.4354 6.48677 23.3805 6.74022 23.2764 6.98314C23.198 7.16469 23.0993 7.33678 22.9821 7.4961C22.9466 7.54497 22.9093 7.59256 22.8704 7.63878L26.2182 10.986L24.876 11.1587L24.7959 11.4989C24.7946 11.5034 24.717 11.8325 24.5909 12.2902L23.4785 11.3527C23.0795 10.7128 22.5999 10.1267 22.0516 9.60892C21.0668 8.67228 19.8776 7.97758 18.5781 7.57973ZM16.0002 31.2316L13.8596 29.0913C14.7501 28.924 15.6142 28.6626 16.4617 28.4075C17.555 28.0775 18.571 27.7714 19.5663 27.6654L16.0002 31.2316ZM11.9747 24.5251C12.0062 24.3152 12.0592 24.1107 12.1339 23.9115C12.4559 24.0695 12.7875 24.2073 13.1267 24.324C12.7448 24.4029 12.3607 24.47 11.9747 24.5251ZM10.6362 9.01966C10.0853 9.44506 9.58601 9.93335 9.14842 10.4746C9.05585 10.3434 8.95243 10.2157 8.83815 10.0954C8.48894 9.72734 8.05514 9.43048 7.55399 9.2147L8.33923 8.42945C8.86401 8.71036 9.60744 8.95838 10.6369 9.01966H10.6362ZM8.1375 23.3686L4.55857 19.79L6.11182 19.6039C6.75704 19.5228 7.31501 19.3795 7.78573 19.1739C8.09657 19.9793 8.52537 20.7341 9.05808 21.4134C8.61471 22.0167 8.3054 22.6727 8.1375 23.3686ZM16.0002 0.768854L18.044 2.8124H18.0447C17.2087 2.97903 16.396 3.22514 15.598 3.4655C14.5542 3.77991 13.5554 4.08092 12.5732 4.19584L16.0002 0.768854ZM3.07395 18.3057L0.768328 15.9997L1.50569 15.263C1.55421 15.3498 1.60071 15.4261 1.64518 15.4919L1.98737 15.9981L3.33186 14.653L3.07395 18.3057ZM32 15.9997L31.616 15.6154L23.5439 7.54334C23.7249 7.25159 23.9263 6.80023 23.9263 6.23428V6.23141C23.9222 5.73632 23.7671 5.03024 23.0578 4.44354C22.8528 3.90345 22.4733 3.4473 21.9568 3.12331C21.4123 2.78144 20.7388 2.60173 20.0078 2.60173C19.5699 2.60298 19.1327 2.6353 18.6994 2.69845L16.3845 0.38389L16.0002 -0.000112534L15.6158 0.38389L11.7554 4.24468C10.1913 4.23893 8.49277 3.33015 8.49245 3.32952C8.49245 3.33015 8.4069 4.9198 8.85252 6.28695C8.42638 6.6751 7.22074 7.44471 7.2201 7.44534C7.2201 7.44534 7.39343 7.77381 7.87128 8.13196L7.86936 8.13068L6.9874 9.01264C6.76201 8.9475 6.53252 8.89748 6.30047 8.86294C3.97219 8.51181 1.56762 10.1382 1.15297 12.3432C0.958573 13.3768 1.077 14.1672 1.27044 14.7299L0.384324 15.6154L0 15.9997L0.384324 16.384L3.02287 19.0232L2.95552 19.9821L3.8726 19.872L8.02258 24.0217C8.00641 24.1621 7.99588 24.3032 7.99098 24.4449C7.9498 25.64 8.28337 26.6385 8.98307 27.4158C9.41113 28.548 10.5992 29.272 12.0478 29.272C12.4359 29.272 12.819 29.2451 13.1966 29.1963L15.6158 31.6159L16.0002 31.9999L16.3845 31.6159L20.3736 27.6264C21.0464 27.6336 21.7115 27.7711 22.3319 28.0315L23.5774 28.5518L23.5126 27.2029C23.5079 27.1097 23.4638 26.3567 23.2177 25.5743C23.663 25.1475 24.3046 24.7335 24.3119 24.7287L24.8402 24.3907L24.3968 23.9473C24.3863 23.9374 24.325 23.8764 24.2114 23.7896L31.616 16.384L32 15.9997Z" fill="white"/>
<path d="M4.04136 11.7722L3.50158 19.4088L6.04948 19.1043C8.07164 18.8512 8.89168 17.9801 9.1014 16.9126C9.45922 14.991 7.62156 14.4742 7.62156 14.4742C7.62156 14.4742 9.18375 13.921 9.20131 12.1747C9.20354 11.0025 8.24656 9.66636 6.22536 9.36183C4.09754 9.04071 2.00164 10.5582 1.64892 12.4367C1.39323 13.7956 1.72776 14.7127 2.06292 15.2097L3.31836 13.9523C2.58387 11.8539 4.26001 10.66 5.89849 10.8844C7.04125 11.0466 7.45653 11.7865 7.4776 12.4393C7.49963 13.1166 7.12105 13.787 6.40124 13.9645C6.21642 14.0107 5.97127 14.0075 5.97127 14.0075L5.90105 15.0772C5.90105 15.0772 6.19567 15.0609 6.36549 15.0916C6.96623 15.1956 7.49962 15.7584 7.34162 16.5985C7.21298 17.2842 6.77184 17.7199 5.97095 17.7857C5.75306 17.8061 5.53554 17.8304 5.3185 17.8584L5.7657 11.4664L4.04136 11.7722Z" fill="#1A1B2E"/>
<path d="M27.9052 14.7162C27.9052 14.7162 28.1484 13.0477 26.6995 11.4332L25.2864 11.6145C25.2864 11.6145 24.3901 15.4175 23.6779 15.4833C22.8787 15.5835 23.1774 13.741 23.7051 12.2034L23.3083 11.8689L21.5105 12.1003C21.5105 12.1003 21.4125 11.8102 21.6172 11.3237C21.6172 11.3237 20.1246 11.4855 20.1067 11.483C19.9286 12.0205 19.8919 12.7866 20.4275 13.3076C20.2516 14.2017 19.7766 16.138 19.091 16.2353C18.2639 16.3391 18.8714 14.1171 19.3929 12.3547L17.8898 12.5475L17.7813 13.0666C17.5348 12.7292 17.1374 12.5057 16.5648 12.5795C15.5044 12.7158 14.6879 13.7758 14.3568 14.9853C13.9336 15.9981 13.2655 16.9376 12.229 17.0534C10.3872 17.2098 10.6512 14.6297 11.8013 14.4513C12.5131 14.3842 12.4633 15.4632 11.56 15.4504L11.6139 16.272C12.9319 16.5807 13.5601 15.6406 13.6527 14.8876C13.7638 13.9833 13.0481 13.0449 11.5871 13.1971C8.40494 13.5601 8.5355 18.8719 12.3229 18.4388C13.2438 18.3334 13.9093 17.7586 14.3801 17.0898C14.6352 17.6893 15.1711 18.0656 16.0627 17.9514C16.7024 17.869 16.9395 17.4011 16.9395 17.4011L16.7716 16.3531C16.2411 16.6781 15.5526 16.3815 15.8463 15.113C15.9462 14.6549 16.2379 14.0606 16.7397 13.9983C17.5329 13.9338 17.2246 15.1839 17.2246 15.1839C16.9647 16.6085 17.4563 17.7898 19.0405 17.5862C20.9002 17.3471 21.515 13.5368 21.515 13.5368L22.1011 13.4617C21.554 15.5714 21.8377 17.2264 23.3482 17.0324C25.123 16.8045 26.086 12.8802 26.086 12.8802C26.4828 13.5186 26.6009 14.2748 26.6331 14.7536C26.169 14.857 25.7416 15.0207 25.4128 15.2372L25.4163 15.4223C25.4355 16.5801 26.8588 17.2 27.638 15.7674L27.6367 15.7725C28.2716 15.5972 28.9752 15.7958 28.8826 16.3177C28.5726 18.0612 22.4206 17.4933 16.8789 18.1885C12.3238 18.759 8.6153 20.9477 8.49528 24.4619C8.45282 25.6914 8.85215 26.5492 9.42385 27.1493C9.74752 28.1382 10.7572 28.7679 12.0471 28.7679C13.5202 28.7679 14.9413 28.3399 16.3152 27.9246C18.4267 27.2881 20.4211 26.6864 22.5263 27.5661L23.0347 27.7784L23.0083 27.2275C23.0063 27.1856 22.9585 26.2721 22.6396 25.4498C23.1139 24.8973 24.0399 24.3039 24.0399 24.3039C24.0399 24.3039 23.0328 23.315 20.9178 23.315C19.3763 23.315 17.6284 23.7443 15.9162 24.1647C13.653 24.7871 12.2712 25.023 11.4374 25.0958C11.3282 22.0388 14.9193 20.1539 19.2633 19.6703C23.0146 19.2518 26.9412 19.0564 28.8136 17.869C29.4776 17.4477 29.9558 16.9877 29.9752 16.2283C29.9992 15.2946 29.0486 14.7427 27.9052 14.7162Z" fill="#1A1B2E"/>
<path d="M12.7955 26.7072V26.3075C12.9909 26.296 13.0886 26.2855 13.2836 26.2577V26.4164C13.3813 26.4026 13.4301 26.3947 13.5275 26.3771L13.5291 25.9506H13.5278C13.4304 25.9685 13.3816 25.9762 13.2836 25.9905V26.1154L13.1537 26.0084C12.9983 26.0288 12.842 26.0416 12.6854 26.0467C12.6152 26.1192 12.5801 26.1553 12.5102 26.2261V26.8064C12.5762 26.8735 12.6094 26.907 12.6755 26.9721C12.9037 26.9641 13.0183 26.9533 13.2472 26.922V27.3315C13.0827 27.3559 12.917 27.3717 12.7508 27.3788V27.2185C12.6691 27.2227 12.5872 27.2246 12.5054 27.2243L12.5086 27.6514C12.6046 27.6514 12.6528 27.6501 12.7496 27.645V27.5036C12.8048 27.5578 12.8329 27.5843 12.8891 27.6367C13.0761 27.6223 13.1703 27.6115 13.3573 27.5824C13.4276 27.5017 13.4623 27.4602 13.5326 27.3772V26.7876C13.4665 26.7311 13.4333 26.7024 13.3675 26.6446C13.1782 26.6762 12.9872 26.6971 12.7955 26.7072Z" fill="white"/>
<path d="M16.3217 26.53L15.8007 26.6842L15.8014 25.6212C16.0098 25.5602 16.1139 25.5299 16.322 25.4699L16.3217 26.53ZM15.6887 25.3844C15.6175 25.4769 15.5818 25.5232 15.5106 25.6167L15.5103 26.8594C15.5811 26.9114 15.6169 26.9367 15.6884 26.9877C15.9865 26.8993 16.1356 26.854 16.4344 26.7662L16.6121 26.5341L16.6125 25.2985C16.5413 25.2465 16.5059 25.22 16.4347 25.1683C16.1362 25.2532 15.9871 25.2975 15.6887 25.3844Z" fill="white"/>
<path d="M17.7735 25.084L17.9047 25.0549C17.9047 25.475 17.9047 25.6876 17.9041 26.1067C17.7199 26.1479 17.6276 26.1705 17.4431 26.2175L17.4435 25.1619C17.4955 25.1488 17.5217 25.1427 17.5743 25.1306V24.8672C17.389 24.9108 17.2043 24.9574 17.0205 25.007V25.2707C17.0735 25.2563 17.0997 25.2493 17.1527 25.2356L17.1523 26.3828L17.3305 26.5146C17.605 26.4425 17.7422 26.4087 18.0167 26.349L18.1949 26.1332L18.1952 24.9959C18.2479 24.9847 18.2743 24.9802 18.3273 24.971V24.7089C18.1417 24.7416 17.9571 24.7793 17.7735 24.8219V25.084Z" fill="white"/>
<path d="M13.9873 25.8555V26.1249C14.0713 26.1054 14.1131 26.0952 14.1967 26.0748L14.1964 27.1403C14.1128 27.1614 14.0709 27.1713 13.9873 27.1911V27.4601C14.4198 27.3612 14.6362 27.2961 15.0688 27.1687V26.74L14.8332 26.8083V26.9743C14.6947 27.0139 14.6257 27.0337 14.4875 27.0714V26.6449C14.6669 26.5957 14.7569 26.5702 14.9363 26.5182L14.9366 26.3152C14.7874 26.3591 14.6377 26.4014 14.4875 26.4419V25.9918C14.626 25.9541 14.695 25.9343 14.8332 25.8951V26.0592L15.0691 25.9915L15.0694 25.5637L15.0643 25.5657C14.6337 25.6902 14.4186 25.755 13.9873 25.8555Z" fill="white"/>
<path d="M9.94562 26.6992L9.9935 26.7429L10.0091 26.8058C10.0896 27.1343 10.4758 28.2068 12.0476 28.2068C13.4374 28.2068 14.8183 27.7899 16.1535 27.3871C18.1658 26.7799 20.2441 26.1533 22.4163 26.9217C22.3812 26.6389 22.3107 26.2143 22.1712 25.8038C22.133 25.6906 22.0891 25.5793 22.0397 25.4706L21.9822 25.3458L22.0719 25.242C22.1817 25.115 22.3052 24.9841 22.4399 24.8516C22.4757 24.8171 22.5101 24.7842 22.543 24.7527L22.5491 24.7469C22.6401 24.6611 22.7368 24.5742 22.8367 24.488L22.852 24.4746C22.8935 24.4389 22.9333 24.4053 22.9714 24.3738L22.9835 24.3642L23.0439 24.3138C21.2084 23.3976 18.1367 24.1931 15.4225 24.8969C12.7763 25.5823 10.4911 26.1741 9.53959 25.2037L9.53576 25.2002C9.32061 24.9688 9.19229 24.6761 9.11696 24.3837C9.04865 25.0846 9.16995 25.9921 9.94562 26.6992Z" fill="#E22531"/>
<path d="M19.6597 25.8635C19.5247 25.8674 19.39 25.8758 19.2556 25.8887L19.2559 24.8494C19.3392 24.8427 19.3804 24.8392 19.4634 24.8344V24.5688C19.2265 24.5815 18.9904 24.6053 18.7557 24.64V24.9059C18.8396 24.8944 18.8815 24.8886 18.9654 24.8787V25.9162C18.8815 25.9264 18.8396 25.9321 18.7557 25.9446L18.7554 26.213C19.2115 26.1453 19.4394 26.1233 19.8956 26.1233V25.7007C19.8011 25.7007 19.7542 25.7016 19.6597 25.7045V25.8635Z" fill="white"/>
<path d="M18.0439 2.81243L16.0004 0.768876L12.5728 4.19586C13.5553 4.08095 14.5541 3.77994 15.5979 3.46552C16.3956 3.22516 17.2079 2.97937 18.0439 2.81243Z" fill="#1A1B2E"/>
<path d="M7.5542 9.21471C8.05503 9.43113 8.48915 9.72767 8.83836 10.096C8.95264 10.2169 9.05606 10.3431 9.14863 10.4746C9.2944 10.2944 9.44783 10.1191 9.60892 9.94888C9.92678 9.61315 10.2702 9.30259 10.6361 9.01999C9.60765 8.95839 8.86422 8.71068 8.33912 8.42946L7.5542 9.21471Z" fill="#1A1B2E"/>
<path d="M22.8706 7.63877C22.8971 7.60716 22.9364 7.55928 22.9823 7.49608L23.0155 7.4498C23.0164 7.44831 23.0172 7.44703 23.0181 7.44597C23.0283 7.4315 23.0386 7.41639 23.0491 7.40064C23.0512 7.39681 23.0535 7.39351 23.0561 7.39074L23.0842 7.34637L23.0941 7.33105L23.1206 7.28796C23.1244 7.28158 23.1283 7.27519 23.1324 7.26881L23.1569 7.22571C23.1612 7.21741 23.1657 7.20943 23.1704 7.20177L23.194 7.1574L23.2077 7.13155L23.2313 7.08303C23.2352 7.07441 23.2393 7.06739 23.2428 7.05941C23.2545 7.03387 23.2657 7.00834 23.2763 6.9828C23.3807 6.7402 23.4356 6.48707 23.4356 6.23522C23.4321 5.7462 23.261 5.39412 23.058 5.13843C23.017 5.08662 22.9733 5.03697 22.9271 4.98968C22.8382 4.89951 22.7427 4.81607 22.6414 4.74006C22.5451 4.43026 22.3785 4.14689 22.1546 3.91205C22.0647 3.81701 21.9665 3.73007 21.8613 3.65221C21.3834 3.29534 20.7409 3.09201 20.008 3.09201C18.9492 3.09201 17.9175 3.31322 16.9107 3.59124C16.8669 3.60316 16.8232 3.61561 16.7796 3.62859C16.7259 3.64303 16.6725 3.65825 16.6193 3.67424C16.4982 3.70871 16.3776 3.74372 16.2573 3.77926L16.1277 3.81788C15.9979 3.85661 15.8688 3.89555 15.7402 3.93471L15.7233 3.93982L15.52 4.0011C15.496 4.00845 15.4721 4.01483 15.4481 4.02313C15.3939 4.03909 15.3394 4.05505 15.2847 4.07101C15.2583 4.07952 15.2317 4.08761 15.2049 4.09527L15.0335 4.1457C15.0131 4.15166 14.9927 4.15751 14.9725 4.16326C14.8968 4.18582 14.821 4.20763 14.7453 4.2287C14.7299 4.23338 14.7145 4.23763 14.699 4.24147C14.6385 4.25891 14.5783 4.27594 14.5183 4.29254C14.494 4.29828 14.4701 4.30563 14.4458 4.31169L14.2843 4.3551C14.2604 4.36053 14.2368 4.36755 14.2131 4.37362C14.145 4.39085 14.0767 4.40798 14.0082 4.42501L13.9868 4.43044C13.9119 4.44889 13.8368 4.46634 13.7615 4.48278C13.7408 4.48827 13.7199 4.49306 13.6989 4.49715L13.5339 4.53322L13.4608 4.54822C13.4048 4.55971 13.3494 4.57057 13.2945 4.58078C13.2736 4.5844 13.2531 4.58823 13.2329 4.59227C13.158 4.60589 13.0832 4.61866 13.0085 4.63058L12.974 4.63632C12.9106 4.64569 12.8475 4.65484 12.7847 4.66377C12.7607 4.66633 12.7367 4.66941 12.7129 4.67303C12.6603 4.67942 12.6075 4.68559 12.5546 4.69154C12.4693 4.70102 12.3838 4.70868 12.2982 4.71453L12.2571 4.71836C12.1828 4.72336 12.1086 4.72741 12.0342 4.73049L11.9733 4.73208C11.9184 4.73293 11.8634 4.73368 11.8083 4.73432L11.7715 4.73528C11.7477 4.73485 11.7237 4.73453 11.6994 4.73432L11.6554 4.73368C11.5981 4.73304 11.541 4.73155 11.4839 4.72921C11.4739 4.72879 11.4641 4.72815 11.4546 4.7273L11.309 4.71868L11.2595 4.71453C11.2104 4.71027 11.161 4.7057 11.1114 4.7008C11.1025 4.69974 11.0938 4.69857 11.0853 4.69729C11.0274 4.69112 10.9697 4.68388 10.9122 4.67558C10.8976 4.67346 10.8829 4.67112 10.8682 4.66856C10.8229 4.66197 10.7773 4.65484 10.7316 4.64717C10.6581 4.63368 10.5848 4.61921 10.5116 4.60376L10.4947 4.59961C10.4422 4.58812 10.3895 4.57567 10.3367 4.56227C10.3201 4.55865 10.3036 4.5545 10.2872 4.54982C10.2398 4.53726 10.1921 4.52417 10.1442 4.51056C10.1327 4.50672 10.1209 4.50449 10.1091 4.50066C10.0512 4.48342 9.99304 4.46523 9.93452 4.44608C9.9209 4.44118 9.90728 4.43639 9.89366 4.43171C9.84748 4.41596 9.8012 4.39958 9.7548 4.38255C9.73842 4.37638 9.72193 4.37 9.70533 4.3634C9.64659 4.34191 9.58786 4.31871 9.52913 4.29382L9.02 4.08122L9.04681 4.63217L9.05192 4.71006V4.71421L9.0599 4.80869L9.0749 4.95138L9.08607 5.04299C9.13108 5.39475 9.22461 5.91793 9.41549 6.40983C9.17832 6.68658 8.82815 6.97227 8.53768 7.19028L8.48405 7.23018C8.37967 7.30662 8.27411 7.38143 8.1674 7.45458C8.15548 7.46267 8.14431 7.47012 8.13388 7.47693L8.08696 7.50917C8.081 7.51257 8.07547 7.51608 8.07036 7.5197L8.0445 7.53694L8.02312 7.55098C8.01929 7.55311 8.01695 7.55428 8.0161 7.5545C8.01567 7.55535 8.01514 7.55577 8.01514 7.55577C8.01514 7.55577 8.89806 8.42178 10.745 8.53286L10.7539 8.5335C10.8048 8.53605 10.8564 8.53818 10.9087 8.53988L10.9426 8.54148C10.9987 8.54361 11.0557 8.54456 11.1133 8.54435L11.1376 8.54499C11.7157 8.54435 12.3225 8.4837 12.9462 8.38666L13.1023 8.36145C13.527 8.29 13.9498 8.2074 14.3702 8.11374C14.7038 8.04096 15.0383 7.96276 15.3735 7.882C15.5624 7.83625 15.751 7.79039 15.9391 7.74442L16.0176 7.72527L16.1392 7.69558C19.0066 6.91449 19.9266 6.76382 20.4064 6.70094C20.513 6.68753 20.5985 6.67764 20.6783 6.66615C21.8702 6.5008 22.0902 6.99493 22.1272 7.12676C22.1326 7.14687 22.1342 7.15836 22.1342 7.15836C22.1342 7.15836 21.7505 7.02493 20.6055 7.18805L20.6068 7.18709C20.1245 7.25508 19.4669 7.37542 18.5776 7.57939C19.8772 7.97769 21.0665 8.67233 22.0519 9.60858C22.5998 10.1266 23.0792 10.7127 23.4784 11.3524L24.5911 12.2902C24.7169 11.8322 24.7948 11.5034 24.7957 11.4989L24.8762 11.1583L26.2181 10.9856L22.8706 7.63877Z" fill="#1A1B2E"/>
<path d="M12.7955 26.7072V26.3075C12.9909 26.296 13.0886 26.2855 13.2836 26.2577V26.4164C13.3813 26.4026 13.4301 26.3947 13.5275 26.3771L13.5291 25.9506H13.5278C13.4304 25.9685 13.3816 25.9762 13.2836 25.9905V26.1154L13.1537 26.0084C12.9983 26.0288 12.842 26.0416 12.6854 26.0467C12.6152 26.1192 12.5801 26.1553 12.5102 26.2261V26.8064C12.5762 26.8735 12.6094 26.907 12.6755 26.9721C12.9037 26.9641 13.0183 26.9533 13.2472 26.922V27.3315C13.0827 27.3559 12.917 27.3717 12.7508 27.3788V27.2185C12.6691 27.2227 12.5872 27.2246 12.5054 27.2243L12.5086 27.6514C12.6046 27.6514 12.6528 27.6501 12.7496 27.645V27.5036C12.8048 27.5578 12.8329 27.5843 12.8891 27.6367C13.0761 27.6223 13.1703 27.6115 13.3573 27.5824C13.4276 27.5017 13.4623 27.4602 13.5326 27.3772V26.7876C13.4665 26.7311 13.4333 26.7024 13.3675 26.6446C13.1782 26.6762 12.9872 26.6971 12.7955 26.7072Z" fill="white"/>
<path d="M16.3217 26.53L15.8007 26.6842L15.8014 25.6212C16.0098 25.5602 16.1139 25.5299 16.322 25.4699L16.3217 26.53ZM15.6887 25.3844C15.6175 25.4769 15.5818 25.5232 15.5106 25.6167L15.5103 26.8594C15.5811 26.9114 15.6169 26.9367 15.6884 26.9877C15.9865 26.8993 16.1356 26.854 16.4344 26.7662L16.6121 26.5341L16.6125 25.2985C16.5413 25.2465 16.5059 25.22 16.4347 25.1683C16.1362 25.2532 15.9871 25.2975 15.6887 25.3844Z" fill="white"/>
<path d="M17.7735 25.084L17.9047 25.0549C17.9047 25.475 17.9047 25.6876 17.9041 26.1067C17.7199 26.1479 17.6276 26.1705 17.4431 26.2175L17.4435 25.1619C17.4955 25.1488 17.5217 25.1427 17.5743 25.1306V24.8672C17.389 24.9108 17.2043 24.9574 17.0205 25.007V25.2707C17.0735 25.2563 17.0997 25.2493 17.1527 25.2356L17.1523 26.3828L17.3305 26.5146C17.605 26.4425 17.7422 26.4087 18.0167 26.349L18.1949 26.1332L18.1952 24.9959C18.2479 24.9847 18.2743 24.9802 18.3273 24.971V24.7089C18.1417 24.7416 17.9571 24.7793 17.7735 24.8219V25.084Z" fill="white"/>
<path d="M13.9873 25.8555V26.1249C14.0713 26.1054 14.1131 26.0952 14.1967 26.0748L14.1964 27.1403C14.1128 27.1614 14.0709 27.1713 13.9873 27.1911V27.4601C14.4198 27.3612 14.6362 27.2961 15.0688 27.1687V26.74L14.8332 26.8083V26.9743C14.6947 27.0139 14.6257 27.0337 14.4875 27.0714V26.6449C14.6669 26.5957 14.7569 26.5702 14.9363 26.5182L14.9366 26.3152C14.7874 26.3591 14.6377 26.4014 14.4875 26.4419V25.9918C14.626 25.9541 14.695 25.9343 14.8332 25.8951V26.0592L15.0691 25.9915L15.0694 25.5637L15.0643 25.5657C14.6337 25.6902 14.4186 25.755 13.9873 25.8555Z" fill="white"/>
<path d="M19.6597 25.8635C19.5247 25.8674 19.39 25.8758 19.2556 25.8887L19.2559 24.8494C19.3392 24.8427 19.3804 24.8392 19.4634 24.8344V24.5688C19.2265 24.5815 18.9904 24.6053 18.7557 24.64V24.9059C18.8396 24.8944 18.8815 24.8886 18.9654 24.8787V25.9162C18.8815 25.9264 18.8396 25.9321 18.7557 25.9446L18.7554 26.213C19.2115 26.1453 19.4394 26.1233 19.8956 26.1233V25.7007C19.8011 25.7007 19.7542 25.7016 19.6597 25.7045V25.8635Z" fill="white"/>
<path d="M16.2773 7.09293C16.5234 7.03036 16.7682 6.96716 17.0124 6.90651L17.481 6.78809C19.1859 6.35652 20.6577 5.98401 21.6856 6.07817C22.3671 6.14138 22.595 6.58092 22.6706 6.88896C22.7699 6.72903 22.8791 6.49633 22.8794 6.23873C22.8746 5.70949 22.6103 5.40752 22.2145 5.11673L22.1535 5.07172L22.136 4.99798C22.1094 4.88962 22.0715 4.78435 22.023 4.68389C21.7124 4.04484 20.9405 3.64902 20.0081 3.64902C18.617 3.64902 17.2362 4.06559 15.9009 4.4681C13.8874 5.07555 11.8078 5.70311 9.63366 4.93159C9.66909 5.22239 9.73996 5.64661 9.87977 6.05806C9.92084 6.17872 9.96468 6.29002 10.0113 6.39195L10.0675 6.51389L9.98 6.61572C9.86242 6.75015 9.73976 6.88006 9.61227 7.00515C9.57588 7.03994 9.54269 7.0725 9.50917 7.10346L9.50342 7.10953C9.41213 7.19507 9.31509 7.28285 9.21582 7.36808L9.20146 7.38021C9.16191 7.41503 9.12179 7.44919 9.08112 7.48268L9.06962 7.49193L9.00195 7.54748C10.8316 8.4853 13.5998 7.77794 16.2773 7.09293Z" fill="#E22531"/>
<path d="M12.0552 7.09486C11.9177 7.1071 11.78 7.11647 11.6422 7.12295L11.6428 6.08138C11.8085 6.07276 11.8908 6.06606 12.0568 6.05074L12.0552 7.09486ZM12.3403 7.15551L12.3422 5.93359C12.2723 5.87198 12.2372 5.84038 12.1679 5.77814C11.7612 5.82123 11.5579 5.834 11.1519 5.834V6.09447C11.2339 6.09447 11.2751 6.09383 11.3574 6.09192L11.3571 7.13316C11.2887 7.13459 11.2203 7.13523 11.1519 7.13508V7.39874C11.5569 7.39874 11.7599 7.38789 12.165 7.3499C12.2352 7.27298 12.27 7.23435 12.3403 7.15551Z" fill="white"/>
<path d="M13.091 5.90932C13.2956 5.87325 13.3977 5.8525 13.6023 5.81005L13.5985 6.87204C13.3945 6.91194 13.2921 6.93014 13.0878 6.96429L13.091 5.90932ZM13.708 7.12102C13.7779 7.03484 13.8127 6.9927 13.8829 6.90556L13.888 5.66066C13.8184 5.60384 13.7833 5.57575 13.7141 5.51861C13.4711 5.5733 13.2267 5.62152 12.9812 5.66321L12.8056 5.87038L12.8027 7.09804C12.8723 7.15805 12.9074 7.18933 12.9767 7.24902C13.2694 7.20497 13.4153 7.1788 13.708 7.12102Z" fill="white"/>
<path d="M14.6389 5.56844C14.8436 5.51705 14.9457 5.48992 15.1506 5.43566L15.1442 6.51936C14.9396 6.57139 14.8378 6.59692 14.6335 6.64544L14.6389 5.56844ZM15.2528 6.76898L15.4283 6.53979L15.4363 5.26935C15.3667 5.21508 15.3323 5.18763 15.2627 5.13273C14.9696 5.21157 14.8228 5.25084 14.5298 5.32489L14.3542 5.55057L14.3481 6.80409L14.5218 6.9455C14.8145 6.87846 14.9604 6.84207 15.2528 6.76898Z" fill="white"/>
<path d="M17.9102 5.48863L18.056 4.92045L18.1901 5.42415C18.0784 5.44969 18.0222 5.46214 17.9102 5.48863ZM18.3379 5.98212C18.4879 5.94765 18.5629 5.93201 18.7133 5.90105L18.7197 5.62653L18.5715 5.65622C18.4509 5.23327 18.3286 4.81 18.2099 4.38578L18.1668 4.39408L17.9229 4.44483L17.6759 4.50069L17.673 4.77713L17.8367 4.73946C17.7352 5.12549 17.6345 5.51183 17.5345 5.89849L17.378 5.93776L17.3755 6.21802C17.5249 6.18003 17.5996 6.16056 17.7496 6.12353L17.7512 6.12289V6.11619L17.8438 5.75964C18.0082 5.71974 18.0899 5.70027 18.2546 5.66356C18.2881 5.78964 18.3047 5.85349 18.3379 5.98181V5.98212Z" fill="white"/>
<path d="M20.4443 4.39661V4.13837C20.2033 4.13837 20.083 4.14316 19.842 4.15944L19.8404 4.4231C19.9058 4.41736 19.939 4.41576 20.0045 4.41225L20.001 5.08992C19.8213 4.73177 19.7325 4.55557 19.556 4.18242C19.4112 4.19572 19.2666 4.21211 19.1225 4.23158L19.1193 4.50067C19.1886 4.49109 19.2237 4.4863 19.293 4.478C19.2888 4.90159 19.2869 5.10397 19.2821 5.52755C19.2237 5.5365 19.1654 5.54608 19.1072 5.55628L19.104 5.82697C19.3479 5.78515 19.4695 5.76632 19.7137 5.73472L19.7156 5.46786C19.6514 5.47584 19.6198 5.47967 19.5557 5.48829L19.5611 4.80136C19.7418 5.16047 19.8327 5.33379 20.0166 5.70088C20.1874 5.68332 20.2726 5.67694 20.4443 5.66672V5.40593L20.2752 5.41519L20.2771 4.40012C20.3441 4.3982 20.3776 4.39757 20.4443 4.39661Z" fill="white"/>
<path d="M16.2247 5.55726L16.2275 5.14868C16.4226 5.09601 16.5202 5.06984 16.7153 5.01876L16.7137 5.18252C16.811 5.15698 16.8599 5.14421 16.9575 5.11931L16.9627 4.67434C16.9622 4.67434 16.9619 4.67455 16.9617 4.67498C16.8634 4.69956 16.8149 4.71265 16.7172 4.73818L16.7162 4.87033C16.6645 4.83171 16.6387 4.81192 16.5873 4.77266C16.3996 4.82245 16.3064 4.84767 16.1187 4.89874L15.9428 5.1324C15.9409 5.37053 15.9399 5.48863 15.9386 5.72485C16.0041 5.77656 16.037 5.80145 16.1024 5.85221L16.6728 5.70059L16.6696 6.12066C16.4717 6.17237 16.3724 6.19855 16.1749 6.25121L16.1761 6.08555L15.9307 6.15067V6.59436L16.171 6.53116C16.1713 6.47083 16.1713 6.44178 16.1723 6.38145C16.2275 6.42614 16.255 6.44912 16.3105 6.49509C16.4973 6.44529 16.5908 6.42071 16.7778 6.37187L16.9537 6.14045L16.9588 5.53683L16.7954 5.40596C16.5668 5.46565 16.4526 5.49629 16.2247 5.55726Z" fill="white"/>
<path d="M2.59058 16.0004L3.28549 15.3067L3.33146 14.6581L1.98633 16.0004L3.1543 17.1655L3.19388 16.603L2.59058 16.0004Z" fill="#E22531"/>
<path d="M16.0008 29.3846L15.3493 28.7341C15.1916 28.7788 15.0332 28.8216 14.874 28.8624L16.0008 29.9876L18.0354 27.9565C17.7609 28.0267 17.4829 28.1049 17.2004 28.1873L16.0008 29.3846Z" fill="#E22531"/>
<path d="M26.0594 19.3437L22.417 22.9801C22.5761 23.0171 22.7334 23.0613 22.8885 23.1125L26.837 19.1713C26.5792 19.2348 26.3199 19.2922 26.0594 19.3437Z" fill="#E22531"/>
<path d="M6.19052 19.5937C6.16435 19.5977 6.13807 19.6013 6.11168 19.6045L5.65234 19.6594L8.45081 22.4521C8.51168 22.316 8.5785 22.1817 8.65128 22.0493L6.19052 19.5937Z" fill="#E22531"/>
<path d="M14.9583 3.657L16.0012 2.61575L16.5658 3.17947C16.7227 3.13478 16.8805 3.09126 17.0392 3.04891L16.0012 2.01309L14.1191 3.8913C14.3959 3.81979 14.6758 3.74031 14.9583 3.657Z" fill="#E22531"/>
<path d="M21.1261 7.12868C20.9525 7.14347 20.7793 7.16316 20.6068 7.18773C20.5991 7.18837 20.5914 7.18922 20.5835 7.19028L24.8155 11.4153L24.8762 11.1593L25.1309 11.1261L21.1261 7.12868Z" fill="#E22531"/>
<path d="M9.21651 8.78439L8.33838 9.66029C8.45521 9.74541 8.56597 9.83606 8.67067 9.93225L9.70202 8.9025C9.52923 8.86845 9.36739 8.82908 9.21651 8.78439Z" fill="#E22531"/>
<path d="M20.0999 10.4931C20.1632 10.3875 20.2197 10.2745 20.273 10.1679C20.325 10.0564 20.3732 9.94856 20.4153 9.83684C20.3563 9.85854 20.2953 9.87482 20.235 9.89333C20.1746 9.91185 20.113 9.92621 20.0521 9.94217C19.9992 10.0501 19.9422 10.1561 19.8813 10.2598C19.8186 10.3654 19.7518 10.4686 19.6812 10.5691C19.7517 10.5608 19.8213 10.548 19.8915 10.5356C19.9614 10.525 20.0304 10.5078 20.0999 10.4931Z" fill="#E22531"/>
<path d="M20.2764 10.4497C20.3827 10.5187 20.4906 10.5787 20.6043 10.64C20.7173 10.7003 20.8338 10.7549 20.9544 10.8091L20.7316 10.8874L20.5056 10.9563C20.2742 10.8286 20.0597 10.6933 19.8608 10.5407L19.9655 10.5222L20.0696 10.4998C20.1392 10.4858 20.2081 10.4682 20.2764 10.4497Z" fill="#E22531"/>
<path d="M21.1503 10.1531C21.2023 10.0411 21.247 9.92299 21.2895 9.8119C21.33 9.69508 21.3667 9.58303 21.3973 9.46812C21.3405 9.49493 21.2815 9.51792 21.2234 9.54281C21.165 9.56707 21.105 9.58718 21.0462 9.60985C21.0047 9.72251 20.9589 9.83356 20.909 9.94278C20.8574 10.0544 20.8016 10.1639 20.7417 10.2712C20.8106 10.2546 20.8791 10.2362 20.9469 10.216C21.0156 10.1988 21.0829 10.1742 21.1503 10.1531Z" fill="#E22531"/>
<path d="M21.3216 10.0922C21.434 10.1496 21.5476 10.1985 21.667 10.2476C21.7872 10.2961 21.9091 10.3403 22.0325 10.3801C21.9614 10.4139 21.8901 10.4474 21.8186 10.4806L21.6009 10.5726C21.3647 10.474 21.1363 10.3578 20.9175 10.225L21.0196 10.1959L21.1208 10.163C21.1885 10.1416 21.2552 10.1171 21.3216 10.0922Z" fill="#E22531"/>
<path d="M18.9926 10.6215C19.1561 10.4401 19.3069 10.2477 19.4439 10.0456C19.3804 10.0531 19.3166 10.0586 19.2527 10.0622L19.157 10.0683L19.0602 10.0708C18.9077 10.262 18.7431 10.4433 18.5674 10.6135C18.6382 10.617 18.7088 10.6183 18.78 10.6208L18.9926 10.6215Z" fill="#E22531"/>
<path d="M19.1745 10.6163C19.3567 10.7951 19.5513 10.9607 19.7568 11.1121L19.6399 11.128L19.5234 11.1398L19.4069 11.1507L19.2907 11.1577C19.0941 10.9876 18.9144 10.8066 18.749 10.6205C18.8202 10.623 18.8908 10.6215 18.9619 10.6221C19.0328 10.6208 19.1037 10.6189 19.1745 10.6163Z" fill="#E22531"/>
<path d="M17.8797 10.5483C18.0699 10.393 18.2524 10.2287 18.4268 10.0558C18.2951 10.0462 18.163 10.0329 18.0307 10.0159C17.846 10.1788 17.6553 10.3348 17.459 10.4835C17.5988 10.5079 17.739 10.5295 17.8797 10.5483Z" fill="#E22531"/>
<path d="M18.0603 10.571C18.2078 10.7724 18.3665 10.9684 18.5398 11.1609C18.387 11.1528 18.2357 11.1408 18.0859 11.1248C17.9285 10.9272 17.7793 10.7233 17.6387 10.5135C17.7788 10.5349 17.9193 10.555 18.0603 10.571Z" fill="#E22531"/>
<path d="M16.7808 10.3514C16.9848 10.2087 17.1856 10.0628 17.3803 9.91311C17.2458 9.88779 17.1108 9.86108 16.9752 9.83299C16.7748 9.97621 16.5714 10.1185 16.3652 10.2598C16.5036 10.291 16.6421 10.3216 16.7808 10.3514Z" fill="#E22531"/>
<path d="M16.9589 10.3884C17.0882 10.6016 17.2226 10.8126 17.3656 11.0233C17.2208 10.9982 17.0764 10.9712 16.9324 10.9422C16.7977 10.7284 16.6691 10.5148 16.543 10.2997C16.6812 10.3294 16.82 10.36 16.9589 10.3884Z" fill="#E22531"/>
<path d="M15.6913 10.1069L16.309 9.68488L15.8927 9.59072C15.6852 9.73117 15.4784 9.87321 15.2754 10.0172C15.4137 10.0463 15.5524 10.0762 15.6913 10.1069Z" fill="#E22531"/>
<path d="M15.8689 10.1465L16.2446 10.7935L15.829 10.6994C15.7045 10.4845 15.5807 10.2691 15.4536 10.0552L15.8689 10.1465Z" fill="#E22531"/>
<path d="M14.5962 9.89044C14.7925 9.73722 14.9964 9.58911 15.203 9.44355C15.0597 9.41525 14.9151 9.38865 14.7692 9.36375C14.566 9.51275 14.3678 9.6684 14.1748 9.83043C14.3157 9.84767 14.4561 9.86767 14.5962 9.89044Z" fill="#E22531"/>
<path d="M14.7759 9.92048C14.9112 10.1302 15.0392 10.3409 15.1643 10.5535C15.0288 10.5256 14.8939 10.4992 14.7596 10.4743C14.6311 10.2636 14.4963 10.0568 14.3555 9.85409L14.5658 9.88601L14.7759 9.92048Z" fill="#E22531"/>
<path d="M13.486 9.77716C13.6616 9.59873 13.8506 9.4305 14.0482 9.26547L13.8219 9.24568L13.5939 9.23228C13.4528 9.36172 13.3169 9.49664 13.1863 9.63671C13.1432 9.683 13.1014 9.73056 13.0605 9.77652C13.1317 9.77461 13.2023 9.77237 13.2735 9.77333L13.3798 9.77397L13.486 9.77716Z" fill="#E22531"/>
<path d="M13.6682 9.78514C13.8268 9.97602 13.9727 10.1752 14.1093 10.3744L13.9111 10.353C13.845 10.3479 13.7789 10.3409 13.7135 10.337C13.567 10.1407 13.4098 9.95249 13.2427 9.77333C13.3846 9.77269 13.5264 9.77662 13.6682 9.78514Z" fill="#E22531"/>
<path d="M12.3733 9.84033C12.4433 9.73734 12.5175 9.6354 12.5961 9.53453C12.6746 9.4359 12.7573 9.33407 12.8444 9.23863C12.7668 9.2431 12.6893 9.24959 12.612 9.2581C12.5341 9.26385 12.4572 9.27566 12.3796 9.28587C12.2998 9.3877 12.2248 9.49623 12.1536 9.59997C12.0834 9.70882 12.017 9.81352 11.9561 9.92365C12.0942 9.89045 12.2332 9.86268 12.3733 9.84033Z" fill="#E22531"/>
<path d="M12.5535 9.81546C12.6483 9.89431 12.74 9.98017 12.8274 10.0625C12.9152 10.15 12.9985 10.2339 13.0786 10.324C12.9504 10.3283 12.8223 10.3373 12.6946 10.3508C12.6088 10.2675 12.5194 10.188 12.4259 10.1091C12.3327 10.0341 12.2347 9.95464 12.1338 9.88377C12.2723 9.85472 12.4128 9.83334 12.5535 9.81546Z" fill="#E22531"/>
<path d="M11.2971 10.1299C11.3887 9.89686 11.5011 9.66927 11.6326 9.44135C11.5573 9.4637 11.4819 9.48477 11.4073 9.50934C11.3329 9.53488 11.2585 9.55882 11.1851 9.58595C11.0756 9.81691 10.9826 10.0553 10.9067 10.2994C10.9706 10.2679 11.0351 10.2384 11.1002 10.211L11.1979 10.1685L11.2971 10.1299Z" fill="#E22531"/>
<path d="M11.4681 10.067C11.5234 10.0968 11.5775 10.1265 11.6302 10.1561C11.6836 10.1878 11.7361 10.2199 11.7876 10.2525C11.8901 10.3157 11.9897 10.3859 12.0845 10.4558C11.9612 10.4858 11.8392 10.5208 11.7187 10.5605C11.5649 10.4639 11.4055 10.3768 11.2411 10.2997C11.1858 10.2733 11.1295 10.2478 11.0723 10.2231C11.1371 10.1947 11.2022 10.1663 11.2686 10.1411C11.3347 10.1155 11.4007 10.089 11.4681 10.067Z" fill="#E22531"/>
<path d="M10.3031 10.6351C10.3482 10.3894 10.4107 10.1425 10.4905 9.89459C10.2977 10.0488 10.0506 10.322 10.0506 10.322C10.0203 10.4491 10.0302 10.3763 10.0065 10.5004C9.98555 10.6245 9.96693 10.7489 9.95068 10.8736L10.1253 10.7517C10.1834 10.7105 10.244 10.6738 10.3031 10.6351Z" fill="#E22531"/>
<path d="M10.4582 10.54C10.5183 10.5573 10.5772 10.5755 10.6351 10.5946C10.6941 10.6138 10.7522 10.6351 10.8097 10.6553C10.8667 10.677 10.923 10.6987 10.9785 10.7204C11.0347 10.7444 11.0898 10.7686 11.1439 10.7928C11.028 10.8483 10.9143 10.9082 10.803 10.9722C10.5789 10.8918 10.343 10.8235 10.1001 10.7692C10.1576 10.7277 10.2182 10.6904 10.2773 10.6517L10.3666 10.594L10.4582 10.54Z" fill="#E22531"/>
<path d="M13.3121 22.6482C13.1635 22.8598 13 23.0606 12.8228 23.2489L12.9418 23.2432L13.0602 23.2339L13.1787 23.223L13.2958 23.2093C13.4605 23.0034 13.6061 22.7899 13.737 22.5744C13.6667 22.5894 13.5959 22.6012 13.525 22.615C13.4545 22.6274 13.3833 22.637 13.3121 22.6482Z" fill="#E22531"/>
<path d="M14.5908 22.3436C14.3702 22.2214 14.1567 22.0902 13.9556 21.9526C14.0845 21.9186 14.2136 21.8811 14.3428 21.8402C14.5531 21.9679 14.7724 22.0867 14.9978 22.2022C14.8629 22.2516 14.7272 22.2988 14.5908 22.3436Z" fill="#E22531"/>
<path d="M14.4152 22.3991C14.3032 22.6304 14.1796 22.8558 14.0449 23.0746C14.1956 23.0385 14.3447 22.9999 14.4912 22.9555C14.615 22.7276 14.7236 22.4952 14.8247 22.2644C14.6892 22.3121 14.5526 22.357 14.4152 22.3991Z" fill="#E22531"/>
<path d="M15.6498 21.9453C15.4203 21.8402 15.1931 21.7317 14.9722 21.6187C15.1016 21.5685 15.2313 21.5169 15.3613 21.4639C15.5875 21.5707 15.8161 21.6756 16.0473 21.7786C15.9151 21.8344 15.7826 21.8899 15.6498 21.9453Z" fill="#E22531"/>
<path d="M15.479 22.0148C15.3887 22.2532 15.2925 22.4893 15.1904 22.7228C15.3309 22.6709 15.4697 22.6175 15.607 22.5626C15.7021 22.3245 15.7912 22.0879 15.8774 21.8495C15.745 21.9059 15.6122 21.961 15.479 22.0148Z" fill="#E22531"/>
<path d="M16.6902 21.5022L15.9976 21.1951L16.3953 21.0247C16.6274 21.1268 16.8594 21.2296 17.0886 21.3362C16.9556 21.3911 16.8228 21.4464 16.6902 21.5022Z" fill="#E22531"/>
<path d="M16.521 21.5746L16.2646 22.2887L16.6617 22.1182C16.7463 21.8811 16.8303 21.6442 16.9181 21.4074L16.521 21.5746Z" fill="#E22531"/>
<path d="M17.7426 21.0859C17.5185 20.9691 17.2887 20.8587 17.0557 20.7511C17.1933 20.6966 17.3326 20.6437 17.4735 20.5924C17.7046 20.7048 17.9332 20.8245 18.1515 20.9484C18.0144 20.9919 17.8781 21.0377 17.7426 21.0859Z" fill="#E22531"/>
<path d="M17.5692 21.1488C17.4738 21.381 17.3834 21.6151 17.2979 21.8511C17.4278 21.7984 17.5574 21.7467 17.6866 21.6985C17.776 21.4658 17.8708 21.236 17.9758 21.0058L17.7719 21.0757L17.5692 21.1488Z" fill="#E22531"/>
<path d="M18.828 20.7696C18.6202 20.6244 18.4016 20.4906 18.1743 20.3626L18.3958 20.3013L18.6209 20.2458C18.7323 20.3176 18.8399 20.3865 18.9455 20.4622C18.9985 20.4992 19.0503 20.5366 19.101 20.5742C19.1523 20.613 19.2027 20.6519 19.2523 20.6911C19.1811 20.7019 19.1096 20.7125 19.0394 20.7265L18.9334 20.7466L18.828 20.7696Z" fill="#E22531"/>
<path d="M18.6484 20.8111C18.5278 21.0287 18.417 21.2516 18.3164 21.4792L18.5102 21.4214C18.5749 21.4031 18.6397 21.3857 18.7046 21.3691C18.8131 21.1507 18.9334 20.9333 19.07 20.7214C18.9285 20.7465 18.7879 20.7765 18.6484 20.8111Z" fill="#E22531"/>
<path d="M19.9491 20.6289C19.8606 20.5393 19.7679 20.4513 19.6711 20.3649C19.5744 20.2809 19.4735 20.1954 19.3691 20.1162C19.4477 20.105 19.5262 20.099 19.6047 20.092C19.6829 20.0843 19.7624 20.0814 19.8412 20.0773C20.0342 20.25 20.2143 20.4366 20.3801 20.6356C20.2367 20.6269 20.0928 20.6257 19.9491 20.6289Z" fill="#E22531"/>
<path d="M19.7643 20.6368C19.6854 20.7335 19.6095 20.8326 19.5367 20.934C19.4659 21.0339 19.3983 21.1361 19.334 21.2404C19.4636 21.2203 19.5929 21.2066 19.7218 21.1964C19.865 20.9952 20.0235 20.8054 20.1958 20.6285C20.0518 20.6253 19.9079 20.6281 19.7643 20.6368Z" fill="#E22531"/>
<path d="M21.0741 20.7201C20.9362 20.5008 20.7824 20.2919 20.6138 20.0951C20.6926 20.1041 20.7718 20.1111 20.8506 20.1216C20.9291 20.1334 21.008 20.144 21.0862 20.1571C21.241 20.3741 21.3773 20.5928 21.4938 20.8178C21.4247 20.798 21.355 20.7803 21.2847 20.7648L21.18 20.7406L21.0741 20.7201Z" fill="#E22531"/>
<path d="M20.8927 20.6888C20.8436 20.7276 20.7951 20.7672 20.7472 20.8076C20.6997 20.8489 20.6534 20.8902 20.6083 20.9317C20.5188 21.014 20.4326 21.0998 20.3501 21.189C20.4782 21.196 20.6059 21.2086 20.7331 21.2267C20.8685 21.1019 21.0115 20.9856 21.1612 20.8784C21.2118 20.8423 21.2634 20.8068 21.316 20.7721C21.2458 20.7549 21.1762 20.738 21.105 20.7262C21.0345 20.7124 20.9639 20.6978 20.8927 20.6888Z" fill="#E22531"/>
<path d="M22.157 21.0416C22.0648 20.8005 21.9572 20.5655 21.835 20.338C21.9097 20.3626 21.985 20.3856 22.059 20.4108L22.2799 20.4922C22.3329 20.6135 22.3824 20.7339 22.4284 20.8532C22.4728 20.9752 22.514 21.0957 22.5519 21.2149L22.3562 21.1258C22.2908 21.0952 22.2234 21.07 22.157 21.0416Z" fill="#E22531"/>
<path d="M21.9853 20.9749C21.9289 21.004 21.8734 21.033 21.819 21.0617C21.7637 21.0924 21.7095 21.1243 21.6565 21.1549C21.6035 21.1864 21.5514 21.2184 21.5001 21.251C21.4484 21.2852 21.3979 21.3183 21.3481 21.3535C21.4736 21.386 21.5974 21.4266 21.7207 21.47C21.9294 21.3474 22.1522 21.2363 22.3843 21.1383C22.3192 21.107 22.2525 21.0812 22.1861 21.0534L22.0861 21.0122L21.9853 20.9749Z" fill="#E22531"/>
<path d="M13.4778 22.2108C13.3953 22.2753 13.3153 22.3415 13.2378 22.4094C13.3205 22.4822 13.4057 22.5502 13.4948 22.6201L13.7064 22.5811C13.7772 22.5648 13.8472 22.5508 13.9171 22.5345C13.7638 22.4308 13.6167 22.3238 13.4778 22.2108Z" fill="#E22531"/>
</g>
</g>
<defs>
<clipPath id="clip0_121_778">
<rect width="32" height="32" fill="white"/>
</clipPath>
</defs>
</svg>
