<svg width="32" height="32" viewBox="0 0 32 32" fill="none" xmlns="http://www.w3.org/2000/svg">
<g clip-path="url(#clip0_121_940)">
<path d="M15.4254 4C9.47688 4 4.57881 8.4479 3.85917 14.1934C3.74576 14.6851 3.67453 15.1704 3.62531 15.6506H3.05859C3.05859 22.4708 8.59458 27.9999 15.4254 27.9999C22.2563 27.9999 27.794 22.4708 27.794 15.6506H27.0941C27.0941 16.1558 27.0508 16.6502 26.9883 17.1384C26.8715 16.6387 26.6798 16.141 26.3943 15.6506H27.0941C27.0941 9.21547 21.8694 4 15.4254 4Z" fill="#042445"/>
<path d="M15.4262 27.301C21.8701 27.301 27.094 22.0852 27.094 15.6512H26.3949C26.3949 21.6989 21.4833 26.6018 15.4262 26.6018C9.36908 26.6018 4.45744 21.6989 4.45744 15.6512H3.7583C3.7583 22.0852 8.9822 27.301 15.4262 27.301Z" fill="#D01031"/>
<path d="M15.4262 4.69952C12.5172 4.69952 9.72721 5.85336 7.67018 7.9072C5.61315 9.96104 4.45752 12.7467 4.45752 15.6512H5.15787C5.15787 12.9321 6.23971 10.3244 8.16539 8.40166C10.0911 6.47895 12.7029 5.39877 15.4262 5.39876C16.7747 5.39875 18.1099 5.66393 19.3558 6.17916C20.6016 6.69439 21.7336 7.44958 22.6871 8.40161C23.6406 9.35364 24.397 10.4839 24.913 11.7278C25.4291 12.9716 25.6947 14.3048 25.6947 15.6512H26.395C26.395 14.213 26.1113 12.7889 25.56 11.4602C25.0088 10.1315 24.2008 8.92415 23.1823 7.90719C22.1638 6.89023 20.9546 6.08354 19.6238 5.53316C18.293 4.98279 16.8667 4.69952 15.4262 4.69952Z" fill="#62B1E3"/>
<path d="M22.4272 15.6512C22.4272 17.5051 21.6896 19.2831 20.3767 20.594C19.0637 21.9049 17.283 22.6413 15.4262 22.6413C13.5695 22.6413 11.7887 21.9049 10.4758 20.594C9.16286 19.2831 8.42526 17.5051 8.42526 15.6512C8.42526 13.7974 9.16286 12.0194 10.4758 10.7085C11.7887 9.39761 13.5694 8.66116 15.4262 8.66116C17.283 8.66116 19.0637 9.39761 20.3766 10.7085C21.6896 12.0194 22.4272 13.7974 22.4272 15.6512ZM8.17822 9.92348L9.22929 10.8403L9.89352 10.0805L9.69659 9.90837L9.23745 10.4319L8.38449 9.6873L8.17822 9.92348ZM10.4144 9.64542C10.0485 9.95025 9.75835 9.83041 9.48334 9.50116C9.20948 9.17306 9.1419 8.86241 9.50664 8.55876C9.87953 8.2481 10.1685 8.37843 10.44 8.70301C10.7174 9.03577 10.7861 9.33595 10.4144 9.64542M9.67793 8.76467C9.44836 8.95548 9.56955 9.11488 9.72571 9.30106C9.89467 9.50464 10.0252 9.62449 10.2431 9.44298C10.4412 9.27661 10.4144 9.1591 10.2012 8.90315C10.0088 8.67279 9.88651 8.59016 9.67793 8.76467Z" fill="white"/>
<path d="M11.0402 7.84086L11.6111 8.81352L11.3326 8.97755L10.7617 8.00371L10.4051 8.21202L10.2711 7.98278L11.2639 7.40224L11.3979 7.63142L11.0402 7.84086ZM12.3569 7.23585L12.7624 8.2888L12.4618 8.40513L12.0551 7.35221L11.6706 7.49995L11.5739 7.25214L12.6482 6.83912L12.7438 7.08693L12.3569 7.23585ZM13.3567 8.08866L13.0724 6.72394L14.0733 6.51684L14.127 6.77746L13.436 6.92056L13.4965 7.21141L14.0943 7.08808L14.1479 7.34406L13.5502 7.46854L13.6119 7.76756L14.3029 7.62443L14.3565 7.88156L13.3567 8.08866ZM16.3678 7.42899C16.3561 7.70124 16.0998 7.85949 15.7805 7.84552C15.5835 7.83738 15.3983 7.76638 15.3144 7.65935C15.2165 7.53369 15.1722 7.32429 15.185 7.1137C15.192 6.94034 15.227 6.75068 15.3074 6.64598C15.446 6.46332 15.594 6.42143 15.8294 6.43191C16.1126 6.44354 16.3631 6.60524 16.3829 6.93219L16.0648 6.91823C16.0578 6.79257 15.9774 6.70765 15.8201 6.70065C15.7059 6.69602 15.6197 6.72394 15.5859 6.78675C15.5292 6.89109 15.4992 7.00778 15.4985 7.12648C15.4915 7.27773 15.5195 7.42202 15.5766 7.49532C15.6127 7.54069 15.6966 7.57327 15.7898 7.57442C15.9425 7.57909 16.0357 7.51743 16.0403 7.41154L16.045 7.30914L15.7642 7.29751L15.7746 7.059L16.3817 7.08344L16.3678 7.42899ZM16.6311 7.91763L16.9434 7.97348L17.1858 6.60058L16.8735 6.54476L16.6311 7.91763ZM18.1611 8.30973L18.1402 8.00374L17.6601 7.85016L17.4725 8.08985L17.1544 7.98745L18.111 6.82982L18.3708 6.9136L18.4757 8.40983L18.1611 8.30973ZM18.0982 7.31496L17.8314 7.63606L18.1285 7.73031L18.0982 7.31496ZM19.4441 8.92637L19.3101 7.89086L18.9058 8.63549L18.6273 8.48424L19.2914 7.25911L19.507 7.37547L19.6422 8.41328L20.0465 7.6675L20.3274 7.81875L19.662 9.04388L19.4441 8.92637ZM21.1268 8.74138L20.4241 9.62445L20.1713 9.42432L20.8739 8.54127L20.5499 8.28414L20.7154 8.07588L21.6173 8.79141L21.4519 8.99851L21.1268 8.74138ZM21.1687 10.3691C21.0394 10.2213 20.9846 10.0456 20.9974 9.80711L21.2817 9.8013C21.2643 9.98277 21.2911 10.0828 21.382 10.1852C21.4845 10.3051 21.5847 10.333 21.6616 10.2678C21.7059 10.2306 21.7245 10.1445 21.6546 10.0421L21.5672 9.90367C21.4542 9.72915 21.4181 9.49064 21.6033 9.33009C21.8026 9.15906 22.0695 9.19629 22.2792 9.43713C22.3981 9.57883 22.46 9.75965 22.4528 9.9444L22.1767 9.9537C22.186 9.75593 22.1231 9.67445 22.0695 9.61279C21.9832 9.51279 21.897 9.49997 21.8143 9.56975C21.7572 9.61979 21.7653 9.68382 21.8213 9.77455C21.8376 9.80245 21.8888 9.87807 21.9028 9.89788C22.0485 10.1108 22.0555 10.3609 21.8772 10.5133C21.6768 10.6879 21.3878 10.6227 21.1687 10.3691ZM29.7859 15.408L31.9999 13.1975H24.245L24.6517 11.6861H22.2442L21.8387 13.1975H6.71236L8.22718 11.6849H3.10232C2.71012 11.6855 2.32904 11.8151 2.01795 12.0536C1.70687 12.292 1.48309 12.6262 1.38121 13.0043L0.0504892 17.9642C-0.00789682 18.1777 -0.0157637 18.4018 0.0275099 18.6189C0.0707835 18.8359 0.164012 19.04 0.299833 19.2149C0.57484 19.5744 0.993175 19.7792 1.4453 19.7792H28.0601C28.4523 19.779 28.8334 19.6498 29.1446 19.4115C29.4557 19.1732 29.6795 18.8391 29.7812 18.461L30.576 15.5H29.6938L29.7859 15.408Z" fill="white"/>
<path d="M7.07712 19.4301L8.65603 13.5465H8.87744L7.2985 19.4301H7.07712ZM11.8442 18.7809H10.6323C10.5439 18.7818 10.4564 18.7622 10.3768 18.7235C10.2972 18.6848 10.2278 18.6282 10.1739 18.5582C10.12 18.4881 10.0831 18.4065 10.0662 18.3197C10.0493 18.233 10.0528 18.1436 10.0765 18.0584L10.9528 14.7937C10.9989 14.6222 11.1004 14.4706 11.2416 14.3625C11.3827 14.2544 11.5556 14.1958 11.7335 14.1957H14.4789L13.0736 19.4301H12.8521L14.1992 14.4086H11.7335C11.6027 14.4089 11.4756 14.4522 11.3719 14.5319C11.2682 14.6117 11.1938 14.7233 11.1602 14.8496L10.2839 18.1143C10.2691 18.1676 10.2669 18.2237 10.2775 18.278C10.2882 18.3323 10.3113 18.3835 10.345 18.4274C10.3788 18.4712 10.4224 18.5067 10.4722 18.5309C10.5221 18.5551 10.5769 18.5674 10.6323 18.5669H12.0575L11.8442 18.7809ZM15.7048 19.4301L16.9341 14.8496C16.968 14.7233 17.0427 14.6118 17.1466 14.5323C17.2504 14.4528 17.3777 14.4097 17.5086 14.4098H19.9743L18.6261 19.4301H18.8487L20.2528 14.1957H17.5086C17.3306 14.1959 17.1576 14.2546 17.0163 14.3627C16.875 14.4707 16.7732 14.6222 16.7267 14.7937L15.4834 19.4301H15.7048ZM23.9211 18.7809H22.1825C22.0943 18.7815 22.0072 18.7614 21.9281 18.7224C21.849 18.6835 21.7801 18.6266 21.7269 18.5564C21.6726 18.4869 21.6353 18.4057 21.6179 18.3192C21.6005 18.2328 21.6035 18.1435 21.6267 18.0584L23.2441 12.0352H23.4655L22.8852 14.1957H25.4045L25.1901 14.4098H22.8281L21.8341 18.1143C21.8193 18.1676 21.8171 18.2237 21.8277 18.278C21.8383 18.3323 21.8614 18.3835 21.8952 18.4274C21.929 18.4713 21.9725 18.5067 22.0224 18.5309C22.0723 18.5551 22.1271 18.5674 22.1825 18.5669H23.9782L23.9211 18.7809ZM24.9244 18.5669H27.9833C28.1139 18.5667 28.2409 18.5235 28.3446 18.444C28.4482 18.3645 28.5227 18.2531 28.5566 18.1271L28.9679 16.5948H26.1841L26.6665 14.7937C26.7128 14.622 26.8145 14.4703 26.9558 14.362C27.0971 14.2537 27.2702 14.1948 27.4484 14.1945H30.5049L30.2905 14.4086H27.4484C27.3176 14.4089 27.1905 14.4521 27.0867 14.5316C26.9829 14.6111 26.9081 14.7224 26.8739 14.8484L26.4626 16.3807H29.2476L28.764 18.1818C28.7179 18.3534 28.6164 18.5051 28.4753 18.6134C28.3342 18.7217 28.1612 18.7806 27.9833 18.7809H24.8673L24.9244 18.5669ZM3.18042 12.6844C3.00253 12.6844 2.82962 12.7431 2.68848 12.8512C2.54734 12.9593 2.44583 13.1109 2.39969 13.2824L1.1179 18.0585C1.09475 18.1435 1.09165 18.2327 1.10884 18.3191C1.12602 18.4055 1.16302 18.4867 1.21694 18.5564C1.27031 18.6265 1.33923 18.6833 1.41829 18.7222C1.49735 18.7612 1.58439 18.7813 1.67256 18.781H4.84209L5.69741 15.5943H3.81902L3.60458 15.8071H5.41892L4.6778 18.5681H1.67256C1.6173 18.5683 1.56274 18.5557 1.51319 18.5313C1.46364 18.5068 1.42046 18.4712 1.38705 18.4273C1.35289 18.3836 1.32942 18.3326 1.31849 18.2782C1.30757 18.2239 1.30951 18.1678 1.32414 18.1143L2.60593 13.3383C2.63981 13.212 2.71449 13.1005 2.81837 13.021C2.92225 12.9414 3.04952 12.8984 3.18042 12.8985H6.51891L6.73216 12.6844L3.18042 12.6844Z" fill="white"/>
<path d="M13.8812 11.038C13.3871 11.038 13.1331 11.3405 13.1331 11.6826C13.1331 12.0235 13.4 12.3272 13.8812 12.3272C14.3531 12.3272 14.6305 12.0235 14.6305 11.6826C14.6305 11.3405 14.3765 11.038 13.8812 11.038ZM14.8227 11.0881V11.23H15.2888V12.2748H15.6536V11.23H16.1209V11.0881H14.8227ZM16.284 11.0881V11.23H16.7501V12.2748H17.1148V11.23H17.581V11.0881H16.284ZM11.9247 11.0893V12.1189C11.9247 12.2259 11.9806 12.276 12.0785 12.276H12.97V12.1329H12.3582C12.2976 12.1329 12.2859 12.0991 12.2859 12.0515V11.0893H11.9247ZM17.9689 11.0893C17.8827 11.0893 17.8 11.1067 17.8 11.2614V12.1038C17.8 12.2609 17.8781 12.2772 17.9807 12.2772H18.9268V12.1341H18.2451C18.1636 12.1341 18.1613 12.098 18.1613 12.0503V11.7152H18.9152V11.5744L18.1613 11.5744V11.3161C18.1613 11.2405 18.1892 11.2312 18.2545 11.2312H18.9268V11.0893H17.9689ZM13.8812 11.1707C14.1061 11.1707 14.2774 11.4033 14.2774 11.6826C14.2774 11.963 14.1061 12.191 13.8812 12.191C13.6563 12.191 13.485 11.963 13.485 11.6826C13.485 11.4033 13.6563 11.1707 13.8812 11.1707ZM3.10363 12.0351C2.78823 12.0351 2.48164 12.1389 2.23137 12.3306C1.98109 12.5222 1.80111 12.7909 1.71931 13.095L0.388561 18.0537C0.34513 18.2158 0.339603 18.3856 0.372407 18.5501C0.405212 18.7146 0.475468 18.8693 0.577744 19.0024C0.68002 19.1354 0.811575 19.2432 0.962235 19.3174C1.1129 19.3916 1.27863 19.4301 1.44661 19.4302H5.39806L6.57149 15.0579H4.35399L3.81911 15.593H5.69748L4.84215 18.7809H1.67269C1.5843 18.7816 1.49696 18.7618 1.41755 18.7231C1.33813 18.6843 1.26881 18.6277 1.21503 18.5577C1.16126 18.4876 1.12451 18.4061 1.10767 18.3195C1.09083 18.2328 1.09437 18.1435 1.118 18.0584L2.39979 13.2823C2.44595 13.1108 2.54746 12.9592 2.68862 12.8511C2.82978 12.743 3.00269 12.6844 3.18059 12.6844H6.73226L7.38244 12.0352L3.10363 12.0351ZM22.5136 12.0352L20.8973 18.0549C20.8541 18.2169 20.8488 18.3866 20.8817 18.5509C20.9146 18.7152 20.9849 18.8698 21.0871 19.0027C21.1894 19.1356 21.3209 19.2433 21.4714 19.3174C21.622 19.3915 21.7876 19.43 21.9554 19.4301H23.7465L23.9201 18.7809H22.1815C22.0933 18.7812 22.0063 18.7611 21.9272 18.7222C21.8482 18.6832 21.7792 18.6265 21.7258 18.5564C21.6719 18.4867 21.6349 18.4054 21.6177 18.319C21.6006 18.2326 21.6037 18.1434 21.6268 18.0584L23.243 12.0352H22.5136ZM23.4644 12.0352L22.8841 14.1957H25.4022L26.0525 13.5465H23.7883L24.1939 12.0352H23.4644ZM3.18049 12.8973C3.0496 12.8972 2.92233 12.9402 2.81845 13.0197C2.71457 13.0992 2.63989 13.2108 2.606 13.337L2.60606 13.3371L1.32427 18.1131C1.30964 18.1666 1.3077 18.2227 1.31862 18.277C1.32953 18.3313 1.353 18.3824 1.38715 18.4261C1.42056 18.47 1.46374 18.5056 1.51329 18.53C1.56284 18.5545 1.6174 18.5671 1.67265 18.5668H4.6779L5.41902 15.8059H3.60472L3.06865 16.3411H4.54506L4.12206 17.9176H2.10731L3.28075 13.5465H5.86877L6.51901 12.8973H3.18049ZM7.92666 13.5453L6.34772 19.429H7.07834L8.65728 13.5453H7.92666ZM8.87866 13.5453L7.29972 19.429H8.02922L9.60816 13.5453H8.87866ZM11.6567 13.5465C11.3415 13.5467 11.0352 13.6507 10.7851 13.8423C10.5351 14.0339 10.3553 14.3025 10.2735 14.6064L9.34835 18.0537C9.30495 18.2157 9.2994 18.3854 9.33214 18.5498C9.36488 18.7142 9.43503 18.8689 9.53717 19.0019C9.63932 19.1349 9.77072 19.2427 9.92123 19.317C10.0717 19.3912 10.2373 19.43 10.4052 19.4302H11.1941L11.8443 18.7809H10.6324C10.5439 18.7818 10.4565 18.7621 10.3769 18.7235C10.2973 18.6848 10.2279 18.6282 10.174 18.5581C10.1201 18.4881 10.0832 18.4065 10.0663 18.3197C10.0494 18.233 10.0529 18.1436 10.0766 18.0584L10.9528 14.7937C10.999 14.6221 11.1005 14.4706 11.2416 14.3625C11.3828 14.2544 11.5557 14.1957 11.7336 14.1957H14.479L13.0737 19.4301H13.8043L15.3832 13.5465H11.6567ZM17.4306 13.5465C17.1154 13.5467 16.8091 13.6507 16.5591 13.8423C16.309 14.0339 16.1292 14.3025 16.0474 14.6064L14.7528 19.4301H15.4823L16.7268 14.7938V14.7937C16.773 14.6221 16.8745 14.4706 17.0156 14.3625C17.1567 14.2544 17.3296 14.1957 17.5075 14.1956H20.2529L18.8476 19.4301H19.5782L21.1571 13.5465L17.4306 13.5465ZM27.3715 13.5465C27.0564 13.5467 26.75 13.6507 26.5 13.8423C26.2499 14.0339 26.0701 14.3025 25.9884 14.6064L25.3114 17.1276H28.0963L27.8843 17.9188H25.0993L24.9257 18.568H27.9834C28.1144 18.568 28.2418 18.5248 28.3457 18.445C28.4496 18.3653 28.5241 18.2535 28.5578 18.127L28.9692 16.5959H26.1842L26.6677 14.7949C26.7138 14.6232 26.8153 14.4715 26.9564 14.3632C27.0976 14.2549 27.2705 14.196 27.4485 14.1957H30.5062L31.1564 13.5465H27.3715ZM17.5075 14.4086C17.3768 14.4088 17.2498 14.4519 17.1462 14.5314C17.0425 14.611 16.968 14.7224 16.9342 14.8484L15.7048 19.4289H16.4343L17.6078 15.0579H19.0702L17.8968 19.429H18.6262L19.9733 14.4086L17.5075 14.4086ZM11.7337 14.4098C11.6029 14.4101 11.4758 14.4533 11.372 14.5327C11.2682 14.6122 11.1934 14.7235 11.1592 14.8495C10.9412 15.6663 10.2828 18.1143 10.2828 18.1143C10.2683 18.1677 10.2663 18.2237 10.277 18.278C10.2878 18.3323 10.3109 18.3834 10.3446 18.4273C10.3783 18.4712 10.4217 18.5067 10.4714 18.5311C10.5212 18.5555 10.5759 18.5682 10.6313 18.568H12.0576L12.4619 18.1643L12.1217 19.4302H12.8523L14.1994 14.4098L11.7337 14.4098ZM22.8282 14.4098L21.8342 18.1143C21.8194 18.1677 21.8172 18.2238 21.8279 18.2782C21.8385 18.3326 21.8616 18.3838 21.8953 18.4277C21.9291 18.4717 21.9726 18.5072 22.0225 18.5316C22.0723 18.5559 22.1272 18.5684 22.1827 18.568H23.9783L24.1531 17.9188H22.6173L23.384 15.059H24.5399L25.1902 14.4098L22.8282 14.4098ZM27.4485 14.4098C27.3178 14.4099 27.1908 14.4531 27.0872 14.5326C26.9835 14.6121 26.909 14.7235 26.8752 14.8495L26.4638 16.3819H29.2477L28.7641 18.1828C28.7179 18.3544 28.6164 18.506 28.4753 18.6141C28.3342 18.7222 28.1613 18.7808 27.9834 18.7809H24.8674L24.6938 19.4301H28.0602C28.3756 19.4301 28.6822 19.3263 28.9325 19.1346C29.1827 18.943 29.3627 18.6743 29.4445 18.3702L30.1204 15.849H27.3366L27.5487 15.059H29.6415L30.2917 14.4098L27.4485 14.4098ZM11.8338 15.059H13.2951L12.5272 17.9188H11.0659L11.8338 15.059Z" fill="#D01031"/>
<path d="M7.60034 21.5477L8.67122 20.6541L9.3261 21.4372L9.12216 21.607L8.67004 21.066L8.44047 21.2568L8.83202 21.7245L8.63042 21.8932L8.24005 21.4255L8.00466 21.6221L8.45682 22.162L8.25522 22.3307L7.60034 21.5477ZM8.8157 22.8985C8.67234 22.7647 8.60012 22.5948 8.58962 22.3563L8.87282 22.3225C8.87282 22.504 8.9101 22.6018 9.01029 22.6937C9.12332 22.8042 9.22587 22.8217 9.29695 22.7495C9.33656 22.7077 9.34591 22.6204 9.26783 22.525L9.16645 22.3958C9.03592 22.2341 8.97765 22.0003 9.14546 21.8222C9.3261 21.6314 9.59643 21.6431 9.82834 21.8618C9.96077 21.9911 10.0405 22.1648 10.052 22.3493L9.77704 22.3865C9.76773 22.1887 9.69666 22.1131 9.6372 22.0573C9.5405 21.9654 9.45426 21.9619 9.37851 22.0398C9.32725 22.0945 9.34123 22.1573 9.40533 22.2423C9.43584 22.2814 9.46732 22.3198 9.49973 22.3574C9.66517 22.5552 9.69781 22.8031 9.53583 22.9718C9.35288 23.1649 9.05925 23.1288 8.8157 22.8985ZM10.7291 22.9206L10.0987 23.856L9.83064 23.6757L10.461 22.7402L10.1185 22.5098L10.2676 22.29L11.222 22.9322L11.0728 23.1521L10.7291 22.9206ZM10.4622 24.2108L10.7932 24.3935L10.968 24.0747L10.637 23.8921L10.4622 24.2108ZM12.0645 23.5907L11.9456 23.9048L12.294 23.8257L11.9293 24.7925L12.2195 24.9019L12.7182 23.5814L12.4816 23.493L12.0645 23.5907ZM13.4395 23.7792C13.7413 23.8525 13.8893 24.1073 13.831 24.3446C13.794 24.4662 13.7308 24.5782 13.6457 24.6728L13.1913 25.1789L12.8463 25.0951L13.2577 24.6541C13.1908 24.6549 13.1246 24.6405 13.0641 24.6121C13.0035 24.5836 12.9502 24.5419 12.9082 24.4899C12.8661 24.438 12.8364 24.3772 12.8213 24.3121C12.8061 24.2471 12.806 24.1794 12.8207 24.1143C12.8813 23.8676 13.1202 23.7012 13.4395 23.7792ZM13.2799 24.4051C13.4279 24.4412 13.4978 24.3726 13.5222 24.2702C13.5467 24.1713 13.4978 24.0724 13.3754 24.0422C13.2449 24.0107 13.1575 24.0736 13.1307 24.1853C13.1039 24.2934 13.1587 24.376 13.2799 24.4051ZM14.3939 25.4104C14.0466 25.3743 13.8858 25.1579 13.9114 24.9101C13.9192 24.8457 13.9442 24.7846 13.9837 24.7332C14.0233 24.6819 14.076 24.6421 14.1363 24.6181C14.0896 24.5851 14.0527 24.5401 14.0295 24.4878C14.0063 24.4356 13.9977 24.3781 14.0047 24.3214C14.0303 24.0759 14.2424 23.9363 14.5395 23.9677C14.86 24.0003 15.0219 24.1899 14.9986 24.4214C14.9949 24.4789 14.9753 24.5343 14.9419 24.5813C14.9086 24.6283 14.8629 24.6652 14.8098 24.6879C14.8621 24.7245 14.9041 24.7739 14.9319 24.8313C14.9596 24.8888 14.9722 24.9523 14.9683 25.016C14.9439 25.2521 14.7481 25.4476 14.3939 25.4104ZM14.4533 24.7937C14.3379 24.7809 14.2447 24.8589 14.2354 24.9438C14.2261 25.0334 14.2773 25.1207 14.4195 25.1346C14.5675 25.1509 14.6339 25.0753 14.6432 24.9857C14.6526 24.8996 14.5803 24.8065 14.4533 24.7937ZM14.5115 24.2294C14.3974 24.2178 14.3286 24.2725 14.3193 24.3598C14.3111 24.44 14.3787 24.511 14.4813 24.5227C14.5955 24.5343 14.6712 24.4761 14.6817 24.3935C14.6922 24.3086 14.6304 24.2423 14.5116 24.2294M15.2154 25.436L15.2084 25.2091L15.7584 24.618C15.8213 24.5471 15.8551 24.4761 15.854 24.4191C15.8516 24.3411 15.7934 24.2771 15.6791 24.2807C15.5452 24.2841 15.4869 24.3854 15.4799 24.5052L15.1711 24.5145C15.1676 24.2062 15.4135 24.02 15.6698 24.013C15.9343 24.0061 16.1674 24.148 16.1744 24.4121C16.1779 24.5285 16.1371 24.646 16.0182 24.7751L15.6617 25.1544L16.207 25.1393L16.2151 25.4081L15.2154 25.436ZM17.8431 25.1253L17.2278 25.2742L16.898 23.92L17.4783 23.7792C17.7801 23.7059 18.0039 23.8211 18.0633 24.0642C18.0772 24.1626 18.0571 24.2628 18.0062 24.3481C18.0959 24.4028 18.1903 24.4901 18.2171 24.6006C18.28 24.8565 18.1344 25.0543 17.8431 25.1253ZM17.5704 24.0305L17.2662 24.1049L17.335 24.3865L17.6496 24.3097C17.7429 24.2876 17.7708 24.1992 17.7557 24.1364C17.7507 24.1171 17.7419 24.0991 17.7298 24.0833C17.7178 24.0675 17.7027 24.0543 17.6854 24.0445C17.6681 24.0346 17.6491 24.0283 17.6293 24.0259C17.6096 24.0235 17.5895 24.025 17.5704 24.0305ZM17.7125 24.561L17.3956 24.6378L17.4714 24.9462L17.7965 24.867C17.8932 24.8438 17.9212 24.7576 17.9025 24.6809C17.8839 24.6029 17.8151 24.5366 17.7125 24.561ZM19.5991 24.0142C19.7203 24.3016 19.5374 24.5424 19.2297 24.6716C18.9303 24.7984 18.6238 24.7635 18.5026 24.4761L18.1356 23.6082L18.4327 23.4837L18.8033 24.3597C18.8545 24.4784 18.9874 24.4843 19.126 24.4249C19.267 24.3656 19.3556 24.2667 19.3055 24.148L18.9349 23.2719L19.2321 23.1463L19.5991 24.0142ZM20.5314 24.0235C20.3624 24.1236 20.1794 24.1445 19.9464 24.0887L19.993 23.8071C20.169 23.8583 20.2727 23.8502 20.3892 23.7804C20.5267 23.7024 20.5733 23.6081 20.5232 23.5209C20.4941 23.4697 20.4125 23.4371 20.2995 23.486L20.1468 23.5465C19.9545 23.6256 19.7122 23.6163 19.5886 23.4057C19.457 23.1789 19.5432 22.9241 19.8182 22.7623C19.9795 22.6713 20.1689 22.6436 20.3496 22.6844L20.3088 22.9578C20.1153 22.9124 20.0233 22.9589 19.9534 22.9996C19.838 23.0672 19.8089 23.1486 19.8636 23.2429C19.9021 23.308 19.9662 23.3126 20.0664 23.2743C20.1123 23.2559 20.1577 23.2365 20.2027 23.2161C20.4393 23.1125 20.6863 23.1521 20.804 23.3545C20.9392 23.5826 20.8215 23.8548 20.5314 24.0235ZM22.0066 22.8961L21.7363 22.7507L21.3505 23.0753L21.4531 23.3615L21.1979 23.5767L20.7248 22.1515L20.9334 21.9758L22.2594 22.6844L22.0066 22.8961ZM21.1291 22.4203L21.2596 22.8158L21.4985 22.6146L21.1291 22.4203ZM23.081 21.7524L22.0392 21.6652L22.6824 22.2166L22.4762 22.4563L21.417 21.55L21.5754 21.365L22.6207 21.4511L21.9751 20.8996L22.1826 20.6576L23.2429 21.564L23.081 21.7524Z" fill="white"/>
</g>
<defs>
<clipPath id="clip0_121_940">
<rect width="32" height="24" fill="white" transform="translate(0 4)"/>
</clipPath>
</defs>
</svg>
