<svg width="32" height="32" viewBox="0 0 32 32" fill="none" xmlns="http://www.w3.org/2000/svg">
<g clip-path="url(#clip0_121_952)">
<path d="M16.5194 27.8122C11.572 27.8767 7.28251 24.8923 5.4541 20.6105C5.53406 20.5782 5.61054 20.5364 5.68383 20.4878C7.46327 24.6896 11.6609 27.6146 16.5159 27.5509C21.7724 27.4799 26.1641 23.9344 27.52 19.1362C27.6015 19.1668 27.6861 19.1882 27.7723 19.2C26.3843 24.1046 21.8872 27.7397 16.5194 27.8122ZM4.51351 16.1565C4.42913 9.64702 9.67559 4.27784 16.2088 4.1879C22.6225 4.1083 27.9292 9.14463 28.2035 15.4851C28.118 15.4637 28.0297 15.4521 27.9397 15.4508C27.6482 9.26005 22.4796 4.37146 16.2121 4.44922C9.81079 4.53732 4.69315 9.77502 4.77599 16.1533C4.77958 16.4234 4.79324 16.691 4.8152 16.9564C4.72692 16.9717 4.64066 16.9968 4.55806 17.0315C4.53237 16.7405 4.51751 16.4486 4.51351 16.1565ZM29.3856 17.3296C29.3856 16.5039 28.9706 15.8041 28.3943 15.5515C28.1542 9.07567 22.7468 3.91983 16.2063 4.00107C9.56976 4.09244 4.24036 9.54644 4.32597 16.159C4.33039 16.4846 4.34835 16.8071 4.37853 17.1258C3.8893 17.4302 3.55127 18.072 3.55127 18.817C3.55127 19.8554 4.20649 20.6971 5.01475 20.6971C5.10334 20.6971 5.18967 20.6854 5.27405 20.6658C7.12699 25.0249 11.4892 28.065 16.522 27.999C21.9906 27.9253 26.5698 24.2113 27.9653 19.207C28.7534 19.1774 29.3856 18.3492 29.3856 17.3296Z" fill="#BEC0C2"/>
<path d="M8.59614 13.7501C9.84447 9.49077 14.3225 7.04494 18.5985 8.29026C22.873 9.53436 25.3254 13.9972 24.0772 18.2579C22.8282 22.5176 18.35 24.9619 14.0746 23.718C9.80085 22.473 7.3472 18.0112 8.59614 13.7501Z" fill="white"/>
<path d="M20.6546 10.5675L20.8923 9.75283L21.1131 9.65696L20.2964 9.22988C20.2218 9.18977 20.1628 9.21484 20.1426 9.25403L20.1182 9.3056C20.0967 9.34745 20.121 9.41273 20.1874 9.44721L20.822 9.78087L20.6053 9.87623L20.4281 10.4986C20.4061 10.5708 20.4353 10.6326 20.481 10.6478L20.5332 10.6637C20.5745 10.676 20.6324 10.649 20.6546 10.5675Z" fill="#BEC0C2"/>
<path d="M19.8201 10.8537L20.112 10.0596L20.3378 9.9803L19.5529 9.4947C19.4808 9.44978 19.4206 9.47034 19.3975 9.508L19.3698 9.55578C19.3459 9.59783 19.3649 9.66373 19.429 9.70302L20.0394 10.0812L19.8176 10.1607L19.5963 10.7681C19.5704 10.8397 19.595 10.9036 19.6386 10.9213L19.6905 10.9408C19.7315 10.9563 19.791 10.9331 19.8201 10.8537Z" fill="#BEC0C2"/>
<path d="M18.9663 11.0784L19.3112 10.3082L19.5434 10.2445L18.7925 9.70412C18.7241 9.6547 18.6623 9.66964 18.637 9.70596L18.6049 9.75334C18.5792 9.79212 18.5937 9.85924 18.6547 9.90313L19.2376 10.3244L19.0113 10.3879L18.7491 10.9778C18.7184 11.0472 18.7391 11.1124 18.7809 11.1337L18.8314 11.1566C18.8716 11.1753 18.9328 11.1563 18.9663 11.0784Z" fill="#BEC0C2"/>
<path d="M18.0992 11.2427L18.4963 10.4981L18.7315 10.4512L18.0194 9.85891C17.9558 9.80325 17.8927 9.81553 17.8644 9.85062L17.8296 9.89401C17.8 9.93053 17.8109 9.9995 17.869 10.047L18.4224 10.5089L18.1912 10.5567L17.8895 11.1265C17.8541 11.1918 17.87 11.2594 17.9112 11.2819L17.9599 11.3107C17.9982 11.331 18.0602 11.318 18.0992 11.2427Z" fill="#BEC0C2"/>
<path d="M17.2228 11.3428L17.6707 10.629L17.9085 10.6001L17.237 9.95697C17.177 9.89753 17.1145 9.90448 17.0838 9.93712L17.0461 9.97836C17.0144 10.0138 17.0209 10.082 17.0744 10.134L17.5953 10.6347L17.3617 10.6656L17.0226 11.2108C16.9824 11.276 16.9937 11.3441 17.0315 11.3698L17.0794 11.4C17.1158 11.4243 17.1785 11.4144 17.2228 11.3428Z" fill="#BEC0C2"/>
<path d="M16.3426 11.3787L16.8362 10.6996L17.0773 10.6887L16.4513 9.99902C16.3954 9.93589 16.3302 9.93742 16.2991 9.96761L16.2578 10.0062C16.2248 10.0389 16.2257 10.1083 16.2761 10.163L16.7615 10.7012L16.527 10.7145L16.1502 11.2345C16.1061 11.2948 16.1129 11.3632 16.1502 11.3924L16.1943 11.4267C16.2291 11.4526 16.2929 11.4484 16.3426 11.3787Z" fill="#BEC0C2"/>
<path d="M15.4605 11.3527L16.0003 10.7108L16.241 10.7158L15.664 9.98343C15.612 9.9159 15.5476 9.91395 15.514 9.94148L15.4712 9.97729C15.435 10.0073 15.4314 10.0765 15.4782 10.135L15.9248 10.7064L15.6892 10.7025L15.2798 11.1942C15.2311 11.2508 15.2327 11.3199 15.2673 11.3519L15.3097 11.389C15.3418 11.4181 15.4059 11.4177 15.4605 11.3527Z" fill="#BEC0C2"/>
<path d="M14.5822 11.2622L15.1647 10.6612L15.4045 10.6832L14.8783 9.9114C14.8318 9.8409 14.7685 9.83394 14.7333 9.8586L14.6872 9.89124C14.6484 9.91795 14.6399 9.98773 14.6836 10.0492L15.0897 10.6503L14.8562 10.6304L14.4125 11.0902C14.3599 11.144 14.3574 11.2139 14.3902 11.2487L14.4293 11.2867C14.4607 11.3186 14.5238 11.3236 14.5822 11.2622Z" fill="#BEC0C2"/>
<path d="M13.7118 11.1087L14.3341 10.5522L14.5719 10.5913L14.1004 9.7832C14.0583 9.70922 13.9953 9.69755 13.958 9.72037L13.9095 9.74831C13.8703 9.77389 13.8581 9.84172 13.8962 9.90639L14.2608 10.5358L14.028 10.4983L13.5543 10.9264C13.4989 10.9751 13.4914 11.0439 13.5218 11.0796L13.5584 11.1231C13.5869 11.1564 13.6505 11.1658 13.7118 11.1087Z" fill="#BEC0C2"/>
<path d="M12.8547 10.893L13.5137 10.3822L13.7473 10.4385L13.3317 9.59934C13.2962 9.52127 13.2332 9.50592 13.1945 9.52547L13.1451 9.55095C13.1042 9.57305 13.087 9.63904 13.1205 9.70709L13.4418 10.3615L13.2118 10.3064L12.71 10.699C12.6507 10.7445 12.6394 10.8128 12.6667 10.8505L12.7002 10.8959C12.7263 10.9322 12.7899 10.9458 12.8547 10.893Z" fill="#BEC0C2"/>
<path d="M12.0143 10.6167L12.7063 10.1542L12.9363 10.2282L12.5789 9.35953C12.5473 9.28105 12.4866 9.26048 12.4463 9.27737L12.3953 9.29865C12.3532 9.31748 12.33 9.38255 12.3602 9.45295L12.6353 10.1274L12.4115 10.0575L11.8829 10.4127C11.8206 10.4532 11.8029 10.5202 11.8291 10.5613L11.8595 10.6076C11.8829 10.645 11.9452 10.6635 12.0143 10.6167Z" fill="#BEC0C2"/>
<path d="M11.1936 10.2794L11.9164 9.86754L12.1399 9.9585L11.8429 9.06771C11.8172 8.98576 11.7584 8.96038 11.7159 8.97471L11.6642 8.99282C11.6206 9.00898 11.5933 9.07232 11.6182 9.14333L11.847 9.83725L11.6269 9.75008L11.0773 10.0667C11.0124 10.1026 10.9914 10.1684 11.0126 10.2093L11.0398 10.2589C11.0613 10.2993 11.1216 10.3212 11.1936 10.2794ZM11.548 21.6158L11.4255 22.3942L11.2276 22.513L12.054 22.7972C12.1292 22.8242 12.1822 22.7938 12.1959 22.7544L12.2135 22.7049C12.2279 22.6636 12.1979 22.608 12.1304 22.5837L11.4879 22.3604L11.6803 22.2438L11.7724 21.6496C11.7833 21.5799 11.7479 21.5266 11.7039 21.5195L11.6518 21.5111C11.6105 21.5053 11.5586 21.5381 11.548 21.6158Z" fill="#BEC0C2"/>
<path d="M12.3039 21.2432L12.1254 22.0121L11.9209 22.1153L12.7248 22.4572C12.7983 22.4896 12.8531 22.4629 12.8701 22.4248L12.8904 22.376C12.9085 22.3357 12.8815 22.2772 12.8162 22.2493L12.1908 21.9814L12.3922 21.8792L12.5241 21.2924C12.5411 21.2243 12.5096 21.1686 12.4646 21.1574L12.4141 21.1465C12.3741 21.1373 12.3205 21.1664 12.3039 21.2432Z" fill="#BEC0C2"/>
<path d="M13.083 20.9245L12.8515 21.6782L12.6406 21.766L13.4187 22.1644C13.4898 22.2018 13.5458 22.1787 13.5658 22.1424L13.5892 22.0964C13.6097 22.056 13.5877 21.9961 13.5244 21.9642L12.9195 21.6534L13.1267 21.5655L13.3013 20.9894C13.322 20.9214 13.2945 20.8639 13.2521 20.8506L13.2016 20.836C13.1614 20.8238 13.1053 20.8492 13.083 20.9245Z" fill="#BEC0C2"/>
<path d="M13.8836 20.6616L13.6008 21.3965L13.3828 21.4708L14.1314 21.9219C14.1992 21.9631 14.257 21.9453 14.2788 21.9105L14.3068 21.8644C14.3293 21.8267 14.3112 21.7658 14.2506 21.7288L13.6697 21.3767L13.8816 21.3032L14.0963 20.7408C14.1219 20.6746 14.0983 20.6155 14.0574 20.5984L14.0074 20.5808C13.9685 20.5661 13.9109 20.5874 13.8836 20.6616Z" fill="#BEC0C2"/>
<path d="M14.7008 20.4539L14.3666 21.168L14.145 21.2266L14.8588 21.7283C14.9233 21.7761 14.9827 21.7611 15.0074 21.7266L15.0379 21.6843C15.0637 21.6487 15.0495 21.5855 14.9913 21.5453L14.4358 21.1535L14.6534 21.0948L14.9075 20.5475C14.937 20.4852 14.9185 20.4233 14.8779 20.4052L14.8296 20.382C14.792 20.3653 14.7334 20.3818 14.7008 20.4539Z" fill="#BEC0C2"/>
<path d="M15.5305 20.3045L15.146 20.9937L14.9211 21.036L15.5988 21.5875C15.66 21.6387 15.7193 21.6289 15.7464 21.5957L15.7798 21.5554C15.8081 21.5208 15.7981 21.4583 15.7436 21.413L15.2175 20.983L15.4384 20.9404L15.7294 20.4138C15.7637 20.3513 15.7489 20.2889 15.7113 20.2675L15.6641 20.2428C15.6276 20.2224 15.5686 20.2354 15.5305 20.3045Z" fill="#BEC0C2"/>
<path d="M16.3684 20.2142L15.9377 20.8746L15.7083 20.9006L16.3462 21.498C16.4032 21.5531 16.4652 21.5473 16.4935 21.5175L16.5302 21.4793C16.5597 21.447 16.555 21.3821 16.5036 21.3351L16.009 20.8685L16.2312 20.841L16.5598 20.3362C16.5983 20.2774 16.5879 20.2139 16.5507 20.1899L16.5067 20.1607C16.4714 20.1389 16.4114 20.1475 16.3684 20.2142Z" fill="#BEC0C2"/>
<path d="M17.2106 20.1818L16.7341 20.8105L16.5037 20.822L17.0981 21.4614C17.1516 21.5208 17.2127 21.5188 17.2433 21.4909L17.2822 21.4548C17.3146 21.4251 17.3137 21.3608 17.2658 21.3095L16.8061 20.81L17.031 20.7979L17.3927 20.3171C17.4354 20.2619 17.4295 20.1975 17.3952 20.17L17.3523 20.1389C17.3197 20.1135 17.259 20.1181 17.2106 20.1818Z" fill="#BEC0C2"/>
<path d="M18.0536 20.209L17.5339 20.8025L17.3035 20.7979L17.8513 21.4784C17.9 21.54 17.961 21.5427 17.9929 21.5175L18.0354 21.4841C18.0705 21.4573 18.0743 21.3919 18.0291 21.3378L17.6058 20.8073L17.83 20.8114L18.2258 20.3572C18.2725 20.3043 18.2708 20.2391 18.2377 20.2092L18.1979 20.1764C18.1661 20.1491 18.1055 20.1485 18.0536 20.209Z" fill="#BEC0C2"/>
<path d="M18.8922 20.2944L18.3326 20.8497L18.1038 20.829L18.6006 21.5464C18.6453 21.612 18.7058 21.6186 18.7405 21.5949L18.7849 21.566C18.8211 21.5401 18.8285 21.477 18.7883 21.4193L18.4029 20.8601L18.6271 20.88L19.0537 20.4537C19.1033 20.4047 19.1064 20.3409 19.0758 20.3095L19.0379 20.2721C19.009 20.2423 18.948 20.238 18.8922 20.2944Z" fill="#BEC0C2"/>
<path d="M19.7227 20.4396L19.1246 20.9548L18.8984 20.9169L19.3446 21.6672C19.3832 21.7367 19.4442 21.747 19.4802 21.7262L19.5254 21.6997C19.5634 21.6768 19.5759 21.6145 19.5399 21.5538L19.1948 20.9693L19.4172 21.005L19.8724 20.6097C19.9263 20.5641 19.9332 20.5001 19.9046 20.4664L19.8701 20.4266C19.8433 20.3948 19.7816 20.3866 19.7227 20.4396Z" fill="#BEC0C2"/>
<path d="M20.5408 20.6412L19.9077 21.1136L19.6843 21.0595L20.0772 21.84C20.1118 21.9108 20.1715 21.9265 20.2084 21.9081L20.2558 21.8847C20.2948 21.8644 20.3129 21.8031 20.2805 21.7402L19.9775 21.1335L20.1951 21.1833L20.6779 20.8208C20.7354 20.7797 20.7477 20.7165 20.7207 20.6805L20.689 20.6391C20.6645 20.6059 20.6039 20.5931 20.5408 20.6412Z" fill="#BEC0C2"/>
<path d="M21.3429 20.9002L20.6787 21.3275L20.4597 21.2577L20.7962 22.063C20.8258 22.1373 20.883 22.1563 20.9229 22.1406L20.9706 22.1206C21.0117 22.1027 21.0339 22.0429 21.0059 21.9785L20.7467 21.3513L20.9618 21.4174L21.4671 21.0892C21.5265 21.0519 21.5431 20.9895 21.52 20.9529L21.4913 20.9088C21.4685 20.8729 21.4091 20.8569 21.3429 20.9002Z" fill="#BEC0C2"/>
<path d="M22.1251 21.2151L21.4322 21.5931L21.2185 21.5095L21.4971 22.3361C21.5216 22.4118 21.5773 22.4357 21.6168 22.4228L21.6676 22.4056C21.7094 22.3919 21.7351 22.3328 21.7126 22.2667L21.4982 21.6233L21.707 21.7043L22.2359 21.4113C22.2976 21.3783 22.3186 21.3178 22.2973 21.2793L22.2722 21.2329C22.2514 21.1967 22.1937 21.1756 22.1251 21.2151Z" fill="#BEC0C2"/>
<path d="M10.8137 10.6325C9.98675 10.7786 9.30095 11.4683 9.25229 12.2029C9.25044 12.231 9.24955 12.2593 9.24962 12.2875C9.24962 12.6157 9.37896 12.9106 9.61916 13.1255C9.9189 13.393 10.3578 13.4998 10.8229 13.4175C11.6495 13.2724 12.3357 12.5828 12.3849 11.8473C12.4085 11.4847 12.2787 11.1573 12.0181 10.9245C11.7181 10.6565 11.2793 10.5502 10.8137 10.6325ZM2.82884 12.7184L2.46166 14.1388C2.46166 14.1388 2.74251 14.0637 2.9397 14.0107C2.6958 15.0943 1.4406 20.6801 1.43238 20.7176C1.36741 20.9293 1.08912 21.085 0.8482 21.1609L0.643517 21.2253L0 23.3484L0.793282 23.02C3.39054 21.9454 7.27453 20.908 7.31364 20.8978L7.51873 20.8432L8.41908 18.3647L7.448 18.5929C7.3162 18.6235 7.23388 18.6795 7.1804 18.7432C7.05875 18.8918 6.66591 19.2986 6.29647 19.4193L4.58642 19.8887L4.57821 19.8907C4.58642 19.8542 6.52713 11.4187 6.52713 11.4187L2.82884 12.7184Z" fill="#A1A1A4"/>
<path d="M8.75549 14.0345L8.40196 15.4132C8.40196 15.4132 8.61506 15.3579 8.80887 15.3069C8.58078 16.1759 8.08128 18.0818 8.08128 18.0818C8.02472 18.312 7.99731 18.5353 7.99731 18.7458C7.99731 19.2102 8.13158 19.6131 8.39118 19.8998C8.63549 20.1696 9.10707 20.4669 9.96677 20.3491C10.6336 20.2584 11.2529 19.9368 11.8083 19.3925L12.1831 19.0253L11.0303 18.3355L10.8058 18.5489C10.7895 18.5647 10.7728 18.5781 10.757 18.5914C10.7633 18.5418 10.7734 18.4833 10.7895 18.4157C10.7884 18.4189 11.9795 13.5561 11.9795 13.5561L12.1582 12.826L8.75549 14.0345Z" fill="#A1A1A4"/>
<path d="M16.0261 13.1468C16.0741 13.1414 16.1258 13.1408 16.1742 13.1434L15.1317 17.3439C15.0918 17.4977 14.8561 17.6307 14.5844 17.6499C14.5728 17.6507 14.561 17.6477 14.5487 17.6447C14.6032 17.4292 15.6269 13.3538 15.6322 13.3321C15.6706 13.2734 15.8655 13.1648 16.0261 13.1468ZM16.2789 11.5707C14.314 11.812 12.833 12.981 12.4154 14.6208L11.8303 16.9806L11.8325 16.9707C11.6252 17.7241 11.7057 18.3191 12.0723 18.7392C12.4959 19.2239 13.2356 19.4011 14.2714 19.2664C16.246 19.0092 17.7078 17.9376 18.0876 16.4693C18.0878 16.4677 18.7492 13.8583 18.7492 13.8583C18.9349 13.0982 18.8413 12.5055 18.4731 12.0923C18.0495 11.6193 17.3117 11.4433 16.2789 11.5707ZM24.3775 9.89042C23.9701 9.95601 23.4959 10.1217 23.0671 10.3332C23.1042 10.1863 23.1442 10.0289 23.1442 10.0289L19.7094 11.302L19.3804 12.6716L19.7884 12.5489L18.4171 18.147L21.3175 17.4395L22.4914 12.5976C22.5578 12.3113 22.701 12.1319 22.9492 12.0238L22.2535 14.9421C22.2546 14.9382 22.2152 15.0913 22.2152 15.0913C22.0605 15.6823 21.8492 16.4921 22.2949 16.9921C22.541 17.2684 22.923 17.3737 23.43 17.3045C24.3268 17.1818 25.1158 16.7158 25.7758 15.9185L26.0694 15.5644C26.0694 15.5644 25.0817 14.9401 24.9884 14.8815C25.2083 13.967 25.7506 11.7089 25.7506 11.7089C25.8056 11.485 25.8337 11.2791 25.8337 11.0913C25.8337 10.7325 25.7318 10.4411 25.5296 10.2219C25.2649 9.93585 24.8453 9.81552 24.3775 9.89042ZM2.2304 24.8861L2.05005 24.3691L2.66154 24.0925C5.92582 22.7035 10.4277 21.1419 15.0128 19.8074C19.7164 18.4387 23.8949 17.4955 26.4776 17.2197L26.9366 17.1704L26.9106 18.4783L26.5876 18.5409C24.3597 18.9693 16.4792 20.7778 8.62019 26.0649L8.40103 26.2121L8.17684 26.0721C6.47202 25.0089 4.09105 24.863 2.82362 24.8704C2.63588 24.8675 2.2304 24.8861 2.2304 24.8861Z" fill="#A1A1A4"/>
<path d="M28.6791 9.13033C27.0171 9.47801 26.084 10.6655 26.1199 12.39C26.1412 13.422 26.7843 14.2732 27.4065 15.0963C27.9402 15.8022 28.4444 16.4693 28.4611 17.1398C28.4918 18.3858 27.9407 18.5611 27.7578 18.6024C27.4358 18.6744 27.1977 18.4801 27.1305 18.3986C27.6899 18.1385 28.2518 17.6434 28.2518 16.933C28.2518 16.8866 28.2494 16.8395 28.2447 16.7914C28.1981 16.3332 27.9757 16.0823 27.7975 15.9518C27.4008 15.6628 26.9308 15.7318 26.7963 15.7598C25.8177 15.963 25.1957 16.9263 25.3799 17.9531C25.6782 19.6155 27.2372 20.1282 28.5597 19.9C29.5169 19.7348 30.3166 19.2551 30.8112 18.5484C31.3004 17.8482 31.4659 16.9728 31.2891 16.017C31.1064 15.0271 30.5753 14.2467 30.0618 13.4913C29.5291 12.7079 29.0251 11.9674 28.9881 11.0786C28.9761 10.7951 29.0585 10.5831 29.1453 10.4989C29.179 10.4663 29.2008 10.4645 29.2214 10.4658C29.2525 10.4679 29.3252 10.4732 29.4028 10.5905C29.5757 10.8529 29.5994 11.3959 29.4563 11.8013L29.4087 11.9364L29.6549 12.6302L31.9999 11.5373L31.967 11.2485C31.8902 10.5536 31.5422 9.95154 30.9887 9.55117C30.3624 9.09953 29.5424 8.95015 28.6791 9.13033Z" fill="#A1A1A4"/>
<path d="M10.8646 10.9191C10.1761 11.0405 9.5834 11.6252 9.54408 12.2224C9.54249 12.2436 9.54177 12.2648 9.54193 12.2861C9.54193 12.5311 9.63718 12.75 9.81415 12.9082C10.0467 13.116 10.3957 13.1972 10.7721 13.1305C11.4608 13.0096 12.0535 12.4252 12.0934 11.8276C12.1113 11.5569 12.0152 11.3131 11.8229 11.1415C11.5906 10.9333 11.2414 10.8525 10.8646 10.9191ZM3.0731 12.9413L2.86975 13.7275C2.86975 13.7275 3.19988 13.6392 3.33045 13.6038C3.25192 13.954 1.71678 20.7846 1.71412 20.7958C1.59802 21.1914 1.13137 21.3773 0.93623 21.4385L0.878439 21.4568L0.458496 22.843L0.681556 22.7509C3.29698 21.6688 7.19893 20.6266 7.23794 20.6164L7.29594 20.6005L7.96018 18.7718L7.61251 18.853C7.46305 18.8881 7.40772 18.9015 7.39027 18.947C7.29974 19.0525 6.86008 19.544 6.38327 19.6975L4.65443 20.1719C4.48198 20.2134 4.35552 20.207 4.30265 20.1537C4.25512 20.1052 4.24999 19.9963 4.28828 19.8461C4.2892 19.8433 6.12356 11.8696 6.12356 11.8696L3.0731 12.9413ZM8.99983 14.2563L8.80777 15.006C8.80777 15.006 9.10771 14.9279 9.21786 14.899C9.12937 15.2355 8.36565 18.1489 8.36565 18.1489C8.31412 18.3583 8.28918 18.5595 8.28918 18.7476C8.28918 19.1386 8.39778 19.4721 8.60853 19.7048C8.8052 19.9221 9.19445 20.1606 9.92707 20.0606C10.5297 19.9783 11.0941 19.6836 11.6037 19.1846L11.7093 19.0816L11.0707 18.6994L11.0082 18.7596C10.8718 18.8888 10.7355 18.9634 10.6025 18.9812C10.5407 18.99 10.5206 18.968 10.5117 18.9586C10.4562 18.8981 10.4216 18.7028 10.5052 18.349L11.7457 13.2816L8.99983 14.2563ZM15.3515 13.2494C15.4014 13.0488 15.7644 12.8834 15.9929 12.8573C16.1853 12.8357 16.4493 12.865 16.5132 12.9377C16.5196 12.9445 16.5231 12.9504 16.5191 12.9676L15.4153 17.4139C15.3423 17.695 15.0092 17.9117 14.6048 17.9404C14.4827 17.9489 14.3495 17.8996 14.2789 17.8205C14.249 17.7865 14.2347 17.7516 14.2347 17.7143C14.2347 17.7048 14.2358 17.6949 14.2379 17.6845C14.2397 17.6763 15.3515 13.2494 15.3515 13.2494ZM16.3151 11.8595C14.4718 12.0862 13.0859 13.1714 12.6985 14.6927L12.114 17.0505C11.9344 17.7015 11.9944 18.2058 12.2926 18.5477C12.643 18.9487 13.3139 19.0972 14.2338 18.9776C16.0873 18.7359 17.4557 17.7477 17.8045 16.3966L18.4663 13.7868C18.6268 13.1277 18.556 12.6231 18.2546 12.2865C17.8993 11.8884 17.2462 11.7449 16.3151 11.8595ZM24.4246 10.1778C23.8497 10.2705 23.1092 10.5874 22.6119 10.9358L22.7241 10.4957L19.9573 11.5209L19.7829 12.2464C19.7829 12.2464 20.0841 12.1562 20.1936 12.123L18.8152 17.75L21.0756 17.199L22.2078 12.5287C22.3032 12.1152 22.5439 11.8488 22.9427 11.713C23.0974 11.6608 23.2166 11.6828 23.2662 11.7285C23.2774 11.7386 23.3116 11.7701 23.2899 11.8539L22.5378 15.0093C22.5385 15.0084 22.4978 15.1645 22.4978 15.1645C22.3602 15.6925 22.1717 16.4152 22.5129 16.7986C22.6907 16.9983 22.9856 17.0709 23.3904 17.0157C24.2121 16.9035 24.9391 16.4721 25.5507 15.7331L25.6332 15.6337L24.9787 15.2199L24.9163 15.3082C24.7687 15.5153 24.6026 15.6081 24.5349 15.5989C24.531 15.5871 24.5293 15.5747 24.5297 15.5624C24.5297 15.5433 24.5324 15.5192 24.5409 15.4924L24.5422 15.4885L25.4661 11.6412C25.5163 11.4392 25.5409 11.2558 25.5409 11.0923C25.5409 10.808 25.4659 10.5827 25.3149 10.4194C25.1181 10.2069 24.7935 10.1186 24.4246 10.1778ZM26.5085 17.5094C23.9424 17.7832 19.7826 18.7229 15.0947 20.0871C10.5206 21.4182 6.03046 22.976 2.77644 24.3602L2.65439 24.4129L2.70182 24.5763L2.82182 24.5791C4.12117 24.571 6.56435 24.7229 8.33199 25.8256L8.39532 25.8652L8.4565 25.8236C16.3616 20.5054 24.2901 18.6857 26.532 18.2549L26.6232 18.2373L26.6377 17.4955L26.5085 17.5094Z" fill="white"/>
<path d="M28.7393 9.41568C27.2057 9.73614 26.3793 10.7902 26.4121 12.384C26.4314 13.3221 27.046 14.1349 27.6401 14.9208C28.203 15.6652 28.7345 16.3689 28.7529 17.1331C28.7772 18.1132 28.4671 18.6933 27.831 18.8572C27.5883 18.9194 27.2784 18.8572 27.041 18.6974C26.8695 18.5822 26.7564 18.4256 26.7076 18.2507C27.2441 18.0857 27.9596 17.6227 27.9596 16.9269C27.9596 16.8918 27.9578 16.8569 27.9542 16.8211C27.9255 16.5388 27.8144 16.3254 27.6251 16.1868C27.3874 16.0137 27.0721 15.9999 26.8564 16.0449C26.02 16.2186 25.5089 17.0167 25.6678 17.9012C25.9311 19.3683 27.3256 19.8168 28.5099 19.6131C29.3898 19.4615 30.1217 19.0243 30.5711 18.3817C31.0155 17.7466 31.1645 16.9477 31.0018 16.0696C30.8301 15.1401 30.3167 14.3852 29.8199 13.6543C29.2629 12.8358 28.7362 12.0628 28.696 11.0909C28.6819 10.7575 28.7761 10.4506 28.9412 10.2904C29.0279 10.2064 29.1293 10.1679 29.2419 10.1755C29.4065 10.1872 29.5427 10.2726 29.6469 10.4305C29.8707 10.7707 29.9076 11.4013 29.7318 11.898L29.7187 11.9359L29.823 12.2303L31.6861 11.3617L31.6769 11.2804C31.609 10.6683 31.3035 10.1384 30.8168 9.7873C30.2586 9.38427 29.521 9.25217 28.7393 9.41568Z" fill="white"/>
<path d="M11.9791 11.8206C11.9421 12.3691 11.3931 12.9061 10.7523 13.0181C10.1111 13.1317 9.62121 12.7782 9.65785 12.2297C9.69419 11.6803 10.2437 11.144 10.8847 11.0315C11.5256 10.918 12.0153 11.2715 11.9791 11.8206ZM7.49706 18.9974L7.78079 18.9307L7.20851 20.5064C7.20851 20.5064 3.29086 21.5478 0.637451 22.6453L0.970655 21.5478C1.33301 21.4336 1.7158 21.1983 1.8244 20.8264L3.48354 13.4446L3.02951 13.5669L3.16809 13.0283L5.96562 12.0454L4.17766 19.818C4.07295 20.2262 4.25269 20.3849 4.68506 20.2818L6.41862 19.8058C6.99059 19.6214 7.49706 18.9974 7.49706 18.9974ZM11.0866 18.8418C10.9399 18.9817 10.7829 19.0722 10.6173 19.0944C10.3279 19.1351 10.2898 18.7651 10.3938 18.3229L11.5845 13.4598L9.09564 14.3437L8.96702 14.847L9.37813 14.7392L8.47625 18.1776C8.2343 19.167 8.56165 20.132 9.9112 19.9475C10.5265 19.8633 11.0635 19.5532 11.5234 19.1033L11.0866 18.8418ZM18.3553 13.759C18.7176 12.2724 17.8203 11.7891 16.3288 11.9725C14.6091 12.1844 13.2026 13.1777 12.8093 14.7205L12.2251 17.0779C11.8178 18.5547 12.7289 19.0582 14.2187 18.8646C15.9269 18.642 17.3368 17.7498 17.6937 16.3683L18.3553 13.759ZM14.613 18.0545C14.3645 18.0716 14.0768 17.9001 14.1255 17.6613L15.2406 13.2219C15.3055 12.9594 15.7227 12.773 15.98 12.7441C16.2045 12.7186 16.6884 12.7485 16.6301 12.9935L15.5264 17.4414C15.4338 17.7982 15.034 18.0246 14.613 18.0545ZM20.0546 11.6069L19.9405 12.0796L20.352 11.9562L18.9708 17.5948L20.9808 17.1048L22.0964 12.502C22.2121 12.0047 22.5159 11.7376 22.9057 11.6047C23.2086 11.502 23.4667 11.6236 23.4008 11.8819L22.6489 15.0356C22.4778 15.7216 22.0198 17.0879 23.3748 16.9028C24.3861 16.7648 25.0585 16.1483 25.4623 15.6604L25.0093 15.3743C24.8438 15.6067 24.6276 15.7481 24.4924 15.7064C24.4122 15.681 24.3992 15.5624 24.4319 15.4583L25.3544 11.6144C25.6435 10.4477 24.9998 10.2005 24.4425 10.2907C23.7512 10.4016 22.8442 10.8387 22.4179 11.2359L22.56 10.6781L20.0546 11.6069Z" fill="#0066B3"/>
<path d="M28.5817 11.095C28.5583 10.5324 28.8191 10.0321 29.2498 10.0618C29.9352 10.1094 30.1007 11.1973 29.8401 11.9359L29.8884 12.0736L31.5633 11.2935C31.4226 10.0326 30.242 9.21819 28.7621 9.52709C27.1684 9.85993 26.4975 10.9809 26.5261 12.3814C26.563 14.1477 28.827 15.4946 28.8673 17.1298C28.8975 18.3503 28.4086 18.8259 27.8594 18.9677C27.3668 19.0944 26.6494 18.7736 26.5699 18.1703C27.1412 18.0323 27.9131 17.5462 27.8399 16.8324C27.7682 16.1259 27.1505 16.0998 26.8796 16.1561C26.192 16.2989 25.6961 16.9381 25.7588 17.7162C20.0382 18.5081 9.20898 21.7473 2.82104 24.4653C4.61445 24.4543 6.80912 24.7411 8.39229 25.729C14.74 21.4588 21.5162 19.1929 25.8865 18.2698C26.282 19.3207 27.4091 19.6867 28.4904 19.5008C30.1136 19.2213 31.2317 17.9443 30.8891 16.0907C30.5336 14.1639 28.6612 12.9913 28.5817 11.095ZM10.8448 9.14554C10.4379 9.45905 10.1767 9.27886 9.98399 8.99442L10.3126 8.74128C10.4287 8.89087 10.5328 9.01192 10.7135 8.87276C10.8244 8.78722 10.8234 8.67365 10.7409 8.56744C10.5223 8.28535 9.84715 8.7773 9.48572 8.31093C9.29561 8.06567 9.26184 7.7799 9.66228 7.47151C9.98245 7.22523 10.2522 7.2461 10.4845 7.5904L10.1643 7.83689C10.0735 7.71963 9.96161 7.61537 9.82868 7.71769C9.72213 7.79964 9.70447 7.90697 9.78834 8.01543C10.0189 8.31267 10.6604 7.77734 11.042 8.2698C11.3564 8.6757 11.0952 8.95298 10.8448 9.14554ZM11.6116 6.74382L11.6067 6.74607L11.8183 7.59644L12.173 7.42086L11.6116 6.74382ZM11.608 8.53L11.2172 6.51329L11.7076 6.2708L13.0737 7.80445L12.6819 7.99835L12.3879 7.65435L11.8804 7.90544L11.9753 8.34828L11.608 8.53ZM13.3805 7.67604L12.9443 5.74478L13.5966 5.59887L14.1962 6.84398L14.2015 6.84276L14.2272 5.45726L14.8578 5.31586L15.2939 7.24712L14.8994 7.33553L14.563 5.84556L14.5576 5.84679L14.5208 7.42035L14.1346 7.50691L13.4439 6.09665L13.4386 6.09768L13.775 7.58754L13.3805 7.67604ZM16.3167 7.27526C15.8022 7.27209 15.708 6.96984 15.7319 6.62717L16.1473 6.63004C16.1462 6.81912 16.1536 6.97803 16.3817 6.97976C16.522 6.98048 16.5912 6.89054 16.5922 6.75599C16.5943 6.39982 15.7584 6.3724 15.7621 5.78304C15.7639 5.47322 15.9141 5.22745 16.4201 5.23063C16.8244 5.23308 17.0241 5.41551 16.9941 5.82919L16.5898 5.82643C16.5908 5.67858 16.5669 5.52745 16.3991 5.52663C16.2641 5.52581 16.1841 5.59918 16.1832 5.73628C16.1808 6.1119 17.0173 6.08427 17.0134 6.70657C17.0102 7.21939 16.633 7.27731 16.3167 7.27526ZM19.1609 5.62056L18.877 6.99542C18.8169 7.28539 18.5894 7.55786 18.0938 7.45616C17.6464 7.36428 17.4787 7.08904 17.5541 6.72397L17.8381 5.34911L18.2448 5.4326L17.9665 6.78045C17.9169 7.01956 18 7.13457 18.1482 7.16496C18.326 7.20139 18.4312 7.09988 18.4756 6.88502L18.754 5.53707L19.1609 5.62056ZM19.224 7.7004L20.0286 5.89079L20.5416 6.11732L20.4673 7.58365L20.4723 7.586L21.0296 6.3329L21.384 6.48955L20.5795 8.29916L20.0789 8.07805L20.1721 6.5359L20.167 6.53365L19.5786 7.85704L19.224 7.7004ZM22.5421 7.97359C22.6527 7.82676 22.7239 7.67819 22.5459 7.54907C22.3368 7.39753 22.1313 7.67911 21.9046 7.98934C21.5388 8.49019 21.5229 8.61451 21.7145 8.75325C21.77 8.79357 21.8397 8.82375 21.9037 8.84329L22.1627 8.48855L21.9803 8.35626L22.16 8.11008L22.6781 8.4861L22.086 9.29749C21.9817 9.24888 21.7268 9.11823 21.5932 9.02153C21.0283 8.61164 21.1337 8.33201 21.5774 7.72495C21.872 7.3213 22.1914 6.92574 22.7407 7.32427C23.0699 7.56308 23.1401 7.89572 22.8755 8.21577L22.5421 7.97359ZM13.2053 25.2118L13.4029 25.2745C13.4675 25.295 13.5711 25.2807 13.6146 25.1441C13.6477 25.0408 13.6014 24.9422 13.5017 24.9107L13.3197 24.8531L13.2053 25.2118ZM13.0087 25.8281L13.173 25.8802C13.2356 25.9 13.3772 25.9428 13.4399 25.7458C13.4797 25.621 13.4571 25.5299 13.3084 25.4829L13.1362 25.4282L13.0087 25.8281ZM12.6441 25.9509L13.0934 24.543L13.6177 24.7091C13.8426 24.7804 14.008 24.9038 13.9122 25.2041C13.8606 25.366 13.743 25.4574 13.5726 25.4379L13.5714 25.4417C13.7715 25.5374 13.7833 25.6893 13.7217 25.8824C13.6079 26.2392 13.2918 26.1561 13.1666 26.1164L12.6441 25.9509ZM14.6134 25.246L14.6094 25.2452L14.3554 25.8482L14.6463 25.9009L14.6134 25.246ZM13.8114 26.3132L14.4807 24.9329L14.8826 25.0058L15.0132 26.5311L14.692 26.4728L14.6702 26.1361L14.254 26.0606L14.1125 26.3677L13.8114 26.3132ZM15.6419 26.5954C15.2587 26.5734 15.2 26.3445 15.2311 26.09L15.5406 26.1078C15.5324 26.2488 15.5317 26.3676 15.7018 26.3776C15.8064 26.3835 15.8615 26.3189 15.8674 26.2189C15.8827 25.9533 15.2606 25.9011 15.2861 25.4619C15.2992 25.231 15.4207 25.0535 15.7978 25.0752C16.0991 25.0925 16.2409 25.236 16.2025 25.5432L15.9013 25.526C15.9076 25.4157 15.8957 25.3024 15.7707 25.2951C15.6703 25.2893 15.6076 25.3411 15.6017 25.4432C15.5855 25.723 16.21 25.7344 16.1831 26.1982C16.1611 26.5801 15.8777 26.6089 15.6419 26.5954ZM16.4647 26.5962L16.3863 25.1209L17.194 25.0782L17.2063 25.3052L16.708 25.3313L16.7273 25.6952L17.1865 25.6709L17.1986 25.8977L16.7393 25.9219L16.7622 26.3531L17.2768 26.326L17.2888 26.5528L16.4647 26.5962ZM17.8426 26.2489L18.0127 26.2204C18.0775 26.2095 18.2229 26.183 18.1884 25.9792C18.1666 25.8501 18.1048 25.7796 17.9509 25.8054L17.7727 25.8354L17.8426 26.2489ZM17.7348 25.6113L17.9393 25.577C18.0062 25.5658 18.0918 25.5056 18.0679 25.3645C18.0498 25.2576 17.9637 25.1911 17.8605 25.2085L17.6721 25.24L17.7348 25.6113ZM17.5747 26.5242L17.3285 25.0673L17.871 24.9762C18.1039 24.9372 18.3075 24.9715 18.3601 25.2823C18.3883 25.4497 18.3258 25.5848 18.1652 25.6448L18.1659 25.6489C18.3877 25.6429 18.4679 25.7725 18.5016 25.9725C18.5641 26.3417 18.2449 26.4119 18.1152 26.4335L17.5747 26.5242ZM19.0037 25.0008L18.9998 25.0019L19.0495 25.6539L19.3325 25.5687L19.0037 25.0008ZM18.7779 26.3149L18.7423 24.7823L19.1335 24.6645L19.9473 25.9629L19.6349 26.057L19.4612 25.7673L19.0563 25.8892L19.0708 26.2268L18.7779 26.3149ZM20.1584 25.8695L19.575 24.5114L19.86 24.3898L20.3464 25.5223L20.7732 25.3402L20.87 25.566L20.1584 25.8695ZM21.0646 25.4652L20.3547 24.1683L20.6268 24.0203L21.2188 25.1017L21.6261 24.8803L21.7441 25.0957L21.0646 25.4652ZM21.9158 24.1055C21.6763 23.7957 21.4484 23.5008 21.8532 23.1897C22.1038 22.9975 22.3111 23.0578 22.4955 23.3166L22.2548 23.5014C22.1345 23.3457 22.0617 23.3087 21.9886 23.3649C21.8504 23.471 21.9328 23.6144 22.1645 23.9142C22.3964 24.2142 22.5145 24.3302 22.6528 24.2241C22.7666 24.1366 22.6489 23.9944 22.5807 23.8996L22.8231 23.7134C23.0649 24.0262 23.0174 24.2229 22.7882 24.3991C22.3831 24.7102 22.1527 24.4118 21.9158 24.1055ZM23.3336 23.9188L22.311 22.8491L22.5355 22.6361L23.3881 23.528L23.724 23.2088L23.8939 23.3868L23.3336 23.9188ZM23.5568 21.5137L24.3612 22.1881C24.5309 22.3305 24.6294 22.5762 24.3861 22.8643C24.1668 23.1242 23.926 23.1362 23.7122 22.957L22.908 22.2826L23.1075 22.0462L23.8961 22.7075C24.036 22.8246 24.1411 22.8113 24.2139 22.7251C24.3011 22.6219 24.2717 22.5168 24.1459 22.4115L23.3573 21.7501L23.5568 21.5137Z" fill="#0066B3"/>
<path d="M24.8687 21.8103L24.9622 21.6659C24.9978 21.611 25.0764 21.486 24.9021 21.3738C24.7917 21.3028 24.6978 21.3007 24.6131 21.4315L24.515 21.5826L24.8687 21.8103ZM24.3237 21.4594L24.4362 21.2859C24.473 21.229 24.4862 21.1257 24.3655 21.0479C24.274 20.9891 24.1667 21.0075 24.1099 21.0953L24.0063 21.2551L24.3237 21.4594ZM24.892 22.1931L23.6467 21.3913L23.9451 20.9307C24.0733 20.7332 24.2359 20.6063 24.5016 20.7775C24.6447 20.8697 24.7026 21.0067 24.6388 21.1654L24.6422 21.1676C24.7873 21.0003 24.9375 21.0289 25.1083 21.1387C25.4238 21.3419 25.2606 21.6242 25.1893 21.7342L24.892 22.1931Z" fill="#0066B3"/>
</g>
<defs>
<clipPath id="clip0_121_952">
<rect width="32" height="24" fill="white" transform="translate(0 4)"/>
</clipPath>
</defs>
</svg>
