<svg width="326" height="240" viewBox="0 0 326 240" fill="none" xmlns="http://www.w3.org/2000/svg">
<g clip-path="url(#clip0_121_383)">
<path d="M163.763 0C97.576 0 43.9155 53.724 43.9155 120C43.9155 186.27 97.576 239.997 163.763 239.997C229.953 239.997 283.614 186.273 283.614 120C283.614 53.724 229.953 0 163.763 0Z" fill="#570514"/>
<path d="M163.763 235.604C99.9945 235.604 48.2998 183.852 48.2998 119.997C48.2998 56.1529 99.9945 4.39014 163.763 4.39014C227.538 4.39014 279.232 56.1529 279.232 119.997C279.232 183.855 227.538 235.604 163.763 235.604Z" fill="#7D0521"/>
<path d="M86.8028 67.414L75.1512 58.5746L77.225 55.8387L81.8849 59.3737L81.9094 59.3388L78.776 53.7867L80.8951 50.988L84.1504 57.3776L92.6617 59.6669L90.4729 62.5633L85.2761 60.9929L85.9942 62.4935L88.866 64.6746L86.8028 67.414ZM96.3177 55.7793L85.914 45.5056L88.3189 43.0559L98.7226 53.333L96.3177 55.7793ZM108.07 39.8942L108.105 39.8733L102.842 30.9955L105.453 29.0587L112.225 42.2497L109.133 44.553L102.142 36.921L102.114 36.9454L107.352 45.879L104.299 48.1543L93.6097 37.8841L96.2655 35.9055L103.226 43.534V43.4746L98.2277 34.4398L100.891 32.4507L108.07 39.8942ZM119.14 26.5496C119.04 26.3457 118.931 26.1466 118.812 25.9528C118.705 25.7618 118.566 25.5907 118.401 25.4468C118.254 25.3094 118.07 25.2195 117.871 25.1886C117.637 25.1548 117.398 25.199 117.192 25.3142C116.989 25.3986 116.819 25.5452 116.706 25.7327C116.592 25.9203 116.542 26.1392 116.561 26.3576C116.568 26.5773 116.611 26.7943 116.69 26.9997C116.773 27.2091 116.857 27.429 116.958 27.6279L119.614 33.016C119.701 33.1975 119.816 33.3964 119.952 33.6092C120.081 33.8186 120.231 33.9966 120.398 34.1467C120.559 34.2943 120.756 34.3956 120.97 34.4398C121.203 34.4863 121.444 34.4493 121.653 34.3351C121.869 34.2396 122.045 34.0701 122.148 33.857C122.232 33.6626 122.264 33.4499 122.242 33.2393C122.218 33.0058 122.162 32.7768 122.075 32.5588C121.988 32.3468 121.895 32.1373 121.796 31.9307L119.14 26.5496ZM124.741 30.1509C125.107 30.8838 125.354 31.5747 125.494 32.2029C125.633 32.838 125.63 33.4243 125.494 33.9582C125.336 34.516 125.038 35.0241 124.629 35.4344C124.204 35.8915 123.598 36.3103 122.817 36.6941C122.036 37.078 121.336 37.3048 120.712 37.3746C120.084 37.4444 119.516 37.3746 119.004 37.1722C118.454 36.9395 117.968 36.5766 117.589 36.1149C117.121 35.5514 116.724 34.9326 116.407 34.2723L113.779 28.94C113.152 27.6628 113.037 26.5147 113.424 25.4852C113.818 24.4627 114.693 23.6147 116.038 22.9482C117.387 22.2782 118.582 22.1107 119.621 22.4247C120.659 22.7528 121.486 23.5484 122.109 24.8187L124.741 30.1509ZM134.451 20.6589C134.381 20.4496 134.312 20.2297 134.221 20.0134C134.144 19.8113 134.036 19.6228 133.9 19.455C133.771 19.2979 133.603 19.1776 133.412 19.106C133.183 19.0363 132.938 19.0461 132.715 19.1339C132.492 19.1916 132.293 19.3187 132.147 19.4969C132.033 19.6631 131.961 19.8548 131.938 20.0552C131.91 20.2737 131.917 20.4951 131.959 20.7113C132.004 20.9451 132.064 21.165 132.123 21.3743L133.89 27.1149C133.953 27.3173 134.036 27.5302 134.134 27.7605C134.222 27.9741 134.341 28.1739 134.486 28.3537C134.629 28.5352 134.803 28.6643 135.005 28.7446C135.228 28.8263 135.472 28.8263 135.695 28.7446C135.925 28.6881 136.127 28.5506 136.263 28.3572C136.376 28.1775 136.442 27.9723 136.455 27.7605C136.464 27.525 136.443 27.2892 136.392 27.0591C136.344 26.8356 136.286 26.6143 136.218 26.396L134.451 20.6589ZM139.407 25.1118C139.651 25.89 139.791 26.6124 139.825 27.2545C139.86 27.9106 139.763 28.4829 139.543 28.9854C139.302 29.5124 138.93 29.9688 138.463 30.3115C137.857 30.7397 137.183 31.0608 136.469 31.2607C135.766 31.499 135.026 31.6135 134.284 31.5992C133.701 31.5781 133.132 31.414 132.628 31.1211C132.122 30.8042 131.701 30.3681 131.401 29.8508C131.028 29.2236 130.735 28.5518 130.53 27.8512L128.78 22.163C128.362 20.8055 128.432 19.6574 128.976 18.7082C129.53 17.752 130.523 17.0506 131.959 16.6074C133.398 16.1642 134.608 16.1851 135.577 16.6667C136.553 17.1518 137.243 18.0696 137.661 19.4236L139.407 25.1118ZM146.242 28.2316L144.541 13.7005L149.34 13.1351L152.108 21.5174L152.143 21.5069L152.962 12.7129L157.723 12.1545L159.424 26.6822L156.172 27.066L155.185 15.6303L155.15 15.6373L154.081 27.3138L151.547 27.6104L147.87 16.4922H147.835L149.473 27.8512L146.242 28.2316ZM174.062 27.2754L176.376 12.8281L179.764 13.3725L178.875 18.9176L181.224 19.298L182.11 13.7493L185.497 14.2902L183.183 28.7376L179.795 28.1932L180.757 22.1805L178.412 21.8071L177.446 27.8163L174.062 27.2754ZM188.683 30.1056L193.179 16.1956L200.652 18.614L199.746 21.3988L195.539 20.0308L194.713 22.5957L198.791 23.9183L197.888 26.6961L193.81 25.3735L192.841 28.3817L197.268 29.8194L196.375 32.6042L188.683 30.1056ZM208.368 28.7271L209.407 29.2506C209.597 29.3579 209.814 29.4064 210.031 29.3902C210.218 29.3709 210.397 29.3036 210.55 29.1948C210.72 29.0758 210.866 28.9268 210.982 28.7551C211.108 28.5756 211.22 28.3866 211.317 28.1897C211.485 27.8898 211.6 27.5626 211.655 27.2231C211.694 26.9857 211.645 26.7421 211.516 26.5391C211.369 26.3201 211.17 26.1413 210.937 26.0191C210.625 25.8404 210.307 25.674 209.982 25.5201L208.368 28.7271ZM204.58 36.2335L201.52 34.6841L208.107 21.6256L212.572 23.8799C213.84 24.5186 214.642 25.2688 214.984 26.1343C215.329 27.0067 215.168 28.0885 214.517 29.3867C214.161 30.0846 213.75 30.6255 213.283 31.0094C212.805 31.4003 212.181 31.5747 211.394 31.5433L211.38 31.5817C211.742 31.8648 212.012 32.2501 212.153 32.688C212.28 33.1354 212.241 33.6134 212.045 34.035L211.61 35.04L211.073 36.2335L210.564 37.3956C210.434 37.6901 210.325 37.9933 210.237 38.3029C210.219 38.507 210.244 38.7126 210.31 38.9066L210.219 39.0811L206.873 37.3921C206.901 37.242 206.918 37.0989 206.953 36.9594C206.987 36.8212 207.031 36.6859 207.086 36.5546C207.351 35.9613 207.626 35.4099 207.894 34.9004C208.163 34.3909 208.382 33.9233 208.539 33.4871C208.684 33.133 208.755 32.753 208.748 32.3704C208.724 32.0563 208.539 31.7911 208.191 31.5887L207.18 31.0792L204.58 36.2335ZM225.3 36.7535C225.429 36.5685 225.555 36.3835 225.673 36.1811C225.789 35.9971 225.875 35.7956 225.928 35.5844C225.973 35.3885 225.967 35.184 225.91 34.9912C225.828 34.766 225.675 34.5737 225.474 34.4433C225.293 34.3003 225.071 34.2184 224.84 34.2095C224.636 34.2178 224.437 34.274 224.258 34.3735C224.073 34.4891 223.905 34.6301 223.76 34.7922C223.599 34.9667 223.456 35.1412 223.327 35.3192L219.811 40.1908C219.692 40.3583 219.567 40.5538 219.441 40.7701C219.321 40.972 219.232 41.1908 219.176 41.4192C219.124 41.6305 219.128 41.8518 219.187 42.0613C219.257 42.2899 219.405 42.4865 219.605 42.6162C219.787 42.7636 220.016 42.8405 220.25 42.8325C220.462 42.8142 220.666 42.7421 220.842 42.6231C221.039 42.4958 221.215 42.3393 221.365 42.159C221.522 41.9671 221.665 41.7926 221.783 41.6181L225.3 36.7535ZM224.732 43.3944C224.251 44.0574 223.763 44.6018 223.268 45.0241C222.824 45.4145 222.294 45.6933 221.721 45.8372C221.155 45.9625 220.567 45.9384 220.013 45.7674C219.307 45.545 218.646 45.2013 218.058 44.7519C217.446 44.3273 216.909 43.8037 216.468 43.2024C216.132 42.7239 215.922 42.1681 215.858 41.5867C215.799 41.0388 215.893 40.456 216.12 39.8488C216.364 39.2381 216.726 38.603 217.2 37.94L220.686 33.1172C221.515 31.9656 222.47 31.327 223.561 31.1979C224.655 31.0652 225.809 31.4421 227.029 32.325C228.252 33.2079 228.96 34.185 229.162 35.2494C229.364 36.3138 229.047 37.427 228.214 38.5751L224.732 43.3944ZM226.276 50.8658L236.537 40.4456L242.128 45.9663L240.078 48.0496L236.927 44.9368L235.038 46.8562L238.095 49.8678L236.039 51.9546L232.989 48.9395L230.769 51.1904L234.083 54.4637L232.037 56.5506L226.276 50.8658ZM241.218 59.946L240.395 60.5672C240.236 60.6869 240.089 60.8238 239.96 60.9755C239.834 61.1104 239.739 61.2712 239.681 61.4466C239.622 61.6235 239.614 61.8131 239.656 61.9945C239.707 62.2208 239.81 62.4322 239.956 62.6122C240.2 62.9262 240.489 63.0728 240.841 63.0379C241.19 63.003 241.514 62.8739 241.81 62.6436C242.039 62.4862 242.222 62.2722 242.344 62.0224C242.451 61.8009 242.52 61.5624 242.546 61.3175C242.571 61.0642 242.565 60.8086 242.528 60.5567C242.501 60.2943 242.477 60.0313 242.459 59.7681C242.38 59.2054 242.327 58.6395 242.298 58.0721C242.272 57.5616 242.315 57.0499 242.424 56.5506C242.539 56.069 242.727 55.6223 242.985 55.2035C243.25 54.7848 243.637 54.3834 244.163 53.9926C245.261 53.1655 246.313 52.841 247.335 53.0399C248.349 53.2318 249.262 53.867 250.064 54.9348C250.51 55.5281 250.81 56.1213 250.963 56.7146C251.116 57.3078 251.13 57.8731 251.012 58.4175C250.897 58.9654 250.663 59.4784 250.301 59.967C249.907 60.4755 249.431 60.9144 248.893 61.2651L247 58.7386L247.509 58.3024C247.688 58.1606 247.845 57.9937 247.976 57.8068C248.098 57.639 248.174 57.4414 248.195 57.2345C248.203 56.9983 248.135 56.7659 248 56.5715C247.809 56.2714 247.582 56.0934 247.321 56.0411C247.038 55.9891 246.746 56.0478 246.505 56.2051C246.122 56.4249 245.885 56.7006 245.801 57.0182C245.712 57.3727 245.677 57.7385 245.696 58.1035C245.752 58.8782 245.836 59.5691 245.92 60.1764C246.01 60.7871 246.024 61.3629 245.968 61.9072C245.907 62.4614 245.73 62.9965 245.449 63.4776C245.16 63.9662 244.658 64.4827 243.947 65.0236C242.814 65.875 241.723 66.2275 240.674 66.0774C239.625 65.9204 238.667 65.2713 237.813 64.1232C237.389 63.5873 237.059 62.9831 236.837 62.3365C236.661 61.8184 236.598 61.2687 236.652 60.7242C236.702 60.2474 236.86 59.7881 237.112 59.3807C237.367 58.9794 237.684 58.6339 238.067 58.3443L239.311 57.402L241.218 59.946ZM78.1904 169.805C79.0165 169.345 79.7798 168.818 79.243 167.886C78.9189 167.31 78.4762 167.076 77.8593 167.422C77.1623 167.82 77.1414 168.413 77.11 169.142C77.0751 169.91 76.9846 171.337 76.7859 172.074C76.5489 172.985 76.0993 173.487 75.3116 173.937C73.5794 174.925 72.0284 174.286 71.0769 172.611C69.9128 170.563 70.6447 169.177 72.2758 168.249L72.945 167.865L73.914 169.575L73.3771 169.879C72.4709 170.35 71.9761 170.985 72.4536 171.833C72.8648 172.548 73.4365 172.67 74.1266 172.287C74.6703 171.972 74.8933 171.522 74.9491 170.908C75.1338 169.617 75.0049 168.225 75.5242 167.014C75.7732 166.493 76.1742 166.059 76.6743 165.771C78.2392 164.888 79.5881 165.276 80.6128 167.083C82.1603 169.805 80.0238 170.929 79.128 171.453L78.1904 169.805ZM74.6876 178.128L83.3488 172.161L86.4786 176.708L85.2135 177.591L83.1919 174.653L81.0101 176.153L82.8678 178.861L81.5991 179.737L79.7414 177.026L77.0717 178.872L79.0932 181.803L77.8244 182.675L74.6876 178.128ZM83.8367 184.521C83.164 185.083 82.1219 186.043 82.9793 187.076C83.875 188.158 84.9973 187.25 85.7746 186.605L87.8483 184.877C88.4931 184.343 89.957 183.185 89.0264 182.061C88.0401 180.875 86.7087 182.145 86.0813 182.661L83.8367 184.521ZM84.4571 181.388C86.5727 179.737 88.2422 178.627 90.2428 181.046C92.2539 183.464 90.8492 184.902 88.8417 186.682L87.6916 187.638C85.5306 189.428 83.8193 190.576 81.7664 188.091C79.7031 185.61 81.1425 184.134 83.3 182.344L84.4571 181.388ZM97.3424 189.072L98.7401 190.461L93.5818 195.675C91.9437 197.332 90.6262 197.587 88.7999 195.776C86.9526 193.954 87.1966 192.639 88.8348 190.977L93.993 185.757L95.3942 187.139L90.3509 192.234C89.6399 192.956 88.9776 193.717 89.9291 194.663C90.8319 195.563 91.5951 194.889 92.3061 194.174L97.3424 189.072ZM94.0976 200.4L100.803 192.29L102.309 193.546L96.5931 200.462L99.3988 202.79L98.4229 203.977L94.0976 200.4ZM105.153 208.838L110.677 199.883L112.343 200.913L110.158 204.462L112.497 205.903L114.682 202.357L116.355 203.387L110.831 212.352L109.158 211.312L111.685 207.222L109.349 205.777L106.819 209.871L105.153 208.838ZM114.013 214.083L118.711 204.668L123.653 207.138L122.967 208.524L119.785 206.925L118.593 209.298L121.531 210.771L120.841 212.153L117.906 210.684L116.46 213.587L119.645 215.179L118.952 216.56L114.013 214.083ZM125.992 212.966L127.435 213.531C128.048 213.727 128.672 213.514 129.052 212.533C129.481 211.434 129.097 211.071 128.411 210.792L127.052 210.265L125.992 212.966ZM125.434 214.404L123.789 218.633L121.96 217.911L125.783 208.108L129.244 209.469C130.826 210.077 131.816 211.096 131.109 212.903C130.69 213.971 129.976 214.99 128.683 214.683L128.672 214.707C129.697 215.276 129.76 216.096 129.387 217.035C129.23 217.443 128.24 219.827 128.571 220.291L128.501 220.469L126.487 219.684C126.511 218.968 127.02 217.782 127.261 217.126C127.487 216.515 127.818 215.698 127.261 215.266C126.818 214.934 126.281 214.735 125.759 214.533L125.434 214.404ZM134.576 218.584C134.336 219.422 134.019 220.807 135.315 221.167C136.671 221.547 137.069 220.162 137.344 219.188L138.076 216.592C138.302 215.786 138.846 213.996 137.445 213.608C135.96 213.182 135.584 214.987 135.364 215.772L134.576 218.584ZM133.304 215.646C134.109 213.081 134.852 211.221 137.877 212.083C140.895 212.928 140.561 214.906 139.913 217.506L139.508 218.951C138.752 221.652 137.992 223.571 134.89 222.695C131.781 221.823 132.137 219.792 132.897 217.087L133.304 215.646ZM141.715 224.147L143.625 213.793L149.062 214.798L148.779 216.313L145.277 215.664L144.792 218.277L148.019 218.878L147.741 220.392L144.52 219.799L143.928 222.985L147.43 223.634L147.152 225.149L141.715 224.147ZM155.123 218.71C155.227 217.782 155.234 216.847 154.157 216.742C153.505 216.686 153.059 216.906 152.99 217.614C152.913 218.41 153.383 218.773 153.962 219.22C154.565 219.684 155.67 220.584 156.165 221.167C156.771 221.889 156.925 222.531 156.834 223.449C156.642 225.431 155.231 226.335 153.321 226.154C150.975 225.923 150.264 224.531 150.445 222.657L150.522 221.889L152.474 222.074L152.414 222.695C152.275 223.707 152.512 224.486 153.471 224.573C154.293 224.653 154.729 224.259 154.805 223.46C154.865 222.849 154.624 222.399 154.157 222.004C153.216 221.104 152.003 220.413 151.306 219.286C151.031 218.78 150.91 218.205 150.958 217.632C151.132 215.838 152.233 214.962 154.297 215.161C157.409 215.468 157.092 217.862 157.005 218.892L155.123 218.71ZM167.36 224.803C167.771 224.789 168.189 224.81 168.534 224.643C169.057 224.388 169.099 223.697 169.074 223.156C169.033 222.022 168.796 221.551 167.576 221.603L166.812 221.634L166.938 224.821L167.36 224.803ZM167.116 220.075C167.593 220.061 168.207 220.061 168.503 219.656C168.677 219.384 168.688 219.01 168.667 218.504C168.639 217.719 168.458 217.339 167.558 217.349L166.652 217.384L166.75 220.089L167.116 220.075ZM165.038 226.436L164.624 215.915L167.788 215.789C168.635 215.754 169.461 215.779 170.054 216.473C170.521 217.035 170.612 217.632 170.643 218.347C170.678 219.255 170.521 220.165 169.468 220.598V220.629C170.58 220.738 171.04 221.648 171.092 223.009C171.106 223.449 171.103 223.882 171.002 224.301C170.636 225.655 169.897 226.244 168.499 226.304L165.038 226.436ZM176.202 221.446L177.872 221.23L176.965 218.333C176.805 217.859 176.697 217.391 176.578 216.909C176.532 216.678 176.478 216.449 176.415 216.222L176.39 216.229C176.39 216.452 176.39 216.693 176.411 216.934C176.415 217.422 176.436 217.904 176.401 218.406L176.202 221.446ZM173.836 226.004L174.975 215.238L177.6 214.896L181.318 225.033L179.227 225.299L178.373 222.723L176.094 223.016L175.927 225.731L173.836 226.004ZM186.459 216.47C186.271 215.548 185.982 214.666 184.929 214.896C184.288 215.039 183.936 215.391 184.093 216.089C184.264 216.871 184.825 217.066 185.511 217.314C186.226 217.569 187.568 218.082 188.216 218.48C189.014 218.979 189.359 219.551 189.554 220.441C189.987 222.388 188.927 223.686 187.052 224.105C184.748 224.618 183.643 223.512 183.235 221.676L183.068 220.916L184.985 220.497L185.118 221.101C185.302 222.106 185.762 222.762 186.707 222.556C187.516 222.374 187.801 221.868 187.63 221.08C187.502 220.486 187.132 220.127 186.564 219.897C185.386 219.338 184.02 219.059 183.005 218.201C182.589 217.805 182.297 217.295 182.165 216.735C181.782 214.983 182.549 213.804 184.57 213.35C187.624 212.669 188.066 215.046 188.307 216.054L186.459 216.47ZM193.378 222.252L190.206 212.212L195.462 210.544L195.933 212.02L192.538 213.099L193.336 215.625L196.466 214.627L196.933 216.107L193.803 217.098L194.779 220.19L198.181 219.111L198.644 220.584L193.378 222.252ZM203.342 217.122C203.715 216.962 204.12 216.843 204.381 216.564C204.782 216.142 204.583 215.472 204.381 214.987C203.945 213.933 203.555 213.584 202.429 214.048L201.725 214.338L202.952 217.279L203.342 217.122ZM201.478 212.771C201.917 212.593 202.496 212.387 202.628 211.898C202.698 211.584 202.586 211.232 202.391 210.764C202.091 210.031 201.785 209.742 200.945 210.059L200.105 210.415L201.14 212.914L201.478 212.771ZM201.725 219.464L197.696 209.742L200.624 208.524C201.401 208.196 202.189 207.93 202.98 208.381C203.607 208.743 203.907 209.27 204.186 209.927C204.534 210.771 204.698 211.682 203.865 212.446L203.876 212.471C204.96 212.191 205.695 212.889 206.225 214.142C206.392 214.543 206.532 214.962 206.587 215.384C206.713 216.784 206.228 217.593 204.932 218.138L201.725 219.464ZM210.453 210.911L211.941 210.122L210.08 207.732C209.766 207.341 209.512 206.929 209.229 206.528C209.107 206.325 208.968 206.123 208.846 205.941L208.818 205.952C208.895 206.161 208.985 206.388 209.079 206.604C209.257 207.065 209.445 207.512 209.588 207.986L210.453 210.911ZM209.818 216.002L207.148 205.512L209.494 204.277L216.489 212.491L214.628 213.462L212.931 211.347L210.895 212.425L211.672 215.021L209.818 216.002ZM218.946 210.991L213.258 202.137L214.91 201.07L219.755 208.635L222.826 206.664L223.662 207.962L218.946 210.991ZM226.241 206.123L219.856 197.761L221.414 196.564L226.862 203.711L229.761 201.488L230.692 202.713L226.241 206.123ZM238.66 190.189C238.785 190.342 238.931 190.496 239.053 190.642C240.346 192.066 240.936 193.574 239.391 195.116C237.109 197.409 235.512 196.111 233.533 194.125L232.466 193.064C230.629 191.11 229.368 189.554 231.581 187.327C232.846 186.099 234.174 186.043 235.544 187.212C235.756 187.376 235.955 187.555 236.14 187.749L234.77 189.121C234.237 188.702 233.393 187.76 232.707 188.451C231.619 189.543 233.01 190.754 233.578 191.326L235.648 193.389C236.258 194 237.318 194.952 238.269 193.996C239.033 193.228 237.712 192.098 237.262 191.588L238.66 190.189ZM243.543 190.356L235.488 183.586L236.75 182.075L243.623 187.854L245.965 185.062L247.15 186.057L243.543 190.356ZM243.166 173.62L244.292 172.011L250.308 176.216C252.214 177.549 252.692 178.798 251.224 180.917C249.743 183.042 248.401 183.035 246.491 181.698L240.468 177.497L241.594 175.884L247.474 179.988C248.3 180.564 249.171 181.088 249.935 179.992C250.667 178.945 249.875 178.317 249.046 177.727L243.166 173.62ZM254.682 172.091C254.887 171.735 255.124 171.393 255.173 171.009C255.222 170.427 254.661 170.022 254.197 169.764C253.204 169.202 252.681 169.17 252.082 170.224L251.712 170.887L254.483 172.458L254.682 172.091ZM250.545 169.805C250.785 169.394 251.109 168.874 250.918 168.41C250.775 168.113 250.471 167.917 250.036 167.666C249.353 167.279 248.924 167.223 248.464 168.005L248.011 168.793L250.367 170.13L250.545 169.805ZM254.856 174.928L245.703 169.75L247.265 166.986C247.676 166.253 248.136 165.555 249.032 165.426C249.757 165.314 250.315 165.551 250.932 165.897C251.733 166.351 252.413 166.961 252.225 168.085L252.252 168.099C252.929 167.206 253.943 167.3 255.124 167.97C255.508 168.186 255.874 168.423 256.18 168.731C257.132 169.75 257.254 170.692 256.557 171.913L254.856 174.928Z" fill="white"/>
<path d="M163.763 206.311C116.153 206.311 77.5596 167.666 77.5596 119.997C77.5596 72.3275 116.153 33.686 163.763 33.686C211.373 33.686 249.973 72.331 249.973 119.997C249.973 167.666 211.376 206.311 163.763 206.311Z" fill="#570514"/>
<path d="M195.065 195.612C153.331 212.914 105.495 193.078 88.2074 151.293C70.9271 109.517 90.7413 61.6142 132.468 44.3088C174.195 27.0103 222.042 46.8423 239.315 88.621C256.602 130.407 236.791 178.306 195.065 195.612Z" fill="white"/>
<path d="M93.4772 85.1836C93.6654 84.4926 94.216 83.847 94.697 83.7284C95.0386 83.6446 95.2547 83.8505 95.2931 84.2169C95.3005 84.4094 95.2817 84.6019 95.2372 84.7892C94.6796 86.733 93.5434 92.8574 93.5434 92.8574C93.5434 92.8574 90.288 96.2738 88.7475 97.8233C88.3467 98.2211 87.9145 98.0955 87.7855 97.5476C87.7359 97.2364 87.7555 96.918 87.8429 96.6152C87.9302 96.3124 88.0832 96.0326 88.291 95.7958C89.5074 94.5569 90.7447 93.2867 92.0203 91.9152C92.3689 89.6364 92.8568 87.3856 93.4772 85.1836ZM96.5791 86.6213C96.7011 85.899 97.2727 85.1591 97.8373 84.9707C98.2904 84.8241 98.6042 85.044 98.6739 85.4837C98.6912 85.6348 98.6865 85.7876 98.6599 85.9374C98.294 88.0067 97.8443 94.365 97.8443 94.365C97.8443 94.365 94.3381 98.4514 92.6512 100.284C92.2051 100.765 91.6544 100.716 91.4313 100.165C91.2047 99.6065 91.3755 98.769 91.8216 98.2804C93.1287 96.8357 94.4705 95.2793 95.8472 93.6635C95.9274 91.301 96.1678 88.9629 96.5791 86.6213ZM100.964 87.7241C101.002 87.3389 101.136 86.9697 101.355 86.6506C101.574 86.3315 101.87 86.0729 102.215 85.899C102.787 85.6686 103.233 85.885 103.33 86.4015C103.352 86.5047 103.361 86.6101 103.358 86.7156C103.257 88.7745 103.64 95.2025 103.64 95.2025C103.64 95.2025 99.9913 99.8717 98.2033 102.067C97.7398 102.646 97.0706 102.695 96.7046 102.178C96.3596 101.665 96.4467 100.779 96.9137 100.196C98.3253 98.434 99.7229 96.6821 101.131 94.8361C100.907 92.4724 100.852 90.0956 100.967 87.7241M106.38 88.094C106.321 87.3681 106.857 86.4783 107.589 86.1153C108.265 85.7803 108.872 86.0002 109.018 86.6039L109.057 86.7784C109.245 88.8582 110.604 95.1955 110.604 95.1955C110.604 95.1955 106.917 100.489 105.052 102.971C104.568 103.634 103.769 103.773 103.288 103.299C102.814 102.828 102.825 101.903 103.302 101.247C104.731 99.3064 106.167 97.2579 107.593 95.1816C107 92.8295 106.589 90.4705 106.376 88.094M113.072 88.7047C112.974 88.3801 112.885 88.0531 112.803 87.7241C112.612 87.0261 113.103 86.0735 113.905 85.6268C114.706 85.1487 115.522 85.3581 115.71 86.063C115.797 86.391 115.888 86.7086 115.986 87.0192C116.484 88.6942 118.739 94.18 118.739 94.18C118.739 94.18 115.135 100.008 113.291 102.848C112.803 103.599 111.897 103.871 111.252 103.473C110.629 103.068 110.51 102.137 110.988 101.376C112.433 99.1343 113.85 96.8739 115.236 94.5953C114.365 92.6411 113.647 90.6624 113.068 88.7047M123.946 92.99C122.482 90.8613 121.214 88.6907 120.178 86.4783C119.854 85.7978 120.293 84.8241 121.126 84.2797C121.994 83.7458 122.939 83.8366 123.27 84.5101C124.194 86.4259 127.867 92.1769 127.867 92.1769C127.867 92.1769 124.58 98.4759 122.786 101.554C122.305 102.377 121.287 102.772 120.513 102.437C119.746 102.102 119.502 101.163 119.976 100.336C121.36 97.9384 122.681 95.4608 123.95 92.99M133.531 90.3763C131.678 88.5053 129.955 86.5104 128.373 84.4054C127.916 83.7877 128.233 82.7792 129.098 82.165C129.969 81.5438 131.056 81.5368 131.523 82.158C132.848 83.8959 137.727 89.1409 137.727 89.1409C137.727 89.1409 134.946 95.712 133.367 99.0272C132.928 99.9241 131.854 100.451 130.945 100.214C130.039 99.9799 129.648 99.0726 130.056 98.1897C131.3 95.548 132.461 92.9586 133.531 90.3763ZM140.916 94.8221C141.927 92.1037 142.833 89.434 143.614 86.7958C141.361 85.1558 139.201 83.3907 137.145 81.5089C136.546 80.9471 136.737 79.9455 137.584 79.265C138.421 78.5811 139.616 78.4764 140.219 79.0347C141.934 80.5702 147.894 84.36 147.894 84.36C147.894 84.36 145.886 91.9117 144.597 95.3316C144.248 96.2599 143.143 96.888 142.126 96.7554C141.122 96.6158 140.571 95.7504 140.916 94.8221ZM153.561 92.2328C152.491 92.1769 151.815 91.3778 152.062 90.4391C152.751 87.8016 153.317 85.1339 153.76 82.4442C151.156 81.0434 148.617 79.525 146.151 77.8936C145.43 77.405 145.475 76.4349 146.277 75.73C147.075 75.0181 148.298 74.8226 149.023 75.3077C151.094 76.6617 157.918 79.963 157.918 79.963C157.918 79.963 156.876 87.2216 155.973 90.638C155.715 91.5732 154.649 92.2781 153.561 92.2328ZM162.958 85.3127C163.262 82.7265 163.441 80.1272 163.494 77.5237C160.639 76.3627 157.817 75.1199 155.032 73.7967C154.202 73.3919 154.08 72.4706 154.767 71.7412C155.447 71.0119 156.687 70.7432 157.524 71.1375C159.824 72.2158 167.314 75.0355 167.314 75.0355C167.314 75.0355 167.28 81.7846 166.921 85.1487C166.816 86.063 165.847 86.8377 164.76 86.8831C163.669 86.9354 162.857 86.227 162.958 85.3127ZM173.013 79.5442C172.947 77.0281 172.682 74.5784 172.298 72.2368C169.277 71.3291 166.278 70.3447 163.306 69.2845C162.39 68.9634 162.121 68.1119 162.696 67.3861C163.268 66.6742 164.449 66.3531 165.352 66.6742C167.848 67.5641 175.693 69.8673 175.693 69.8673C175.693 69.8673 176.728 76.0266 176.829 79.1848C176.843 80.0537 176.021 80.8319 174.965 80.9296C173.909 81.0378 173.034 80.4132 173.013 79.5442ZM181.779 73.5698C181.303 71.2893 180.669 69.0446 179.883 66.8522C176.784 66.1403 173.72 65.4039 170.726 64.6362C169.782 64.3849 169.332 63.6242 169.768 62.9262C170.176 62.2388 171.277 61.8689 172.208 62.1201C174.766 62.7692 182.744 64.6397 182.744 64.6397C182.744 64.6397 184.661 70.0662 185.299 72.994C185.477 73.7967 184.835 74.5749 183.87 74.7389C182.894 74.8924 181.953 74.3794 181.779 73.5698ZM188.931 67.5361C188.113 65.4495 187.131 63.4309 185.996 61.499C183.005 61.0244 180.001 60.5044 176.983 59.946C176.021 59.7716 175.463 59.0911 175.731 58.4315C176.003 57.7859 176.976 57.3986 177.913 57.587C180.492 58.0721 188.3 59.44 188.3 59.44C188.3 59.44 189.77 61.9038 190.429 63.2089C191.029 64.3849 191.579 65.6063 192.071 66.8626C192.367 67.578 191.897 68.3248 191.036 68.5098C190.171 68.6982 189.223 68.276 188.931 67.5361ZM194.434 61.7223C193.29 59.8582 192.021 58.0743 190.635 56.383C187.759 56.0728 184.886 55.7413 182.016 55.3885C181.088 55.2663 180.416 54.6905 180.531 54.0833C180.635 53.4901 181.472 53.1062 182.385 53.2109C184.863 53.525 192.311 54.4149 192.311 54.4149C192.311 54.4149 195.671 58.6025 197.121 60.9476C197.146 60.9755 197.156 60.9999 197.17 61.0348C197.49 61.649 197.205 62.2841 196.508 62.4935C196.125 62.5945 195.721 62.5746 195.35 62.4365C194.98 62.2984 194.661 62.049 194.437 61.7223M198.243 56.1772C196.891 54.537 195.385 52.9911 193.81 51.5498C191.196 51.4102 188.505 51.2357 185.731 51.0368C184.853 50.974 184.11 50.4715 184.093 49.9201C184.058 49.3757 184.755 48.9884 185.626 49.0651C187.996 49.2396 194.932 49.7282 194.932 49.7282C194.932 49.7282 198.801 53.347 200.502 55.392C200.554 55.45 200.599 55.5131 200.638 55.5804C200.934 56.0864 200.777 56.6134 200.233 56.8053C199.599 57.0147 198.721 56.7495 198.247 56.1772M200.589 51.0613C198.986 49.613 197.369 48.3044 195.661 47.0865C193.277 47.062 190.795 47.0202 188.272 46.9678C187.435 46.9574 186.641 46.5386 186.487 46.0431C186.344 45.558 186.885 45.1881 187.707 45.202C189.872 45.2544 196.25 45.394 196.25 45.394C196.25 45.394 200.45 48.4649 202.398 50.2377C202.492 50.3245 202.576 50.4217 202.649 50.5273C202.914 50.9251 202.868 51.3335 202.468 51.5254C201.962 51.7557 201.122 51.5463 200.586 51.0578M234.055 154.74C233.864 155.428 233.316 156.077 232.832 156.199C232.494 156.276 232.278 156.073 232.24 155.707C232.233 155.514 232.253 155.322 232.299 155.135C232.849 153.198 233.989 147.06 233.989 147.06C233.989 147.06 237.244 143.647 238.785 142.104C239.179 141.692 239.618 141.825 239.747 142.383C239.797 142.692 239.778 143.009 239.69 143.309C239.603 143.61 239.45 143.887 239.242 144.121C238.022 145.367 236.788 146.637 235.505 148.009C235.157 150.277 234.669 152.538 234.055 154.74ZM230.953 153.303C230.831 154.018 230.26 154.765 229.688 154.946C229.242 155.096 228.925 154.88 228.852 154.444C228.838 154.289 228.845 154.133 228.873 153.98C229.232 151.914 229.681 145.555 229.681 145.555C229.681 145.555 233.194 141.469 234.878 139.637C235.331 139.148 235.875 139.208 236.098 139.759C236.321 140.314 236.157 141.155 235.704 141.643C234.404 143.085 233.059 144.645 231.685 146.257C231.607 148.62 231.362 150.974 230.953 153.303ZM226.569 152.2C226.53 152.585 226.395 152.954 226.177 153.273C225.958 153.592 225.662 153.85 225.318 154.025C224.746 154.255 224.3 154.039 224.202 153.519C224.174 153.421 224.171 153.317 224.174 153.201C224.279 151.142 223.892 144.714 223.892 144.714C223.892 144.714 227.541 140.049 229.329 137.857C229.796 137.274 230.458 137.229 230.828 137.745C231.169 138.255 231.086 139.141 230.619 139.721C229.189 141.492 227.78 143.281 226.395 145.088C226.628 147.468 226.677 149.869 226.569 152.2ZM221.153 151.826C221.208 152.559 220.675 153.442 219.94 153.809C219.267 154.144 218.657 153.917 218.511 153.327L218.476 153.146C218.284 151.062 216.921 144.725 216.921 144.725C216.921 144.725 220.616 139.428 222.474 136.946C222.961 136.283 223.763 136.144 224.237 136.625C224.718 137.096 224.704 138.014 224.223 138.677C222.801 140.618 221.365 142.659 219.936 144.739C220.529 147.091 220.943 149.45 221.156 151.823M214.461 151.216C214.558 151.544 214.645 151.868 214.729 152.2C214.914 152.898 214.429 153.85 213.628 154.297C212.823 154.765 212.011 154.562 211.822 153.854C211.732 153.54 211.645 153.215 211.547 152.898C211.045 151.23 208.794 145.737 208.794 145.737C208.794 145.737 212.394 139.916 214.241 137.075C214.729 136.329 215.632 136.049 216.28 136.451C216.9 136.852 217.019 137.787 216.538 138.545C215.088 140.813 213.68 143.036 212.293 145.325C213.164 147.272 213.886 149.258 214.464 151.216M203.579 146.934C205.05 149.063 206.319 151.23 207.351 153.446C207.671 154.119 207.236 155.096 206.399 155.644C205.535 156.182 204.587 156.077 204.263 155.41C203.335 153.495 199.672 147.743 199.672 147.743C199.672 147.743 202.949 141.448 204.747 138.367C205.228 137.543 206.242 137.145 207.02 137.487C207.786 137.819 208.03 138.761 207.556 139.581C206.176 142.001 204.848 144.453 203.579 146.934ZM194.009 149.541C195.854 151.418 197.575 153.413 199.16 155.515C199.613 156.136 199.299 157.134 198.432 157.755C197.56 158.384 196.48 158.391 196.009 157.766C194.685 156.025 189.805 150.783 189.805 150.783C189.805 150.783 192.583 144.219 194.165 140.886C194.598 139.996 195.678 139.466 196.588 139.7C197.494 139.937 197.877 140.851 197.47 141.731C196.229 144.372 195.075 146.965 194.009 149.541ZM186.613 145.095C185.602 147.82 184.699 150.49 183.912 153.125C186.261 154.828 188.443 156.632 190.387 158.415C190.98 158.973 190.799 159.968 189.948 160.648C189.112 161.339 187.92 161.444 187.306 160.886C185.595 159.35 179.639 155.567 179.639 155.567C179.639 155.567 181.639 148.012 182.932 144.589C183.281 143.657 184.382 143.029 185.407 143.168C186.404 143.315 186.958 144.17 186.613 145.095ZM173.964 147.698C175.041 147.743 175.718 148.546 175.463 149.478C174.777 152.118 174.212 154.788 173.769 157.48C176.467 158.952 178.99 160.415 181.378 162.027C182.103 162.512 182.057 163.482 181.252 164.194C180.458 164.902 179.231 165.091 178.506 164.613C176.436 163.259 169.615 159.964 169.615 159.964C169.615 159.964 170.65 152.702 171.56 149.282C171.817 148.351 172.884 147.646 173.964 147.698ZM164.571 154.608C164.266 157.194 164.088 159.793 164.038 162.397C166.997 163.59 169.845 164.874 172.501 166.131C173.327 166.529 173.445 167.439 172.765 168.183C172.086 168.909 170.845 169.181 170.002 168.786C167.708 167.701 160.215 164.888 160.215 164.888C160.215 164.888 160.253 158.139 160.619 154.768C160.72 153.864 161.679 153.086 162.769 153.044C163.871 152.985 164.676 153.69 164.571 154.608ZM154.52 160.38C154.589 162.892 154.844 165.346 155.231 167.673C158.305 168.608 161.306 169.593 164.223 170.632C165.136 170.957 165.411 171.819 164.84 172.527C164.265 173.253 163.083 173.574 162.18 173.253C159.685 172.36 151.843 170.057 151.843 170.057C151.843 170.057 150.804 163.897 150.7 160.732C150.686 159.867 151.512 159.089 152.564 158.98C153.62 158.886 154.502 159.504 154.52 160.38ZM145.747 166.351C146.256 168.731 146.876 170.95 147.65 173.072C150.742 173.787 153.809 174.52 156.806 175.284C157.751 175.535 158.2 176.296 157.764 176.994C157.353 177.685 156.262 178.048 155.321 177.804C152.76 177.151 144.782 175.284 144.782 175.284C144.782 175.284 142.872 169.861 142.234 166.93C142.049 166.127 142.694 165.349 143.663 165.189C144.639 165.028 145.58 165.541 145.747 166.351ZM138.595 172.388C139.417 174.47 140.398 176.486 141.53 178.418C144.524 178.9 147.532 179.416 150.55 179.978C151.508 180.152 152.062 180.829 151.801 181.492C151.529 182.131 150.557 182.522 149.616 182.333C146.157 181.707 142.698 181.088 139.236 180.477C139.236 180.477 137.762 178.02 137.103 176.712C136.504 175.536 135.953 174.314 135.455 173.061C135.165 172.342 135.632 171.596 136.493 171.407C137.365 171.226 138.306 171.651 138.595 172.388ZM133.099 178.198C134.28 180.114 135.528 181.869 136.898 183.541C139.772 183.847 142.644 184.178 145.513 184.532C146.441 184.647 147.113 185.23 147.002 185.834C146.897 186.437 146.061 186.825 145.144 186.717C142.669 186.399 135.214 185.509 135.214 185.509C135.214 185.509 131.858 181.321 130.405 178.973C130.383 178.948 130.369 178.918 130.363 178.886C130.042 178.275 130.321 177.636 131.018 177.423C131.402 177.324 131.808 177.344 132.18 177.483C132.552 177.621 132.873 177.871 133.099 178.198ZM129.289 183.743C130.642 185.383 132.147 186.933 133.716 188.371C136.333 188.514 139.024 188.685 141.802 188.884C142.683 188.946 143.422 189.445 143.447 190C143.471 190.548 142.774 190.932 141.913 190.859C139.533 190.677 132.597 190.192 132.597 190.192C132.597 190.192 128.728 186.57 127.031 184.528C126.978 184.47 126.932 184.407 126.891 184.34C126.595 183.841 126.752 183.311 127.299 183.112C127.933 182.906 128.812 183.181 129.286 183.743M126.944 188.866C128.547 190.311 130.164 191.623 131.868 192.827C134.249 192.855 136.737 192.897 139.257 192.956C140.094 192.967 140.888 193.385 141.042 193.881C141.185 194.362 140.648 194.736 139.832 194.718C137.661 194.663 131.283 194.526 131.283 194.526C131.283 194.526 127.083 191.456 125.135 189.683C125.043 189.596 124.958 189.503 124.88 189.404C124.615 188.995 124.671 188.587 125.065 188.399C125.567 188.172 126.41 188.374 126.947 188.866" fill="#7D0521"/>
<path d="M291.975 79.2267L291.759 79.2441L281.338 90.8195L279.553 80.3609L253.507 82.7618L252.106 85.6652C249.945 84.3566 247.303 83.6691 244.414 83.6691C243.839 83.6691 243.253 83.704 242.678 83.7493L226.279 85.2569C220.996 85.7455 215.032 88.4674 210.219 92.5574C207.528 89.1514 202.889 87.4066 197.654 87.8916L181.252 89.3957L89.929 97.7954L100.089 86.5237L54.3295 90.7392L51.6737 96.225L25.4569 98.6329L13.7356 122.761L19.1729 122.265L0.00341797 161.598L29.7125 158.876L35.7352 146.515L42.9917 167.963L70.892 165.398L67.5147 155.4L77.8313 154.454L90.7375 127.974L89.4759 153.376L113.34 151.184L113.594 151.16L117.338 145.625L117.083 150.832L140.937 148.64L141.191 148.619L146.946 140.112C147.12 140.467 147.308 140.81 147.514 141.141C150.097 145.276 154.844 147.353 160.783 146.812L177.066 145.325C182.406 144.83 188.411 142.097 193.228 137.986C195.629 141.078 199.425 142.767 204.011 142.767C204.59 142.767 205.193 142.739 205.806 142.68L222.09 141.186C225.335 140.886 228.747 139.818 232.041 138.095L230.932 140.377L260.638 137.644L262.276 134.298L264.036 144.638L271.209 136.681L297.663 134.238L326.006 76.0964L291.975 79.2267Z" fill="#570514"/>
<path d="M49.0599 109.416L52.5174 109.095L45.2888 117.115L49.0599 109.416ZM59.2755 142.069L55.0931 129.702L77.3401 105.012L59.2755 142.069ZM186.519 107.099L177.771 125.054L171.915 125.595L180.663 107.637L186.519 107.099ZM231.542 102.964L222.787 120.925L216.939 121.459L225.684 103.501L231.542 102.964ZM293.819 81.9139L293.61 81.9383L278.877 98.2841L276.361 83.5157L256.024 85.3896L253.148 91.3361C253.013 91.0328 252.856 90.7401 252.678 90.4602C251.092 87.9127 248.171 86.5098 244.463 86.5098C244.003 86.5098 243.511 86.5343 243.027 86.5796L226.628 88.0872C220.348 88.6595 213.272 92.8506 208.863 98.4551C208.79 97.0874 208.374 95.7602 207.654 94.5955C206.068 92.048 203.147 90.6521 199.428 90.6521C198.968 90.6521 198.487 90.6766 198.003 90.7149L181.601 92.2295C178.429 92.5191 174.888 93.7929 171.584 95.8029L173.501 92.9693L152.132 94.9375L141.701 110.362L142.426 95.8204L124.528 97.4745L114.1 112.889L114.822 98.3609L80.4769 101.53L90.6332 90.2613L56.8462 93.3741L54.1799 98.8529L27.9597 101.261L20.1733 117.303L25.6279 116.807L6.4585 156.136L27.2033 154.231L36.3767 135.404L45.6548 162.847L65.6816 161.001L62.2973 151.003L75.3186 149.813L91.8984 115.806L95.1537 115.499L93.5366 148.128L111.427 146.484L121.848 131.077L121.137 145.584L139.024 143.943L153.802 122.094L151.055 127.737C149.149 131.653 149.048 135.331 150.776 138.098C152.366 140.642 155.283 142.048 158.981 142.048C159.451 142.048 159.936 142.021 160.427 141.979L176.714 140.482C183.082 139.899 190.21 135.687 194.594 130.047C194.674 131.489 195.082 132.804 195.804 133.963C197.592 136.824 201.06 138.245 205.455 137.843L221.735 136.346C229.577 135.624 238.503 129.346 242.054 122.049L252.284 101.062L253.957 100.908L237.384 134.909L258.129 133.01L264.054 120.873L266.49 135.153L279.86 120.322L274.409 131.513L295.154 129.604L319.548 79.5583L293.819 81.9139Z" fill="#EB008A"/>
<path d="M84.3387 93.4158L58.5158 95.7957L53.3505 106.443L58.8085 105.947L37.2202 129.901L47.4358 160.104L62.2137 158.743L52.1828 129.098L84.3387 93.4158ZM294.84 84.3984L277.242 103.93L274.238 86.2863L257.697 87.8078L252.556 98.4619L258.258 97.921L241.681 131.942L256.459 130.581L265.249 112.599L268.128 129.506L290.138 105.089L278.706 128.54L293.484 127.179L315.25 82.5244L294.84 84.3984Z" fill="white"/>
<path d="M80.6406 104.087L58.8746 148.745L73.649 147.388L95.4185 102.726L80.6406 104.087ZM29.6325 103.69L24.4637 114.333L29.9253 113.841L10.7559 153.163L25.5302 151.813L49.8929 101.826L29.6325 103.69ZM179.44 127.479L167.618 128.564L178.994 105.215L190.813 104.133L179.44 127.479ZM198.24 93.2729L181.838 94.7769C175.296 95.3807 167.708 100.559 164.216 106.572L153.356 128.864C150.205 135.331 153.268 140.066 160.19 139.424L176.477 137.927C183.41 137.289 191.579 131.534 194.73 125.064L205.075 103.833C208.229 97.3593 205.169 92.6378 198.24 93.2729ZM224.46 123.34L212.634 124.429L224.018 101.083L235.836 99.9941L224.46 123.34ZM243.264 89.1306L226.862 90.6416C220.323 91.2419 212.729 96.4171 209.24 102.437L198.379 124.736C195.229 131.195 198.292 135.917 205.218 135.289L221.501 133.792C228.427 133.153 236.6 127.395 239.75 120.929L250.098 99.6939C253.253 93.224 250.193 88.499 243.264 89.1306ZM153.572 97.3768L138.689 119.386L139.721 98.6505L125.971 99.9138L111.089 121.92L112.117 101.191L97.3041 102.562L92.1318 113.21L97.8618 112.676L96.2445 145.301L109.984 144.041L124.856 122.049L123.845 142.771L137.588 141.501L168.346 96.0193L153.572 97.3768Z" fill="white"/>
<path d="M29.9255 113.841L39.911 107.835L27.05 109.011L24.4639 114.337L29.9255 113.841ZM58.8085 105.948L71.917 99.6765L55.9332 101.121L53.3506 106.443L58.8085 105.948Z" fill="#D1D1D1"/>
<path d="M84.3388 93.4158L71.917 99.6763L44.7939 129.778L54.8318 159.43L47.4358 160.104L62.2138 158.743L52.1829 129.098L84.3388 93.4158ZM263.42 101.899L251.664 125.943L241.681 131.942L256.459 130.581L265.249 112.599L263.42 101.899ZM270.934 110.934L277.243 103.93L274.238 86.2863L267.557 91.151L270.934 110.934ZM305.265 88.5302L288.692 122.541L278.71 128.543L293.481 127.182L315.25 82.5244L305.265 88.5302ZM298.116 88.7151L272.569 117.045L268.128 129.506L290.138 105.089L298.116 88.7151Z" fill="#D1D1D1"/>
<path d="M85.4051 108.802L68.8497 142.76L58.8781 148.745L73.6525 147.388L95.422 102.726L85.4051 108.802ZM39.9108 107.835L20.7414 147.15L10.7559 153.163L25.5302 151.813L49.8929 101.826L39.9108 107.835ZM130.75 131.122L138.689 119.386L139.721 98.6505L132.071 104.454L130.75 131.122ZM125.393 111.004L106.254 139.306L96.2445 145.301L109.984 144.041L124.856 122.049L125.393 111.004ZM157.283 102.13L133.855 136.775L123.842 142.767L137.588 141.501L168.346 96.0193L157.283 102.13ZM97.8618 112.676L104.477 106.987L94.7215 107.877L92.1318 113.21L97.8618 112.676ZM258.258 97.9211L267.557 91.1511L255.48 92.2643L252.528 98.462L258.258 97.9211Z" fill="#D1D1D1"/>
<path d="M103.146 133.659L111.092 121.92L112.117 101.191L104.477 106.987L103.146 133.659ZM181.583 99.8998L171.601 105.892L157.622 134.587L167.618 128.571L178.994 105.215L190.813 104.133L200.795 98.134L181.583 99.8998Z" fill="#D1D1D1"/>
<path d="M205.165 95.5097L200.795 98.134L186.804 126.84L176.882 132.822L157.621 134.587L153.282 137.205C154.6 138.855 156.977 139.721 160.19 139.424L176.477 137.927C176.815 137.899 177.164 137.843 177.509 137.787C184.197 136.713 191.729 131.216 194.727 125.064L205.075 103.833C206.761 100.371 206.667 97.4186 205.165 95.5097ZM226.611 95.7645L216.628 101.756L202.649 130.452L212.634 124.429L224.017 101.083L235.836 99.994L245.822 93.9917L226.611 95.7645Z" fill="#D1D1D1"/>
<path d="M250.192 91.3745L245.822 93.9988L231.828 122.705L221.909 128.686L202.649 130.452L198.313 133.069C199.627 134.72 202.008 135.579 205.218 135.289L221.501 133.792C221.843 133.764 222.188 133.705 222.533 133.652C229.218 132.581 236.753 127.081 239.75 120.929L250.098 99.694C251.789 96.2357 251.691 93.2764 250.192 91.3745Z" fill="#D1D1D1"/>
</g>
<defs>
<clipPath id="clip0_121_383">
<rect width="326" height="240" fill="white"/>
</clipPath>
</defs>
</svg>
