<svg width="281" height="240" viewBox="0 0 281 240" fill="none" xmlns="http://www.w3.org/2000/svg">
<g clip-path="url(#clip0_121_423)">
<mask id="mask0_121_423" style="mask-type:luminance" maskUnits="userSpaceOnUse" x="0" y="0" width="282" height="242">
<path d="M0 0H281.179V241.554H0V0Z" fill="white"/>
</mask>
<g mask="url(#mask0_121_423)">
<path d="M140.497 2.78784C75.8439 2.78784 23.4268 55.2668 23.4268 120.003C23.4268 184.734 75.8439 237.211 140.497 237.211C205.159 237.211 257.567 184.734 257.567 120.003C257.567 55.2668 205.159 2.78784 140.497 2.78784Z" fill="#FC4E00"/>
</g>
<mask id="mask1_121_423" style="mask-type:luminance" maskUnits="userSpaceOnUse" x="0" y="0" width="282" height="242">
<path d="M0 0H281.179V241.554H0V0Z" fill="white"/>
</mask>
<g mask="url(#mask1_121_423)">
<path d="M140.497 5.57572C77.4801 5.57572 26.2112 56.905 26.2112 120.003C26.2112 183.094 77.4801 234.424 140.497 234.424C203.514 234.424 254.782 183.094 254.782 120.003C254.782 56.905 203.515 5.57572 140.497 5.57572ZM140.497 240.001C74.4125 240.001 20.6421 186.175 20.6421 120.003C20.6421 53.832 74.4125 0 140.497 0C206.59 0 260.359 53.8339 260.359 120.003C260.359 186.173 206.59 240.001 140.497 240.001Z" fill="white"/>
</g>
<mask id="mask2_121_423" style="mask-type:luminance" maskUnits="userSpaceOnUse" x="0" y="0" width="282" height="242">
<path d="M0 0H281.179V241.554H0V0Z" fill="white"/>
</mask>
<g mask="url(#mask2_121_423)">
<path d="M140.497 2.78784C75.8439 2.78784 23.4268 55.2668 23.4268 120.003C23.4268 184.734 75.8439 237.211 140.497 237.211C205.159 237.211 257.567 184.734 257.567 120.003C257.567 55.2668 205.159 2.78784 140.497 2.78784Z" fill="#FC4E00"/>
</g>
<mask id="mask3_121_423" style="mask-type:luminance" maskUnits="userSpaceOnUse" x="0" y="0" width="282" height="242">
<path d="M0 0H281.179V241.554H0V0Z" fill="white"/>
</mask>
<g mask="url(#mask3_121_423)">
<path d="M90.8026 201.166C91.9781 201.925 92.8579 201.874 93.4311 200.995L94.0189 200.101C94.5994 199.209 94.3019 198.381 93.1264 197.618L88.0307 194.318L85.7069 197.865L90.8026 201.166ZM89.754 202.762L84.6656 199.455L82.369 202.96L87.4574 206.258C88.6402 207.025 89.5128 206.968 90.0933 206.096L90.6466 205.245C91.2271 204.351 90.9368 203.527 89.754 202.762ZM92.9069 203.683C93.2527 204.598 93.1348 205.5 92.5531 206.387L91.8928 207.393C91.3413 208.238 90.5758 208.735 89.618 208.877C88.7025 209.005 87.6636 208.691 86.5014 207.933L79.4502 203.365L87.2307 191.496L94.2747 196.071C95.4429 196.83 96.145 197.646 96.3862 198.539C96.6475 199.476 96.4914 200.37 95.9327 201.229L95.2379 202.279C94.6574 203.172 93.8846 203.634 92.9069 203.683Z" fill="#F3F3F4"/>
</g>
<mask id="mask4_121_423" style="mask-type:luminance" maskUnits="userSpaceOnUse" x="0" y="0" width="282" height="242">
<path d="M0 0H281.179V241.554H0V0Z" fill="white"/>
</mask>
<g mask="url(#mask4_121_423)">
<path d="M101.807 210.21L98.6104 208.743C97.5836 208.267 96.8616 208.472 96.4644 209.346L96.3084 209.663C95.9111 210.522 96.2304 211.196 97.2571 211.665L100.453 213.134C101.51 213.622 102.238 213.433 102.636 212.566L102.777 212.246C103.188 211.373 102.865 210.694 101.807 210.21ZM95.9746 213.176C95.0325 212.741 94.409 212.136 94.1043 211.36C93.785 210.571 93.814 209.77 94.2041 208.94L94.5161 208.252C94.9115 207.408 95.5011 206.856 96.3084 206.585C97.1029 206.297 97.9718 206.37 98.9152 206.805L104.181 209.224L104.201 209.175C104.684 208.145 104.35 207.366 103.216 206.848L97.3714 204.158L98.1569 202.442L103.975 205.117C105.188 205.676 105.972 206.408 106.327 207.315C106.705 208.211 106.632 209.223 106.108 210.352L104.528 213.764C104.123 214.639 103.508 215.189 102.685 215.417C101.934 215.631 101.07 215.51 100.092 215.07L95.9746 213.176Z" fill="#F3F3F4"/>
</g>
<mask id="mask5_121_423" style="mask-type:luminance" maskUnits="userSpaceOnUse" x="0" y="0" width="282" height="242">
<path d="M0 0H281.179V241.554H0V0Z" fill="white"/>
</mask>
<g mask="url(#mask5_121_423)">
<path d="M115.015 213.764C116.164 214.119 116.948 214.554 117.368 215.07C117.905 215.722 118.027 216.526 117.736 217.482L117.496 218.241C117.21 219.186 116.661 219.78 115.851 220.023C115.222 220.199 114.322 220.114 113.166 219.76L106.405 217.695L106.966 215.851L113.725 217.922C114.659 218.205 115.223 218.03 115.419 217.397L115.546 216.986C115.739 216.34 115.378 215.871 114.442 215.588L110.94 214.509C109.807 214.162 109.028 213.744 108.602 213.239C108.077 212.582 107.959 211.783 108.248 210.842L108.482 210.068C108.78 209.097 109.326 208.501 110.119 208.259C110.757 208.067 111.65 208.145 112.776 208.494L119.26 210.473L118.694 212.317L112.252 210.344C111.33 210.061 110.771 210.246 110.572 210.898L110.445 211.318C110.246 211.963 110.608 212.417 111.515 212.693L115.015 213.764Z" fill="#F3F3F4"/>
</g>
<mask id="mask6_121_423" style="mask-type:luminance" maskUnits="userSpaceOnUse" x="0" y="0" width="282" height="242">
<path d="M0 0H281.179V241.554H0V0Z" fill="white"/>
</mask>
<g mask="url(#mask6_121_423)">
<path d="M124.375 216.688L127.862 217.262C128.994 217.448 129.637 217.072 129.79 216.134L129.847 215.786C130.004 214.837 129.515 214.269 128.381 214.084L124.894 213.51C123.767 213.325 123.129 213.707 122.98 214.658L122.924 215.007C122.771 215.943 123.254 216.503 124.375 216.688ZM132.065 215.964L131.944 216.694C131.801 217.598 131.371 218.284 130.654 218.752C129.967 219.229 129.112 219.382 128.089 219.213L122.393 218.278L122.378 218.348C122.2 219.46 122.725 220.115 123.951 220.314L130.676 221.42L130.371 223.299L123.668 222.201C122.365 221.986 121.414 221.492 120.813 220.717C120.222 219.959 120.026 218.971 120.223 217.753L120.82 214.12C120.969 213.205 121.394 212.509 122.095 212.034C122.784 211.552 123.646 211.395 124.68 211.565L129.188 212.304C130.223 212.474 130.993 212.899 131.497 213.581C132.027 214.254 132.216 215.048 132.065 215.964Z" fill="#F3F3F4"/>
</g>
<mask id="mask7_121_423" style="mask-type:luminance" maskUnits="userSpaceOnUse" x="0" y="0" width="282" height="242">
<path d="M0 0H281.179V241.554H0V0Z" fill="white"/>
</mask>
<g mask="url(#mask7_121_423)">
<path d="M136.288 219.284C136.273 220.072 136.409 220.675 136.698 221.093C137.061 221.584 137.628 221.837 138.4 221.852L141.014 221.917C141.785 221.938 142.369 221.71 142.764 221.234C143.067 220.837 143.228 220.244 143.247 219.455L143.281 217.716C143.296 216.908 143.162 216.305 142.871 215.886C142.495 215.384 141.921 215.125 141.15 215.107L136.381 214.992L136.288 219.284ZM134.07 219.342L134.269 209.458L136.479 209.507L136.415 213.062L141.355 213.183C142.659 213.239 143.679 213.652 144.415 214.424C145.166 215.183 145.529 216.254 145.5 217.653L145.466 219.618C145.437 221.001 145.033 222.053 144.254 222.775C143.481 223.505 142.44 223.868 141.121 223.846L138.215 223.783C136.897 223.732 135.869 223.322 135.133 222.555C134.396 221.796 134.042 220.725 134.07 219.342Z" fill="#F3F3F4"/>
</g>
<mask id="mask8_121_423" style="mask-type:luminance" maskUnits="userSpaceOnUse" x="0" y="0" width="282" height="242">
<path d="M0 0H281.179V241.554H0V0Z" fill="white"/>
</mask>
<g mask="url(#mask8_121_423)">
<path d="M155.222 217.851L151.729 218.263C150.602 218.396 150.099 218.94 150.22 219.894L150.262 220.25C150.382 221.185 150.998 221.598 152.125 221.463L155.612 221.058C156.766 220.925 157.284 220.383 157.164 219.433L157.121 219.086C157.008 218.129 156.37 217.716 155.222 217.851ZM151.827 223.421C150.799 223.542 149.949 223.35 149.277 222.845C148.596 222.341 148.199 221.633 148.087 220.724L147.994 219.972C147.882 219.05 148.094 218.27 148.633 217.617C149.164 216.957 149.935 216.567 150.964 216.447L156.711 215.78L156.704 215.722C156.569 214.596 155.882 214.105 154.641 214.248L148.25 214.999L148.023 213.12L154.373 212.375C155.696 212.22 156.747 212.437 157.525 213.027C158.316 213.596 158.789 214.499 158.942 215.737L159.403 219.476C159.517 220.426 159.29 221.222 158.715 221.845C158.186 222.419 157.39 222.769 156.328 222.896L151.827 223.421Z" fill="#F3F3F4"/>
</g>
<mask id="mask9_121_423" style="mask-type:luminance" maskUnits="userSpaceOnUse" x="0" y="0" width="282" height="242">
<path d="M0 0H281.179V241.554H0V0Z" fill="white"/>
</mask>
<g mask="url(#mask9_121_423)">
<path d="M162.775 221.781L159.679 207.876L161.876 207.4L164.972 221.307L162.775 221.781Z" fill="#F3F3F4"/>
</g>
<mask id="mask10_121_423" style="mask-type:luminance" maskUnits="userSpaceOnUse" x="0" y="0" width="282" height="242">
<path d="M0 0H281.179V241.554H0V0Z" fill="white"/>
</mask>
<g mask="url(#mask10_121_423)">
<path d="M167.744 220.631L163.945 206.897L166.128 206.316L169.919 220.05L167.744 220.631Z" fill="#F3F3F4"/>
</g>
<mask id="mask11_121_423" style="mask-type:luminance" maskUnits="userSpaceOnUse" x="0" y="0" width="282" height="242">
<path d="M0 0H281.179V241.554H0V0Z" fill="white"/>
</mask>
<g mask="url(#mask11_121_423)">
<path d="M176.375 212.607L174.866 209.331C174.198 207.898 174.1 206.507 174.588 205.181C175.015 203.939 176.012 202.967 177.58 202.25L184.473 199.137L185.282 200.888L178.48 203.968C177.523 204.4 176.906 205.06 176.629 205.947C176.395 206.741 176.502 207.593 176.934 208.501L178.358 211.579C178.769 212.485 179.353 213.114 180.109 213.467C180.967 213.837 181.874 213.806 182.83 213.374L189.632 210.303L190.44 212.048L183.554 215.17C181.986 215.88 180.59 215.993 179.365 215.51C178.029 214.989 177.032 214.022 176.375 212.607Z" fill="#F3F3F4"/>
</g>
<mask id="mask12_121_423" style="mask-type:luminance" maskUnits="userSpaceOnUse" x="0" y="0" width="282" height="242">
<path d="M0 0H281.179V241.554H0V0Z" fill="white"/>
</mask>
<g mask="url(#mask12_121_423)">
<path d="M193.161 210.31L185.997 197.958L187.945 196.852L195.111 209.197L193.161 210.31Z" fill="#F3F3F4"/>
</g>
<mask id="mask13_121_423" style="mask-type:luminance" maskUnits="userSpaceOnUse" x="0" y="0" width="282" height="242">
<path d="M0 0H281.179V241.554H0V0Z" fill="white"/>
</mask>
<g mask="url(#mask13_121_423)">
<path d="M201.212 205.223C200.1 206.011 198.993 206.316 197.874 206.124C196.771 205.941 195.798 205.272 194.955 204.117L191.312 199.129L193.105 197.838L196.676 202.726C197.201 203.443 197.71 203.882 198.215 204.024C198.88 204.186 199.532 204.04 200.17 203.585L201.701 202.484C202.358 202.017 202.708 201.447 202.75 200.775C202.784 200.243 202.543 199.611 202.012 198.895L198.449 194.013L200.248 192.722L203.891 197.709C204.725 198.866 205.066 199.994 204.896 201.095C204.731 202.199 204.089 203.152 202.969 203.953L201.212 205.223Z" fill="#F3F3F4"/>
</g>
<mask id="mask14_121_423" style="mask-type:luminance" maskUnits="userSpaceOnUse" x="0" y="0" width="282" height="242">
<path d="M0 0H281.179V241.554H0V0Z" fill="white"/>
</mask>
<g mask="url(#mask14_121_423)">
<path d="M207.519 194.609C208.069 195.178 208.596 195.509 209.099 195.602C209.695 195.694 210.274 195.475 210.835 194.943L212.713 193.149C213.265 192.608 213.511 192.035 213.449 191.431C213.379 190.928 213.065 190.394 212.508 189.829L211.289 188.572C210.726 187.991 210.197 187.655 209.701 187.564C209.079 187.476 208.488 187.698 207.929 188.232L204.499 191.509L207.519 194.609ZM206.003 196.213L199.071 189.082L200.666 187.559L203.153 190.127L206.703 186.727C207.661 185.849 208.672 185.421 209.736 185.443C210.805 185.451 211.83 185.96 212.811 186.968L214.186 188.381C215.153 189.38 215.624 190.409 215.597 191.467C215.583 192.524 215.107 193.517 214.166 194.433L212.081 196.425C211.126 197.327 210.113 197.765 209.041 197.738C207.985 197.724 206.966 197.213 206.003 196.213Z" fill="#F3F3F4"/>
</g>
<mask id="mask15_121_423" style="mask-type:luminance" maskUnits="userSpaceOnUse" x="0" y="0" width="282" height="242">
<path d="M0 0H281.179V241.554H0V0Z" fill="white"/>
</mask>
<g mask="url(#mask15_121_423)">
<path d="M99.9073 22.6243L106.179 35.4085L104.174 36.3947L100.865 29.6475L93.3041 33.3725L96.6057 40.1124L94.6066 41.0986L88.3354 28.3071L90.3345 27.3282L92.4388 31.6126L100.014 27.8949L97.91 23.6105L99.9073 22.6243Z" fill="#F3F3F4"/>
</g>
<mask id="mask16_121_423" style="mask-type:luminance" maskUnits="userSpaceOnUse" x="0" y="0" width="282" height="242">
<path d="M0 0H281.179V241.554H0V0Z" fill="white"/>
</mask>
<g mask="url(#mask16_121_423)">
<path d="M112.981 27.7824L109.616 28.8539C108.531 29.2002 108.135 29.8341 108.426 30.7555L108.539 31.0879C108.822 32.0032 109.509 32.2793 110.601 31.9396L113.959 30.8608C115.072 30.5121 115.483 29.8831 115.193 28.9738L115.086 28.6342C114.788 27.7115 114.095 27.4282 112.981 27.7824ZM110.665 33.9266C109.673 34.245 108.799 34.2166 108.043 33.8412C107.278 33.4725 106.761 32.855 106.476 31.9814L106.249 31.2513C105.969 30.3674 106.035 29.5538 106.449 28.8103C106.844 28.0596 107.538 27.5251 108.531 27.2066L114.073 25.4486L114.052 25.3904C113.706 24.3056 112.938 23.9532 111.749 24.3334L105.591 26.2931L105.01 24.4823L111.14 22.5318C112.416 22.1261 113.49 22.1431 114.364 22.5826C115.249 22.9858 115.887 23.7886 116.263 24.98L117.404 28.5761C117.694 29.4987 117.616 30.3214 117.155 31.0533C116.744 31.7193 116.026 32.2157 115.002 32.5426L110.665 33.9266Z" fill="#F3F3F4"/>
</g>
<mask id="mask17_121_423" style="mask-type:luminance" maskUnits="userSpaceOnUse" x="0" y="0" width="282" height="242">
<path d="M0 0H281.179V241.554H0V0Z" fill="white"/>
</mask>
<g mask="url(#mask17_121_423)">
<path d="M122.427 19.8146L124.589 19.4459C125.956 19.211 127.099 19.4241 128.018 20.0852C128.931 20.7487 129.51 21.7888 129.754 23.2054L130.783 29.257L128.586 29.6257L127.572 23.6885C127.424 22.8107 127.145 22.198 126.736 21.8505C126.211 21.4037 125.56 21.2403 124.753 21.382L122.881 21.6943C122.101 21.8312 121.536 22.198 121.188 22.795C120.94 23.2551 120.891 23.924 121.039 24.8018L122.044 30.7408L119.848 31.1168L118.821 25.0725C118.58 23.6546 118.783 22.4814 119.43 21.5527C120.075 20.6216 121.074 20.0422 122.427 19.8146Z" fill="#F3F3F4"/>
</g>
<mask id="mask18_121_423" style="mask-type:luminance" maskUnits="userSpaceOnUse" x="0" y="0" width="282" height="242">
<path d="M0 0H281.179V241.554H0V0Z" fill="white"/>
</mask>
<g mask="url(#mask18_121_423)">
<path d="M140.334 27.4626C139.54 28.4179 138.555 28.898 137.378 28.9028H136.005C134.772 28.9089 133.787 28.5208 133.05 27.7387C132.357 27.0073 132.008 25.9739 132.002 24.6384L131.987 18.2036L134.198 18.1982L134.211 24.6529C134.211 25.4315 134.382 26.0018 134.723 26.3638C135.106 26.7694 135.607 26.9728 136.225 26.974L137.195 26.9668C137.824 26.9668 138.33 26.7609 138.712 26.3493C139.058 25.9921 139.23 25.4218 139.229 24.6384L139.214 18.1909L141.404 18.1837L141.418 24.6312C141.426 25.4121 141.589 25.9879 141.921 26.342C142.311 26.7476 142.815 26.951 143.43 26.9523H144.395C145.032 26.945 145.536 26.747 145.919 26.3347C146.265 25.9751 146.437 25.403 146.436 24.6184L146.421 18.1691L148.633 18.1619L148.646 24.5966C148.646 25.937 148.292 26.974 147.57 27.7042C146.844 28.4912 145.857 28.8835 144.607 28.8811L143.254 28.8883C142.1 28.8883 141.127 28.4131 140.334 27.4626Z" fill="#F3F3F4"/>
</g>
<mask id="mask19_121_423" style="mask-type:luminance" maskUnits="userSpaceOnUse" x="0" y="0" width="282" height="242">
<path d="M0 0H281.179V241.554H0V0Z" fill="white"/>
</mask>
<g mask="url(#mask19_121_423)">
<path d="M155.916 21.3112C155.133 21.178 154.476 21.3391 153.946 21.7943C153.565 22.143 153.301 22.7581 153.153 23.6396L152.161 29.584L149.964 29.2153L152.317 15.1252L154.514 15.5012L153.819 19.6585C154.535 19.3379 155.33 19.2417 156.101 19.3824L158.262 19.7438C159.628 19.9739 160.637 20.5508 161.288 21.4747C161.936 22.4033 162.144 23.5766 161.912 24.9945L160.898 31.0388L158.701 30.6773L159.693 24.7311C159.842 23.8521 159.771 23.1855 159.503 22.7242C159.162 22.1273 158.588 21.7604 157.781 21.6236L155.916 21.3112Z" fill="#F3F3F4"/>
</g>
<mask id="mask20_121_423" style="mask-type:luminance" maskUnits="userSpaceOnUse" x="0" y="0" width="282" height="242">
<path d="M0 0H281.179V241.554H0V0Z" fill="white"/>
</mask>
<g mask="url(#mask20_121_423)">
<path d="M170.784 28.6468L167.417 27.5898C166.329 27.2435 165.639 27.5323 165.348 28.4561L165.242 28.7957C164.959 29.7038 165.355 30.3286 166.447 30.6773L169.812 31.7344C170.92 32.0879 171.617 31.8064 171.904 30.8898L172.009 30.5556C172.306 29.633 171.889 28.9955 170.784 28.6468ZM165.355 32.3373C164.364 32.0249 163.668 31.5001 163.265 30.7627C162.848 30.0162 162.775 29.2153 163.053 28.3363L163.28 27.6116C163.555 26.7253 164.087 26.0932 164.845 25.7246C165.606 25.3419 166.48 25.3062 167.466 25.6174L173.016 27.3628L173.03 27.3137C173.377 26.2228 172.952 25.4897 171.755 25.1143L165.589 23.1783L166.164 21.3621L172.294 23.2909C173.568 23.6953 174.44 24.3291 174.908 25.1924C175.397 26.0351 175.454 27.0546 175.078 28.2509L173.944 31.847C173.654 32.7696 173.108 33.4016 172.321 33.734C171.599 34.0403 170.725 34.0312 169.7 33.7067L165.355 32.3373Z" fill="#F3F3F4"/>
</g>
<mask id="mask21_121_423" style="mask-type:luminance" maskUnits="userSpaceOnUse" x="0" y="0" width="282" height="242">
<path d="M0 0H281.179V241.554H0V0Z" fill="white"/>
</mask>
<g mask="url(#mask21_121_423)">
<path d="M219.757 120.003C219.757 163.826 184.275 199.356 140.497 199.356C96.7254 199.356 61.2461 163.826 61.2461 120.003C61.2461 76.173 96.7254 40.6445 140.497 40.6445C184.275 40.6445 219.757 76.173 219.757 120.003Z" fill="white"/>
</g>
<mask id="mask22_121_423" style="mask-type:luminance" maskUnits="userSpaceOnUse" x="0" y="0" width="282" height="242">
<path d="M0 0H281.179V241.554H0V0Z" fill="white"/>
</mask>
<g mask="url(#mask22_121_423)">
<path d="M216.667 129.595C216.593 129.5 216.501 129.421 216.397 129.362C216.315 129.318 216.222 129.295 216.128 129.297C215.582 129.34 215.441 130.078 215.327 130.49C214.616 133.09 213.851 135.675 213.032 138.243L212.988 138.385L213.045 138.514C213.576 139.903 213.973 141.344 214.222 142.806C214.271 143.118 214.483 143.557 214.88 143.465C214.98 143.436 215.071 143.383 215.143 143.309C215.702 142.813 215.894 141.868 215.802 141.16C215.644 139.911 215.356 138.681 214.944 137.491C215.59 135.463 216.199 133.39 216.743 131.369C216.836 131.022 216.921 130.702 216.887 130.341C216.858 130.078 216.809 129.802 216.667 129.595Z" fill="#EBBC95"/>
</g>
<mask id="mask23_121_423" style="mask-type:luminance" maskUnits="userSpaceOnUse" x="0" y="0" width="282" height="242">
<path d="M0 0H281.179V241.554H0V0Z" fill="white"/>
</mask>
<g mask="url(#mask23_121_423)">
<path d="M211.401 132.695C210.565 132.17 210.104 133.412 209.928 133.993C209.072 136.737 208.179 139.469 207.249 142.188L207.185 142.386L207.305 142.557C208.212 143.834 209.048 145.196 209.765 146.587C210.055 147.148 210.608 147.302 211.026 146.758C211.423 146.24 211.784 145.247 211.494 144.607C210.973 143.435 210.364 142.304 209.672 141.224C210.394 139.088 211.104 136.874 211.762 134.696C211.918 134.193 212.003 133.759 211.82 133.249C211.74 133.026 211.594 132.832 211.401 132.695Z" fill="#EBBC95"/>
</g>
<mask id="mask24_121_423" style="mask-type:luminance" maskUnits="userSpaceOnUse" x="0" y="0" width="282" height="242">
<path d="M0 0H281.179V241.554H0V0Z" fill="white"/>
</mask>
<g mask="url(#mask24_121_423)">
<path d="M202.721 145.813C203.479 143.543 204.23 141.266 204.939 139.039C205.186 138.28 205.237 137.457 204.386 137.074C204.243 137.005 204.084 136.976 203.925 136.988C203.23 137.074 202.862 137.967 202.692 138.534C201.828 141.405 200.904 144.258 199.922 147.09L199.829 147.353L200.036 147.53C201.318 148.637 202.55 149.843 203.684 151.106C203.814 151.263 203.983 151.383 204.174 151.454C204.174 151.454 204.513 151.496 204.584 151.474C205.549 151.206 206.115 149.616 205.478 148.815C204.633 147.749 203.711 146.746 202.721 145.813Z" fill="#EBBC95"/>
</g>
<mask id="mask25_121_423" style="mask-type:luminance" maskUnits="userSpaceOnUse" x="0" y="0" width="282" height="242">
<path d="M0 0H281.179V241.554H0V0Z" fill="white"/>
</mask>
<g mask="url(#mask25_121_423)">
<path d="M198.115 153.759C196.935 152.854 195.704 152.015 194.431 151.247C195.124 148.95 195.833 146.658 196.535 144.409C196.684 143.941 196.803 143.438 196.52 142.984C196.265 142.571 195.74 142.401 195.28 142.5C194.438 142.678 194.146 143.387 193.926 144.124C193.083 147.006 192.228 149.884 191.361 152.758L191.271 153.071L191.553 153.227C193.21 154.172 194.829 155.18 196.408 156.249C196.91 156.591 197.513 156.591 197.952 156.151C198.554 155.548 198.888 154.355 198.115 153.759Z" fill="#EBBC95"/>
</g>
<mask id="mask26_121_423" style="mask-type:luminance" maskUnits="userSpaceOnUse" x="0" y="0" width="282" height="242">
<path d="M0 0H281.179V241.554H0V0Z" fill="white"/>
</mask>
<g mask="url(#mask26_121_423)">
<path d="M189.739 159.386C188.263 158.663 186.754 158.007 185.219 157.421C185.841 155.158 186.431 152.851 186.967 150.617C187.067 150.212 187.182 149.751 186.933 149.375C186.815 149.207 186.662 149.068 186.484 148.966C186.306 148.864 186.108 148.803 185.904 148.786C184.885 148.716 184.312 149.729 184.09 150.574C183.346 153.438 182.636 156.312 181.959 159.193L181.881 159.542L182.213 159.662C184.192 160.4 186.155 161.18 188.101 162.003C188.34 162.123 188.609 162.171 188.875 162.14C189.141 162.11 189.392 162.003 189.598 161.832C189.88 161.586 190.095 161.272 190.22 160.919C190.447 160.35 190.369 159.655 189.739 159.386Z" fill="#EBBC95"/>
</g>
<mask id="mask27_121_423" style="mask-type:luminance" maskUnits="userSpaceOnUse" x="0" y="0" width="282" height="242">
<path d="M0 0H281.179V241.554H0V0Z" fill="white"/>
</mask>
<g mask="url(#mask27_121_423)">
<path d="M181.364 165.848C181.214 165.674 181.017 165.548 180.796 165.486C179.082 164.905 177.317 164.415 175.546 164.039C175.907 161.91 176.317 159.74 176.758 157.584C176.97 156.747 176.509 155.951 175.588 155.937C174.469 155.924 173.874 156.781 173.674 157.76C173.351 159.355 173.044 160.961 172.753 162.578C172.562 163.723 172.383 164.87 172.216 166.018L172.165 166.402L172.533 166.472C174.822 166.926 177.134 167.473 179.387 168.091C179.59 168.155 179.783 168.188 179.967 168.189C180.598 168.189 181.193 167.749 181.462 167.19C181.689 166.728 181.654 166.204 181.364 165.848Z" fill="#EBBC95"/>
</g>
<mask id="mask28_121_423" style="mask-type:luminance" maskUnits="userSpaceOnUse" x="0" y="0" width="282" height="242">
<path d="M0 0H281.179V241.554H0V0Z" fill="white"/>
</mask>
<g mask="url(#mask28_121_423)">
<path d="M172.279 172.177L172.194 172.106C171.997 171.977 171.774 171.892 171.541 171.858C169.608 171.484 167.664 171.176 165.71 170.935C165.865 168.951 166.071 166.971 166.327 164.998C166.481 163.799 165.398 163.216 164.321 163.607C163.57 163.883 163.124 164.6 163.102 165.386C162.792 167.921 162.6 170.469 162.529 173.022L162.521 173.398L162.889 173.432C165.391 173.659 167.893 174.001 170.316 174.433C170.493 174.481 170.663 174.505 170.826 174.504C171.151 174.498 171.469 174.404 171.745 174.234C172.022 174.063 172.248 173.82 172.399 173.532C172.505 173.317 172.55 173.077 172.529 172.838C172.508 172.599 172.421 172.37 172.279 172.177Z" fill="#EBBC95"/>
</g>
<mask id="mask29_121_423" style="mask-type:luminance" maskUnits="userSpaceOnUse" x="0" y="0" width="282" height="242">
<path d="M0 0H281.179V241.554H0V0Z" fill="white"/>
</mask>
<g mask="url(#mask29_121_423)">
<path d="M163.528 178.668C163.329 178.356 162.939 178.178 162.536 178.178C160.471 177.954 158.401 177.781 156.328 177.66C156.28 175.871 156.242 174.093 156.214 172.326C156.207 171.894 156.109 171.467 155.697 171.24C155.427 171.106 155.126 171.05 154.826 171.077C153.77 171.14 152.99 171.865 153.012 172.951C153.032 175.185 153.132 177.441 153.31 179.662L153.337 180.009L153.685 180.03C156.321 180.208 158.957 180.399 161.558 180.592C161.679 180.611 161.797 180.62 161.912 180.619C162.699 180.619 163.563 180.109 163.655 179.257C163.684 179.052 163.639 178.843 163.528 178.668Z" fill="#EBBC95"/>
</g>
<mask id="mask30_121_423" style="mask-type:luminance" maskUnits="userSpaceOnUse" x="0" y="0" width="282" height="242">
<path d="M0 0H281.179V241.554H0V0Z" fill="white"/>
</mask>
<g mask="url(#mask30_121_423)">
<path d="M154.96 184.295C154.705 184.117 154.365 184.061 154.061 184.061C151.956 184.017 149.816 183.961 147.711 183.883C147.392 182.357 147.136 180.831 146.939 179.357C146.861 178.817 146.563 178.427 146.032 178.3C145.474 178.177 144.891 178.274 144.403 178.568C143.877 178.888 143.701 179.449 143.779 180.038C144.1 181.987 144.521 183.919 145.039 185.826L145.117 186.118L145.415 186.124C148.065 186.16 150.708 186.196 153.317 186.224C153.408 186.238 153.515 186.245 153.607 186.245C154.195 186.245 154.882 186.04 155.202 185.501C155.278 185.377 155.325 185.237 155.339 185.091C155.352 184.946 155.332 184.8 155.28 184.664C155.209 184.514 155.098 184.386 154.96 184.295Z" fill="#EBBC95"/>
</g>
<mask id="mask31_121_423" style="mask-type:luminance" maskUnits="userSpaceOnUse" x="0" y="0" width="282" height="242">
<path d="M0 0H281.179V241.554H0V0Z" fill="white"/>
</mask>
<g mask="url(#mask31_121_423)">
<path d="M147.421 189.458C147.144 189.275 146.754 189.26 146.436 189.253L140.114 189.126C139.599 187.923 139.133 186.699 138.719 185.457C138.663 185.263 138.556 185.087 138.411 184.947C138.266 184.806 138.086 184.706 137.89 184.656C137.647 184.599 137.395 184.584 137.146 184.613C136.791 184.634 136.43 184.705 136.14 184.905C135.701 185.21 135.63 185.748 135.813 186.231C136.352 187.813 137.01 189.375 137.783 190.857L137.89 191.062L138.124 191.069C139.817 191.133 141.518 191.169 143.204 191.169C144.125 191.169 145.047 191.155 145.946 191.14C146.378 191.126 146.882 191.126 147.272 190.899C147.391 190.833 147.494 190.744 147.577 190.636C147.659 190.529 147.719 190.407 147.753 190.276C147.784 190.122 147.769 189.962 147.71 189.817C147.651 189.672 147.551 189.547 147.421 189.458Z" fill="#EBBC95"/>
</g>
<mask id="mask32_121_423" style="mask-type:luminance" maskUnits="userSpaceOnUse" x="0" y="0" width="282" height="242">
<path d="M0 0H281.179V241.554H0V0Z" fill="white"/>
</mask>
<g mask="url(#mask32_121_423)">
<path d="M141.05 193.708C140.767 193.383 140.136 193.312 139.775 193.305C137.741 193.247 135.701 193.19 133.667 193.12C132.949 192.226 132.307 191.275 131.746 190.275C131.419 189.685 130.576 189.629 130.01 189.685C129.766 189.698 129.53 189.771 129.322 189.9C128.911 190.168 128.847 190.7 129.139 191.098C129.925 192.331 130.824 193.525 131.802 194.616L131.916 194.745L132.085 194.751C134.505 194.844 136.927 194.892 139.349 194.894H139.456C139.541 194.904 139.626 194.909 139.711 194.907C140.15 194.907 140.626 194.836 140.965 194.545C141.078 194.457 141.156 194.332 141.185 194.191C141.2 194.106 141.195 194.018 141.172 193.934C141.149 193.851 141.107 193.773 141.05 193.708Z" fill="#EBBC95"/>
</g>
<mask id="mask33_121_423" style="mask-type:luminance" maskUnits="userSpaceOnUse" x="0" y="0" width="282" height="242">
<path d="M0 0H281.179V241.554H0V0Z" fill="white"/>
</mask>
<g mask="url(#mask33_121_423)">
<path d="M135.289 196.213C134.962 196.015 134.425 195.978 134.133 195.993C132.248 195.911 130.365 195.786 128.486 195.617C127.67 194.984 126.874 194.326 126.099 193.645C125.631 193.227 125.028 193.12 124.426 193.134C124.207 193.132 123.992 193.196 123.809 193.318C123.463 193.588 123.526 194.142 123.902 194.355C124.858 195.221 125.898 195.991 127.006 196.652L127.162 196.703C129.437 196.972 131.753 197.157 134.043 197.263C134.171 197.277 134.303 197.284 134.438 197.284C134.821 197.284 135.494 197.243 135.559 196.745C135.586 196.496 135.474 196.327 135.289 196.213Z" fill="#EBBC95"/>
</g>
<mask id="mask34_121_423" style="mask-type:luminance" maskUnits="userSpaceOnUse" x="0" y="0" width="282" height="242">
<path d="M0 0H281.179V241.554H0V0Z" fill="white"/>
</mask>
<g mask="url(#mask34_121_423)">
<path d="M89.9591 86.2547C88.7763 85.0269 86.9405 87.0574 88.0308 88.178C89.0231 89.3404 90.0861 90.4682 91.1981 91.547C90.2904 93.4194 89.3791 95.2901 88.4643 97.1591C88.1233 97.8547 88.1305 98.6411 88.8598 99.0824C89.7541 99.6001 90.4979 98.8972 90.8661 98.1162C92.0135 95.7079 93.1376 93.2887 94.2385 90.8587L94.3673 90.5972L94.1459 90.3974C92.715 89.0527 91.319 87.6713 89.9591 86.2547Z" fill="#EBBC95"/>
</g>
<mask id="mask35_121_423" style="mask-type:luminance" maskUnits="userSpaceOnUse" x="0" y="0" width="282" height="242">
<path d="M0 0H281.179V241.554H0V0Z" fill="white"/>
</mask>
<g mask="url(#mask35_121_423)">
<path d="M98.0226 82.9567C97.1156 82.2828 95.9673 82.6788 95.7133 83.8212C95.5356 84.5876 96.0181 84.9999 96.5496 85.4249L97.7886 86.4111C98.0081 86.5818 100.29 88.171 100.256 88.2636C99.4619 90.2747 98.6254 92.2688 97.7469 94.2443C97.4131 94.9817 97.6471 95.897 98.4417 96.2094C99.4267 96.5854 100.107 95.819 100.461 94.9889C101.548 92.4491 102.583 89.8871 103.565 87.3046L103.67 87.014L103.416 86.836C101.602 85.5665 99.7804 84.2625 98.0226 82.9567Z" fill="#EBBC95"/>
</g>
<mask id="mask36_121_423" style="mask-type:luminance" maskUnits="userSpaceOnUse" x="0" y="0" width="282" height="242">
<path d="M0 0H281.179V241.554H0V0Z" fill="white"/>
</mask>
<g mask="url(#mask36_121_423)">
<path d="M106.881 79.1118C106.215 78.7413 105.428 78.7558 104.903 79.3461C104.357 79.9545 104.337 81.0061 105.13 81.4093C106.766 82.3894 108.422 83.3358 110.097 84.248C109.431 86.333 108.758 88.4271 108.093 90.4903C107.988 90.7515 107.94 91.0318 107.951 91.313C107.966 92.0522 108.731 92.4063 109.382 92.4281C110.289 92.4626 110.821 91.8106 111.089 91.0006C111.962 88.3907 112.776 85.7028 113.513 83.013L113.598 82.7006L113.315 82.5444C111.162 81.4157 109.017 80.2715 106.881 79.1118Z" fill="#EBBC95"/>
</g>
<mask id="mask37_121_423" style="mask-type:luminance" maskUnits="userSpaceOnUse" x="0" y="0" width="282" height="242">
<path d="M0 0H281.179V241.554H0V0Z" fill="white"/>
</mask>
<g mask="url(#mask37_121_423)">
<path d="M123.831 77.5298L123.526 77.4081C121.076 76.4537 118.629 75.4911 116.185 74.5204C115.229 74.1444 113.945 74.5059 113.81 75.6846C113.683 76.9123 115.49 77.33 116.341 77.6987C117.666 78.2884 119.01 78.8393 120.372 79.3515C119.967 81.4694 119.524 83.5796 119.04 85.6809C118.99 85.8779 118.981 86.0832 119.013 86.284C119.046 86.4847 119.119 86.6766 119.229 86.8477C119.338 87.0188 119.482 87.1654 119.651 87.2784C119.82 87.3914 120.01 87.4683 120.21 87.5044C121.237 87.6951 122.037 86.8941 122.222 85.9352C122.768 83.6304 123.236 81.2603 123.604 78.9047L123.831 77.5298Z" fill="#EBBC95"/>
</g>
<mask id="mask38_121_423" style="mask-type:luminance" maskUnits="userSpaceOnUse" x="0" y="0" width="282" height="242">
<path d="M0 0H281.179V241.554H0V0Z" fill="white"/>
</mask>
<g mask="url(#mask38_121_423)">
<path d="M123.398 71.6054C123.561 71.7616 123.773 71.8742 124.014 71.9378C126.062 72.6969 128.159 73.378 130.266 73.9683C130.188 76.0204 130.039 78.0691 129.817 80.1106C129.727 80.9624 130.315 81.6435 131.144 81.7579C132.207 81.9069 132.987 81.155 133.085 80.1179C133.34 77.5153 133.453 74.8618 133.426 72.2356L133.418 71.9305L133.121 71.8524C132.609 71.7175 132.098 71.5758 131.59 71.4274C129.491 70.7984 127.388 70.1815 125.282 69.5767C124.433 69.3351 123.263 69.3915 123.037 70.4775C122.992 70.6807 123.002 70.892 123.066 71.0901C123.129 71.2881 123.243 71.4659 123.398 71.6054Z" fill="#EBBC95"/>
</g>
<mask id="mask39_121_423" style="mask-type:luminance" maskUnits="userSpaceOnUse" x="0" y="0" width="282" height="242">
<path d="M0 0H281.179V241.554H0V0Z" fill="white"/>
</mask>
<g mask="url(#mask39_121_423)">
<path d="M132.831 66.6961C135.013 67.1501 137.23 67.6459 139.434 68.1563C139.682 70.0899 139.847 72.0332 139.931 73.9808C139.973 75.0524 140.923 75.6772 141.964 75.4501C142.345 75.3621 142.677 75.133 142.895 74.8092C143.114 74.4853 143.201 74.0906 143.14 73.7048C143.006 71.2005 142.694 68.709 142.206 66.2493L142.148 65.9859L141.894 65.9296C139.181 65.3702 136.464 64.8259 133.745 64.2969C132.858 64.128 131.583 64.2406 131.59 65.4465C131.597 66.1494 132.178 66.6034 132.831 66.6961Z" fill="#EBBC95"/>
</g>
<mask id="mask40_121_423" style="mask-type:luminance" maskUnits="userSpaceOnUse" x="0" y="0" width="282" height="242">
<path d="M0 0H281.179V241.554H0V0Z" fill="white"/>
</mask>
<g mask="url(#mask40_121_423)">
<path d="M139.419 60.552C139.474 60.6518 139.544 60.7425 139.626 60.8208C140.072 61.2676 140.724 61.2893 141.311 61.3892C141.979 61.5018 142.638 61.609 143.311 61.7143C143.976 61.8288 144.635 61.9287 145.31 62.0267C145.507 62.0631 147.18 62.1757 147.222 62.3046C147.817 64.0845 148.328 65.9007 148.738 67.6751C148.972 68.6395 149.901 69.0572 150.842 68.8593C151.679 68.6813 152.04 67.8658 151.786 67.0866C151.239 64.7937 150.514 62.547 149.618 60.3667L149.533 60.1542L149.306 60.1197C146.585 59.7055 143.859 59.3271 141.128 58.9846C140.638 58.9265 139.994 58.8992 139.59 59.2389C139.193 59.5658 139.187 60.1252 139.419 60.552Z" fill="#EBBC95"/>
</g>
<mask id="mask41_121_423" style="mask-type:luminance" maskUnits="userSpaceOnUse" x="0" y="0" width="282" height="242">
<path d="M0 0H281.179V241.554H0V0Z" fill="white"/>
</mask>
<g mask="url(#mask41_121_423)">
<path d="M145.826 55.5138C146.139 55.8697 146.619 56.0114 147.073 56.0677C149.157 56.3165 151.325 56.5435 153.522 56.7415C154.452 58.2526 155.271 59.8345 155.98 61.4872C156.355 62.3608 157.533 62.695 158.362 62.3172C159.027 62.0139 159.042 61.282 158.737 60.7008C157.78 58.64 156.652 56.6631 155.365 54.7909L155.258 54.6275L155.065 54.6129C152.469 54.3802 149.872 54.1677 147.272 53.9754C146.846 53.9391 146.295 53.8973 145.919 54.1389C145.429 54.444 145.458 55.0888 145.826 55.5138Z" fill="#EBBC95"/>
</g>
<mask id="mask42_121_423" style="mask-type:luminance" maskUnits="userSpaceOnUse" x="0" y="0" width="282" height="242">
<path d="M0 0H281.179V241.554H0V0Z" fill="white"/>
</mask>
<g mask="url(#mask42_121_423)">
<path d="M150.489 50.6266C150.801 51.1805 151.459 51.3785 152.054 51.4148C154.046 51.5419 156.045 51.6763 158.035 51.8252C159.192 53.0846 160.283 54.4038 161.302 55.7773C161.741 56.4148 162.563 56.7707 163.336 56.5582C164.172 56.3312 164.116 55.4159 163.612 54.8692C162.33 53.1617 160.911 51.5623 159.368 50.0871L159.261 49.9873L159.12 49.9818C156.689 49.8038 154.251 49.6404 151.849 49.506C151.211 49.4624 149.986 49.6404 150.489 50.6266Z" fill="#EBBC95"/>
</g>
<mask id="mask43_121_423" style="mask-type:luminance" maskUnits="userSpaceOnUse" x="0" y="0" width="282" height="242">
<path d="M0 0H281.179V241.554H0V0Z" fill="white"/>
</mask>
<g mask="url(#mask43_121_423)">
<path d="M153.783 46.9378C153.836 46.9935 153.893 47.0456 153.953 47.094C154.365 47.4064 154.868 47.5263 155.37 47.5553C157.15 47.6534 158.964 47.7878 160.763 47.9513C162.109 48.8884 163.407 49.9309 164.618 51.0315C165.135 51.5055 166.198 52.0304 166.857 51.4856C167.354 51.0733 166.893 50.4558 166.51 50.1725C164.953 48.7707 163.269 47.5164 161.48 46.4256L161.302 46.3766C159.162 46.2004 157.008 46.057 154.939 45.9516C154.485 45.8735 153.493 45.8808 153.607 46.5764C153.629 46.7108 153.7 46.8307 153.783 46.9378Z" fill="#EBBC95"/>
</g>
<mask id="mask44_121_423" style="mask-type:luminance" maskUnits="userSpaceOnUse" x="0" y="0" width="282" height="242">
<path d="M0 0H281.179V241.554H0V0Z" fill="white"/>
</mask>
<g mask="url(#mask44_121_423)">
<path d="M155.477 44.2989C155.889 44.7385 156.569 44.8238 157.128 44.8656C158.659 44.9873 160.21 45.1635 161.756 45.3905C163.251 46.0298 164.704 46.7889 166.064 47.6462C166.496 47.9168 167.927 48.5906 168.205 47.8242C168.373 47.3556 167.758 46.9942 167.425 46.8089C165.684 45.8182 163.88 44.9439 162.024 44.1918L161.941 44.17C160.179 43.9035 158.409 43.6976 156.633 43.5525C156.306 43.518 155.378 43.3473 155.292 43.8304C155.265 43.9793 155.329 44.1282 155.477 44.2989Z" fill="#EBBC95"/>
</g>
<mask id="mask45_121_423" style="mask-type:luminance" maskUnits="userSpaceOnUse" x="0" y="0" width="282" height="242">
<path d="M0 0H281.179V241.554H0V0Z" fill="white"/>
</mask>
<g mask="url(#mask45_121_423)">
<path d="M280.591 87.1065C278.692 77.2664 273.901 68.9082 269.275 60.828L266.432 55.8625L260.239 57.7641C258.113 58.4233 256.016 59.0754 253.897 59.6511C251.289 60.3467 249.475 62.0412 248.511 64.6874C247.131 68.4839 245.611 72.2278 243.954 75.9115C243.692 75.2463 243.377 74.6032 243.013 73.9881C240.667 69.9725 236.471 67.4335 231.505 67.043C225.801 66.5817 220.415 67.8875 215.554 70.9315C210.006 74.4004 205.464 78.8065 201.941 84.1189L213.946 41.9214L205.257 44.3115C204.889 44.4114 204.591 44.4895 204.308 44.5748L201.148 45.561C198.603 46.342 196.067 47.1357 193.509 47.8803C191.078 48.5977 189.42 50.2795 188.718 52.7477C185.925 62.5528 183.13 72.3572 180.335 82.161L171.238 84.9362C168.374 85.8079 165.653 86.6379 162.931 87.5043C160.941 88.149 159.822 89.7109 159.34 90.5537C159.296 90.6245 159.262 90.6971 159.22 90.7607C151.332 89.0571 143.864 90.7879 137.451 95.8261C133.957 98.5634 130.919 101.839 128.452 105.53L130.003 97.635L120.074 100.664C117.29 101.509 114.598 102.332 111.926 103.189C109.765 103.877 108.709 105.715 108.375 106.296C108.357 106.337 108.333 106.376 108.305 106.411C102.204 104.765 96.2159 105.603 90.4272 108.923L84.488 79.9543L67.6862 84.9434C59.0204 87.5896 50.3619 90.2431 41.6944 92.8675C34.2822 95.1087 25.6091 98.1109 17.4894 103.345C10.2187 108.042 5.5348 113.114 2.75022 119.308C-1.77767 129.397 -0.709186 138.307 5.93752 145.791C8.57066 148.794 11.8517 151.157 15.5321 152.702L22.2296 155.412C19.5429 163.863 15.1856 170.112 8.93615 174.489C5.81053 176.667 3.98196 179.435 3.33072 182.945C3.16745 183.804 2.91167 184.642 2.6577 185.493C2.5029 186.008 2.35173 186.531 2.20419 187.061L0.75113 193.461L8.27039 193.042L21.6055 188.948C32.9361 185.472 44.274 181.995 55.5919 178.448C63.7823 175.888 69.678 171.779 73.6182 165.919C74.3474 164.834 75.0077 163.726 75.6245 162.62C76.7774 163.437 78.0358 164.093 79.3651 164.571C83.7878 166.16 88.9179 165.848 93.083 163.714C96.7329 161.854 99.8585 159.088 102.621 155.263C105.647 157.882 110.112 158.746 114.888 157.506C117.478 156.828 119.903 155.63 122.017 153.986L122.18 154.589C122.654 156.293 123.207 158.236 124.37 160.074C128.394 166.445 135.877 169.389 143.913 167.729C150.291 166.416 155.604 162.628 159.708 156.469C162.627 152.099 164.753 147.005 166.391 140.479C168.99 139.046 171.67 137.555 174.135 135.563C175.035 134.838 175.837 134.044 176.566 133.249C181.221 136.251 187.294 136.327 193.077 133.136C197.193 130.859 199.893 127.551 201.821 124.353C204.23 125.801 207.349 126.729 211.501 126.594C214.539 126.484 217.554 126.022 220.486 125.218C228.515 122.998 235.508 118.238 242.496 110.241C243.553 109.026 244.574 107.78 245.556 106.503C245.79 106.765 246.024 107.028 246.28 107.283C250.51 111.562 256.031 113.214 262.719 112.214C268.666 111.32 273.796 108.191 277.168 103.411C280.499 98.692 281.718 92.902 280.591 87.1065Z" fill="white"/>
</g>
<mask id="mask46_121_423" style="mask-type:luminance" maskUnits="userSpaceOnUse" x="0" y="0" width="282" height="242">
<path d="M0 0H281.179V241.554H0V0Z" fill="white"/>
</mask>
<g mask="url(#mask46_121_423)">
<path d="M213.705 96.4073C219.564 94.8036 224.518 92.4063 228.139 87.7949C229.337 86.2693 230.207 84.5658 230.258 82.5589C230.307 80.4593 228.883 79.0681 226.864 79.5658C225.489 79.9054 224.05 80.5229 222.98 81.4237C218.36 85.2904 215.985 90.6119 213.705 96.4073ZM158.908 103.431C155.236 101.409 151.325 102.019 148.065 105.105C142.899 110.014 140.165 116.229 138.675 123.055C138.031 125.984 137.741 128.972 138.577 131.93C139.47 135.087 141.879 135.98 144.493 133.986C145.812 132.98 146.987 131.681 147.965 130.334C150.835 126.367 152.778 121.905 154.385 117.315C156.009 112.711 157.418 108.035 158.908 103.431ZM107.461 119.01C107.249 118.783 107.207 118.698 107.136 118.656C106.981 118.566 106.82 118.488 106.654 118.421C102.813 116.91 99.568 118.082 96.7472 120.77C91.9853 125.303 89.2714 131.029 87.5064 137.25C86.5848 140.472 85.8701 143.763 86.3726 147.148C86.9331 150.879 89.52 152.07 92.6238 149.873C94.1821 148.765 95.5426 147.246 96.6692 145.672C99.5462 141.656 101.368 137.081 103.011 132.455C104.598 127.971 106.01 123.423 107.461 119.01ZM207.015 48.8103C206.044 52.252 205.137 55.4939 204.208 58.7431C198.715 77.9319 193.229 97.1225 187.747 116.315C187.499 117.174 187.279 118.053 187.23 118.932C187.145 120.365 187.94 120.975 189.342 120.67C191.695 120.167 193.006 118.394 194.153 116.513C197.052 111.774 198.412 106.467 199.744 101.133C202.516 90.0924 208.326 81.1113 218.098 74.9962C222.051 72.5207 226.416 71.4492 231.114 71.8251C238.492 72.4136 242.233 79.3387 238.96 86.4401C236.727 91.3002 232.894 94.6329 228.408 97.3154C223.689 100.132 218.557 101.878 213.166 102.849C212.11 103.04 211.691 103.481 211.762 104.502C211.854 105.964 211.72 107.475 212.047 108.879C212.535 110.986 214.3 112.214 216.475 112.285C220.181 112.399 223.319 110.844 226.233 108.774C231.548 104.985 235.571 99.9834 239.151 94.6057C245.017 85.8008 249.396 76.2512 253.012 66.333C253.415 65.2342 253.946 64.6021 255.138 64.2843C258.142 63.4815 261.097 62.5099 264.172 61.5727C269.005 70.0362 274.015 78.3307 275.885 88.022C277.707 97.4226 271.492 106.035 262.004 107.468C257.32 108.171 253.117 107.368 249.688 103.899C248.257 102.459 247.243 100.77 246.931 98.6558C248.348 99.1462 249.652 99.6783 251.005 100.047C253.309 100.686 255.611 100.516 257.837 99.6783C261.571 98.2726 263.414 95.1596 262.875 90.8098C262.173 85.1124 259.786 79.9762 257.228 74.613C256.64 76.0678 256.165 77.281 255.675 78.4797C251.425 88.8084 246.28 98.614 238.889 107.077C233.489 113.256 227.288 118.358 219.21 120.592C216.634 121.296 213.985 121.7 211.316 121.798C206.902 121.961 203.018 120.65 200.495 116.251C200.063 117.245 199.737 118.038 199.361 118.812C197.364 122.92 194.891 126.651 190.759 128.935C185.912 131.611 179.84 131.582 176.232 126.304C174.561 128.154 173.057 130.263 171.131 131.823C168.898 133.625 166.333 135.031 163.811 136.42C162.804 136.974 162.18 137.484 161.897 138.663C160.607 144.012 158.808 149.184 155.726 153.81C152.615 158.463 148.589 161.861 142.949 163.025C136.925 164.266 131.412 162.244 128.422 157.513C127.622 156.242 127.203 154.738 126.779 153.242C128.756 154.469 130.739 155.248 132.972 155.456C136.451 155.781 139.37 154.625 141.879 152.284C144.537 149.807 146.414 146.77 147.804 143.458C149.361 139.729 150.758 135.935 151.991 132.087C150.474 134.235 149.05 136.449 147.434 138.521C145.556 140.919 143.367 143.047 140.462 144.21C135.601 146.162 130.278 144.373 127.523 139.925L126.864 138.846C125.921 140.726 125.134 142.557 124.114 144.246C121.661 148.34 118.487 151.596 113.669 152.858C109.941 153.83 106.434 153.036 104.713 150.432C103.806 149.062 103.387 147.375 102.784 145.928C101.68 147.744 100.531 149.851 99.1852 151.816C97.0156 154.972 94.4016 157.662 90.915 159.442C85.6651 162.125 77.7213 160.931 74.866 154.32C74.7934 154.164 74.652 154.042 74.7227 154.128C73.0647 157.137 71.5771 160.343 69.6361 163.245C65.9155 168.786 60.359 171.921 54.1531 173.864C38.6048 178.739 23.0094 183.485 7.42664 188.281C7.3051 188.318 7.17086 188.303 6.82437 188.338C7.25612 186.778 7.76587 185.323 8.04342 183.826C8.48242 181.463 9.66519 179.832 11.6788 178.419C19.813 172.729 24.5822 164.685 27.2815 155.263C31.7949 139.549 36.3518 123.848 40.8869 108.135C40.9722 107.844 41.0212 107.539 41.15 106.978C39.1436 107.61 37.2806 108.135 35.4593 108.801C28.0107 111.525 21.6416 115.726 17.6507 122.791C13.0738 130.908 12.7763 139.222 17.0919 147.595C17.1627 147.737 17.2262 147.886 17.4112 148.283C14.3855 147.016 11.6881 145.075 9.52369 142.608C3.72052 136.066 3.74048 128.816 7.12914 121.28C9.85748 115.209 14.6049 110.922 20.0888 107.383C27.1962 102.793 35.033 99.8981 43.0837 97.4571C55.3994 93.7321 67.7005 89.9508 80.0161 86.1912C80.2229 86.1277 80.4352 86.0786 80.8324 85.9642L85.2678 107.651C85.1535 107.788 85.1118 107.886 85.0411 107.907C82.8152 108.752 82.8297 108.745 81.5127 106.731C80.6837 105.459 79.8184 104.219 78.9404 102.984C76.2538 99.2025 72.5984 97.9257 68.1467 98.99C65.257 99.6856 62.3944 100.536 59.53 101.387C59.1545 101.495 58.7082 101.956 58.603 102.339C55.8112 112.058 53.061 121.792 50.3037 131.525C50.262 131.681 50.2982 131.859 50.2982 132.241C56.4406 130.361 62.4851 128.51 68.7708 126.58C67.998 129.219 67.3395 131.611 66.554 133.959C66.4325 134.32 65.774 134.596 65.3059 134.74C59.9418 136.393 54.5703 138.031 49.1917 139.613C48.2211 139.896 47.7894 140.394 47.4991 141.358C46.0679 146.14 44.7563 150.964 42.9767 155.619C40.6311 161.761 36.6076 166.729 31.1799 170.51C30.91 170.685 30.6979 170.937 30.5704 171.233C33.3332 170.403 36.096 169.58 38.8534 168.743C43.715 167.268 48.5404 165.679 53.4293 164.317C62.4433 161.798 68.5295 156.151 71.6914 147.402C73.0374 143.677 73.959 139.805 75.2197 136.051C77.9753 127.886 82.476 120.855 89.3005 115.477C95.6914 110.434 102.672 108.737 110.545 112.314C111.211 111.1 111.84 109.887 112.528 108.703C112.734 108.34 113.025 107.873 113.378 107.766C116.765 106.672 120.174 105.652 123.753 104.558C123.646 105.098 123.597 105.481 123.497 105.842C120.378 116.769 117.263 127.694 114.151 138.619C113.895 139.52 113.634 140.436 113.542 141.358C113.4 142.898 114.293 143.614 115.795 143.223C118.099 142.613 119.401 140.841 120.528 138.946C123.37 134.172 124.88 128.908 126.07 123.543C128.203 113.966 132.589 105.744 140.411 99.6002C146.4 94.8963 153.083 93.7902 160.339 96.0096C160.729 96.1313 161.104 96.2511 161.493 96.3656C161.522 96.371 161.571 96.3292 161.748 96.2511C162.287 95.2159 162.86 94.059 163.499 92.9457C163.697 92.5897 164.038 92.1938 164.399 92.0721C167.751 91.0078 171.109 89.9944 174.744 88.8865C171.321 102.119 167.956 115.158 164.526 128.418C167.758 126.899 169.955 124.607 171.769 121.927C175.261 116.754 177.119 110.895 178.811 104.963C183.644 87.9929 188.506 71.0296 193.324 54.0609C193.572 53.1946 193.977 52.7478 194.862 52.4845C198.49 51.4274 202.104 50.2796 205.718 49.1645C206.08 49.0519 206.449 48.9592 207.015 48.8103Z" fill="#07111F"/>
</g>
</g>
<defs>
<clipPath id="clip0_121_423">
<rect width="281" height="240" fill="white"/>
</clipPath>
</defs>
</svg>
